<svg xmlns="http://www.w3.org/2000/svg" width="605" height="537" viewbox="0 0 605 537" preserveAspectRatio="xMaxYMid meet">
  <defs>
    <style>
      .cls-1{fill:#c9c8d2}.cls-2{fill:#ded1c1}.cls-3{fill:#bdb1a5}.cls-4{fill:#c7bcad}.cls-5{fill:#8e8880}.cls-6{fill:#ede0d1}.cls-7{fill:#faf2eb}.cls-8{fill:#b3a698}.cls-9{fill:#f5ede5}.cls-10{fill:#978a82}.cls-11{fill:#83746e}.cls-13{fill:#bbb0a4}.cls-15{fill:#a6a7aa}.cls-16{fill:#151412}.cls-17{fill:#accd68}.cls-18{fill:#383938}.cls-19{fill:#a49787}.cls-20{fill:#f2e8df}.cls-24{fill:#f0e8e1}.cls-25{fill:#c2b8a8}.cls-30{fill:#b7d0e0}.cls-31{fill:#374048}.cls-32{fill:#d45a52}
    </style>
  </defs>
  <g id="Layer_2" data-name="Layer 2">
    <g id="Layer_1-2" data-name="Layer 1">
      <path class="cls-1" d="M283.8 486.7l-76.3-44.2 235.4-136L292 486.8h-8.2z"/>
      <path class="cls-2" d="M292 486.7L221.6 446l304.2-99v4.7L292 486.7z"/>
      <path class="cls-3" d="M221.6 438.3v7.7l70.4 40.7V482l-70.4-43.7z"/>
      <path class="cls-4" d="M292 483.5L221.6 443l304.2-99v4.7L292 483.6z"/>
      <path class="cls-5" d="M221.6 435.2v7.7l70.4 40.6v-4.7l-70.4-43.6z"/>
      <path class="cls-6" d="M291.8 482l-71.4-41.2 306.8-99.4v4.7l-235.4 136z"/>
      <path class="cls-7" d="M291.8 477.3L220.4 433l235.4-136 71.4 44.3-235.4 135.9z"/>
      <path class="cls-4" d="M458 304.3a1.3 1.3 0 01-.6.9l-6.2 3.6a3.3 3.3 0 01-1.4.4 3.3 3.3 0 01-2-.4l-1.8-1a1.3 1.3 0 01-.6-1.5l1-5.4 9.1-2.2 1-.2.4-.1 1 5.3a1.3 1.3 0 01.1.6z"/>
      <path class="cls-8" d="M446.5 300.9l9-2.2-5.6 3.1-.2 7.4a3.3 3.3 0 01-1.9-.4l-1.8-1a1.3 1.3 0 01-.6-1.5z"/>
      <path class="cls-3" d="M458 304.3l-1.4-5.8.3-.1 1 5.3a1.3 1.3 0 01.1.6z"/>
      <path class="cls-9" d="M449.5 302.6a2.2 2.2 0 01-1.1-.3l-1.8-1a.2.2 0 01-.1-.3.2.2 0 010-.2l6.3-3.5a2.2 2.2 0 011.1-.3 2.2 2.2 0 011.1.3l1.8 1a.2.2 0 01.1.2.2.2 0 01-.1.2l-6.2 3.6a2.2 2.2 0 01-1.1.3z"/>
      <path class="cls-4" d="M447.3 310.5a1.3 1.3 0 01-.6.8l-6.2 3.6a3.1 3.1 0 01-1.4.5 3.3 3.3 0 01-2-.5l-1.7-1a1.3 1.3 0 01-.6-1.5l1-5.3 9.1-2.2 1-.3h.4l1 5.2a1.4 1.4 0 010 .7z"/>
      <path class="cls-8" d="M435.8 307l9-2.1-5.6 3.1-.1 7.4a3.3 3.3 0 01-2-.4l-1.7-1a1.3 1.3 0 01-.6-1.5z"/>
      <path class="cls-3" d="M447.3 310.5l-1.4-5.9h.3l1.1 5.2a1.4 1.4 0 010 .7z"/>
      <path class="cls-9" d="M438.8 308.7a2.3 2.3 0 01-1-.3l-1.9-1a.3.3 0 010-.2.2.2 0 010-.3l6.2-3.5a2.2 2.2 0 011.1-.3 2.2 2.2 0 011.2.3l1.7 1a.2.2 0 01.2.2.2.2 0 01-.2.2l-6.2 3.6a2.3 2.3 0 01-1 .3z"/>
      <path class="cls-4" d="M436.7 316.6a1.3 1.3 0 01-.7.9l-6.2 3.6a3.4 3.4 0 01-3.3 0l-1.8-1.1a1.3 1.3 0 01-.6-1.4l1.1-5.4 9-2.2 1-.2.4-.1 1 5.2a1.3 1.3 0 010 .7z"/>
      <path class="cls-8" d="M425.2 313.2l9-2.2-5.6 3.1-.2 7.4a3.3 3.3 0 01-1.9-.4l-1.8-1.1a1.3 1.3 0 01-.6-1.4z"/>
      <path class="cls-3" d="M436.7 316.6l-1.4-5.8h.3l1 5.2a1.3 1.3 0 010 .6z"/>
      <path class="cls-9" d="M428.2 314.9a2.2 2.2 0 01-1.1-.3l-1.8-1a.2.2 0 01-.1-.3.2.2 0 010-.2l6.3-3.6a2.3 2.3 0 011-.3 2.3 2.3 0 011.2.3l1.8 1a.2.2 0 01.1.3.2.2 0 01-.1.2l-6.2 3.6a2.2 2.2 0 01-1.1.3z"/>
      <path class="cls-4" d="M284.5 404.5a1.3 1.3 0 01-.6.9l-6.3 3.6a3.1 3.1 0 01-1.4.4 3.3 3.3 0 01-1.9-.4l-1.8-1a1.3 1.3 0 01-.6-1.4l1.1-5.4 9-2.2 1-.2.4-.1 1 5.2a1.3 1.3 0 010 .6z"/>
      <path class="cls-8" d="M273 401l9-2-5.6 3-.2 7.4a3.3 3.3 0 01-1.9-.4l-1.8-1a1.3 1.3 0 01-.6-1.5z"/>
      <path class="cls-3" d="M284.5 404.5l-1.4-5.8.3-.1 1 5.2a1.3 1.3 0 010 .7z"/>
      <path class="cls-9" d="M276 402.8a2.2 2.2 0 01-1.1-.3l-1.8-1a.2.2 0 01-.1-.3.2.2 0 01.1-.2l6.2-3.6a2.3 2.3 0 011.1-.2 2.3 2.3 0 011.1.2l1.8 1.1a.2.2 0 01.1.2.2.2 0 010 .2l-6.3 3.6a2.2 2.2 0 01-1.1.3z"/>
      <path class="cls-4" d="M273.8 410.6a1.3 1.3 0 01-.6 1L267 415a3.2 3.2 0 01-1.4.4 3.3 3.3 0 01-2-.4l-1.7-1a1.3 1.3 0 01-.6-1.5l1-5.4 9.1-2.1 1-.3h.4l1 5.2a1.4 1.4 0 010 .6z"/>
      <path class="cls-8" d="M262.3 407.2l9-2.1-5.6 3-.1 7.4a3.3 3.3 0 01-2-.4l-1.7-1a1.3 1.3 0 01-.6-1.5z"/>
      <path class="cls-3" d="M273.8 410.6l-1.4-5.8h.4l1 5.2a1.4 1.4 0 010 .6z"/>
      <path class="cls-9" d="M265.3 409a2.3 2.3 0 01-1-.4l-1.9-1a.3.3 0 010-.3.2.2 0 010-.2l6.2-3.5a2.2 2.2 0 011.2-.3 2.2 2.2 0 011 .3l1.8 1a.2.2 0 01.2.2.2.2 0 01-.2.2l-6.2 3.6a2.3 2.3 0 01-1 .3z"/>
      <g>
        <path class="cls-10" d="M241.8 429.1a1.3 1.3 0 01-.6.9l-6.2 3.6a3.2 3.2 0 01-1.4.4 3.3 3.3 0 01-2-.4l-1.7-1a1.3 1.3 0 01-.6-1.5l1-5.4 9-2.2 1-.2h.4l1 5.2a1.3 1.3 0 01.2.6z"/>
        <path class="cls-11" d="M230.4 425.7l9-2.2-5.7 3.1-.2 7.4a3.3 3.3 0 01-1.9-.4l-1.7-1a1.3 1.3 0 01-.7-1.5z"/>
        <path d="M241.8 429.1l-1.4-5.8h.4l1 5.2a1.3 1.3 0 010 .6z" fill="#ab9b93"/>
        <path class="cls-13" d="M233.3 427.4a2.2 2.2 0 01-1-.3l-1.8-1.1a.2.2 0 01-.2-.2.2.2 0 01.2-.2l6.2-3.6a2.3 2.3 0 011-.3 2.3 2.3 0 011.2.3l1.8 1a.2.2 0 010 .3.2.2 0 010 .2l-6.2 3.6a2.1 2.1 0 01-1.2.3z"/>
      </g>
      <g>
        <path class="cls-4" d="M263.2 416.8a1.3 1.3 0 01-.7.9l-6.2 3.6a3.1 3.1 0 01-1.4.4 3.3 3.3 0 01-1.9-.4l-1.8-1a1.3 1.3 0 01-.6-1.5l1.1-5.4 9-2.2 1-.2.4-.1 1 5.3a1.3 1.3 0 010 .6z"/>
        <path class="cls-8" d="M251.7 413.4l9-2.2-5.6 3.1-.2 7.4a3.3 3.3 0 01-1.9-.4l-1.8-1a1.3 1.3 0 01-.6-1.5z"/>
        <path class="cls-3" d="M263.2 416.8l-1.4-5.8h.3l1 5.2a1.3 1.3 0 010 .6z"/>
        <path class="cls-9" d="M254.7 415a2.1 2.1 0 01-1.1-.2l-1.8-1a.3.3 0 01-.2-.3.3.3 0 01.2-.2l6.2-3.5a2.3 2.3 0 011.1-.3 2.3 2.3 0 011.1.3l1.8 1a.2.2 0 01.1.2.2.2 0 01-.1.2l-6.2 3.6a2.2 2.2 0 01-1.1.3z"/>
      </g>
      <g>
        <path class="cls-4" d="M426 322.8a1.3 1.3 0 01-.6.8l-6.2 3.6a3.3 3.3 0 01-3.4 0l-1.7-1a1.3 1.3 0 01-.7-1.5l1.1-5.3 9-2.2 1-.3h.4l1 5.2a1.4 1.4 0 01.1.7z"/>
        <path class="cls-8" d="M414.5 319.4l9-2.2-5.6 3-.2 7.5a3.3 3.3 0 01-1.9-.5l-1.7-1a1.3 1.3 0 01-.7-1.5z"/>
        <path class="cls-3" d="M426 322.8l-1.4-5.9h.3l1 5.2a1.4 1.4 0 01.1.7z"/>
        <path class="cls-9" d="M417.5 321a2.3 2.3 0 01-1.1-.3l-1.8-1a.3.3 0 01-.1-.3.2.2 0 01.1-.2l6.2-3.6a2.2 2.2 0 011.1-.3 2.2 2.2 0 011.1.3l1.8 1a.3.3 0 01.1.3.2.2 0 010 .2l-6.3 3.6a2.3 2.3 0 01-1.1.3z"/>
      </g>
      <g>
        <path class="cls-4" d="M414.2 329.7a1.3 1.3 0 01-.7 1l-6.2 3.5a3.1 3.1 0 01-1.4.4 3.3 3.3 0 01-1.9-.4l-1.8-1a1.3 1.3 0 01-.6-1.5l1.1-5.4 9-2.1 1-.3h.4l1 5.2a1.5 1.5 0 010 .6z"/>
        <path class="cls-8" d="M402.7 326.3l9-2.1-5.6 3-.2 7.4a3.3 3.3 0 01-1.9-.4l-1.8-1a1.3 1.3 0 01-.6-1.5z"/>
        <path class="cls-3" d="M414.2 329.7l-1.4-5.8h.3l1 5.2a1.5 1.5 0 010 .6z"/>
        <path class="cls-9" d="M405.7 328a2.2 2.2 0 01-1.1-.3l-1.8-1a.2.2 0 01-.1-.3.2.2 0 010-.2l6.3-3.6a2.3 2.3 0 011.1-.3 2.3 2.3 0 011.1.3l1.8 1a.3.3 0 01.1.3.3.3 0 01-.1.2l-6.2 3.6a2.2 2.2 0 01-1.1.3z"/>
      </g>
      <g>
        <path class="cls-4" d="M327.1 379.9a1.4 1.4 0 01-.6.9l-6.2 3.5a3 3 0 01-1.4.5 3.3 3.3 0 01-2-.5l-1.7-1a1.3 1.3 0 01-.6-1.4l1-5.4 9.1-2.2 1-.2h.4l1 5.2a1.5 1.5 0 010 .6z"/>
        <path class="cls-8" d="M315.6 376.5l9-2.2-5.6 3-.1 7.5a3.3 3.3 0 01-2-.5l-1.7-1a1.3 1.3 0 01-.7-1.4z"/>
        <path class="cls-3" d="M327.1 379.9l-1.4-5.8.4-.1 1 5.2a1.5 1.5 0 010 .7z"/>
        <path class="cls-9" d="M318.6 378.1a2.2 2.2 0 01-1-.3l-1.9-1a.2.2 0 010-.2.2.2 0 010-.2l6.2-3.6a2.3 2.3 0 011.2-.3 2.3 2.3 0 011 .3l1.8 1a.3.3 0 01.2.3.3.3 0 01-.2.2l-6.1 3.6a2.2 2.2 0 01-1.2.2z"/>
      </g>
      <g>
        <path class="cls-4" d="M316.5 386a1.3 1.3 0 01-.7.9l-6.2 3.6a3.1 3.1 0 01-1.4.4 3.3 3.3 0 01-1.9-.4l-1.8-1a1.3 1.3 0 01-.6-1.5l1.1-5.4 9-2.2 1-.2.4-.1 1 5.2a1.5 1.5 0 010 .7z"/>
        <path class="cls-8" d="M305 382.6l9-2.2-5.7 3.1-.1 7.4a3.3 3.3 0 01-2-.4l-1.7-1a1.3 1.3 0 01-.6-1.5z"/>
        <path class="cls-3" d="M316.5 386l-1.4-5.8.3-.1 1 5.2a1.5 1.5 0 010 .7z"/>
        <path class="cls-9" d="M308 384.3a2.3 2.3 0 01-1.1-.3l-1.8-1a.3.3 0 01-.1-.2.2.2 0 010-.2l6.3-3.6a2.2 2.2 0 011.1-.3 2.1 2.1 0 011.1.3l1.8 1a.2.2 0 01.1.3.2.2 0 01-.1.2L309 384a2.3 2.3 0 01-1.1.3z"/>
      </g>
      <g>
        <path class="cls-4" d="M305.8 392.2a1.3 1.3 0 01-.6.9l-6.2 3.5a3.2 3.2 0 01-1.4.5 3.3 3.3 0 01-2-.5l-1.7-1a1.3 1.3 0 01-.7-1.5l1.2-5.3 9-2.2 1-.2.4-.1 1 5.2a1.5 1.5 0 010 .7z"/>
        <path class="cls-8" d="M294.3 388.8l9-2.2-5.6 3-.1 7.5a3.3 3.3 0 01-2-.5l-1.7-1a1.3 1.3 0 01-.7-1.5z"/>
        <path class="cls-3" d="M305.8 392.2l-1.4-5.8.3-.1 1 5.2a1.5 1.5 0 01.1.7z"/>
        <path class="cls-9" d="M297.3 390.4a2.2 2.2 0 01-1.1-.2l-1.8-1a.2.2 0 01-.1-.3.2.2 0 01.1-.2l6.2-3.6a2.3 2.3 0 011.1-.3 2.3 2.3 0 011.2.3l1.7 1a.2.2 0 01.1.3.2.2 0 010 .2l-6.3 3.6a2.2 2.2 0 01-1 .3z"/>
      </g>
      <g>
        <path class="cls-4" d="M380.4 349.1a1.3 1.3 0 01-.6.9l-6.2 3.6a3.2 3.2 0 01-1.4.4 3.3 3.3 0 01-2-.4l-1.7-1a1.3 1.3 0 01-.6-1.5l1-5.4 9.1-2.2 1-.2h.4l1 5.2a1.3 1.3 0 010 .6z"/>
        <path class="cls-8" d="M369 345.7l9-2.2-5.6 3.1-.2 7.4a3.3 3.3 0 01-1.9-.4l-1.7-1a1.3 1.3 0 01-.7-1.5z"/>
        <path class="cls-3" d="M380.4 349.1l-1.4-5.8.3-.1 1 5.3a1.3 1.3 0 01.1.6z"/>
        <path class="cls-9" d="M372 347.4a2.3 2.3 0 01-1.2-.3l-1.7-1.1a.3.3 0 01-.2-.2.2.2 0 01.2-.2l6.1-3.6a2.2 2.2 0 011.2-.3 2.2 2.2 0 011 .3l1.9 1a.2.2 0 010 .3.2.2 0 010 .2L373 347a2.2 2.2 0 01-1 .4z"/>
      </g>
      <g>
        <path class="cls-4" d="M369.8 355.3a1.3 1.3 0 01-.7.8l-6.2 3.6a3.2 3.2 0 01-1.4.4 3.3 3.3 0 01-1.9-.4l-1.8-1a1.3 1.3 0 01-.6-1.5l1.1-5.4 9-2.1 1-.3h.4l1 5.2a1.3 1.3 0 010 .7z"/>
        <path class="cls-8" d="M358.3 351.8l9-2.1-5.7 3-.1 7.4a3.3 3.3 0 01-2-.4l-1.7-1a1.3 1.3 0 01-.6-1.5z"/>
        <path class="cls-3" d="M369.8 355.3l-1.4-5.9h.3l1 5.2a1.3 1.3 0 010 .7z"/>
        <path class="cls-9" d="M361.3 353.5a2.2 2.2 0 01-1.1-.3l-1.8-1a.2.2 0 01-.1-.2.2.2 0 010-.3l6.3-3.5a2.3 2.3 0 011.1-.3 2.3 2.3 0 011.1.3l1.8 1a.2.2 0 01.1.2.2.2 0 01-.1.2l-6.2 3.6a2.1 2.1 0 01-1.1.3z"/>
      </g>
      <g>
        <path class="cls-4" d="M359.1 361.4a1.3 1.3 0 01-.6.9l-6.2 3.6a3.2 3.2 0 01-1.4.4 3.3 3.3 0 01-2-.4l-1.7-1a1.3 1.3 0 01-.7-1.5l1.2-5.4 9-2.2 1-.2h.3l1 5.2a1.3 1.3 0 01.1.6z"/>
        <path class="cls-8" d="M347.6 358l9-2.2-5.6 3.1-.1 7.4a3.3 3.3 0 01-2-.4l-1.7-1a1.3 1.3 0 01-.7-1.5z"/>
        <path class="cls-3" d="M359.1 361.4l-1.4-5.8.3-.1 1.1 5.3a1.3 1.3 0 010 .6z"/>
        <path class="cls-9" d="M350.6 359.7a2.3 2.3 0 01-1.1-.3l-1.8-1a.3.3 0 01-.1-.3.2.2 0 01.1-.2l6.2-3.6a2.2 2.2 0 011.1-.3 2.2 2.2 0 011.1.3l1.8 1a.2.2 0 01.1.3.2.2 0 01-.1.2l-6.2 3.6a2.3 2.3 0 01-1 .3z"/>
      </g>
      <g>
        <path class="cls-4" d="M348.5 367.6a1.3 1.3 0 01-.7.8l-6.2 3.6a3.2 3.2 0 01-1.4.5 3.3 3.3 0 01-2-.5l-1.7-1a1.3 1.3 0 01-.6-1.4l1.1-5.4 9-2.2 1-.2h.3l1 5.2a1.2 1.2 0 01.2.6z"/>
        <path class="cls-8" d="M337 364.1l9-2.1-5.7 3-.1 7.5a3.3 3.3 0 01-2-.5l-1.7-1a1.3 1.3 0 01-.6-1.4z"/>
        <path class="cls-3" d="M348.5 367.6l-1.5-5.9h.4l1 5.2a1.2 1.2 0 010 .7z"/>
        <path class="cls-9" d="M340 365.8a2.2 2.2 0 01-1.1-.3l-1.8-1a.2.2 0 01-.1-.2.2.2 0 01.1-.2l6.2-3.6a2.3 2.3 0 011.1-.3 2.3 2.3 0 011.1.3l1.8 1a.2.2 0 010 .4l-6.2 3.6a2.2 2.2 0 01-1.1.3z"/>
      </g>
      <g>
        <path class="cls-4" d="M403.5 335.9a1.3 1.3 0 01-.6.9l-6.2 3.5a3.3 3.3 0 01-1.4.5 3.3 3.3 0 01-2-.5l-1.7-1a1.3 1.3 0 01-.7-1.4l1.2-5.4 9-2.2 1-.2.3-.1 1.1 5.2a1.5 1.5 0 010 .7z"/>
        <path class="cls-8" d="M392 332.5l9-2.2-5.6 3-.2 7.5a3.3 3.3 0 01-1.9-.5l-1.8-1a1.3 1.3 0 01-.6-1.4z"/>
        <path class="cls-3" d="M403.5 335.9l-1.4-5.8.3-.1 1 5.2a1.5 1.5 0 01.1.7z"/>
        <path class="cls-9" d="M395 334.1a2.2 2.2 0 01-1.1-.3l-1.8-1a.3.3 0 01-.1-.2.2.2 0 01.1-.2l6.2-3.6a2.2 2.2 0 011.1-.3 2.2 2.2 0 011.1.3l1.8 1a.2.2 0 01.1.3.2.2 0 010 .2l-6.3 3.6a2.3 2.3 0 01-1.1.3z"/>
      </g>
      <g>
        <path class="cls-4" d="M392.9 342a1.4 1.4 0 01-.7 1l-6.2 3.5a3.1 3.1 0 01-1.4.4 3.3 3.3 0 01-2-.4l-1.7-1a1.3 1.3 0 01-.6-1.5l1-5.4 9.1-2.1 1-.3h.4l1 5.2a1.5 1.5 0 010 .7z"/>
        <path class="cls-8" d="M381.4 338.6l9-2.1-5.6 3-.2 7.4a3.3 3.3 0 01-2-.4l-1.7-1a1.3 1.3 0 01-.6-1.5z"/>
        <path class="cls-3" d="M392.9 342l-1.5-5.8h.4l1 5.2a1.5 1.5 0 010 .7z"/>
        <path class="cls-9" d="M384.4 340.3a2.2 2.2 0 01-1.2-.3l-1.7-1a.2.2 0 01-.2-.2.2.2 0 01.2-.2l6.2-3.6a2.3 2.3 0 011-.3 2.3 2.3 0 011.2.3l1.8 1a.2.2 0 010 .3.2.2 0 010 .2l-6.2 3.6a2.2 2.2 0 01-1.1.2z"/>
      </g>
      <g>
        <path class="cls-4" d="M359.1 361.4a1.3 1.3 0 01-.6.9l-6.2 3.6a3.2 3.2 0 01-1.4.4 3.3 3.3 0 01-2-.4l-1.7-1a1.3 1.3 0 01-.7-1.5l1.2-5.4 9-2.2 1-.2h.3l1 5.2a1.3 1.3 0 01.1.6z"/>
        <path class="cls-8" d="M347.6 358l9-2.2-5.6 3.1-.1 7.4a3.3 3.3 0 01-2-.4l-1.7-1a1.3 1.3 0 01-.7-1.5z"/>
        <path class="cls-3" d="M359.1 361.4l-1.4-5.8.3-.1 1.1 5.3a1.3 1.3 0 010 .6z"/>
        <path class="cls-9" d="M350.6 359.7a2.3 2.3 0 01-1.1-.3l-1.8-1a.3.3 0 01-.1-.3.2.2 0 01.1-.2l6.2-3.6a2.2 2.2 0 011.1-.3 2.2 2.2 0 011.1.3l1.8 1a.2.2 0 01.1.3.2.2 0 01-.1.2l-6.2 3.6a2.3 2.3 0 01-1 .3z"/>
        <g>
          <path class="cls-4" d="M348.5 367.6a1.3 1.3 0 01-.7.8l-6.2 3.6a3.2 3.2 0 01-1.4.5 3.3 3.3 0 01-2-.5l-1.7-1a1.3 1.3 0 01-.6-1.4l1.1-5.4 9-2.2 1-.2h.3l1 5.2a1.2 1.2 0 01.2.6z"/>
          <path class="cls-8" d="M337 364.1l9-2.1-5.7 3-.1 7.5a3.3 3.3 0 01-2-.5l-1.7-1a1.3 1.3 0 01-.6-1.4z"/>
          <path class="cls-3" d="M348.5 367.6l-1.5-5.9h.4l1 5.2a1.2 1.2 0 010 .7z"/>
          <path class="cls-9" d="M340 365.8a2.2 2.2 0 01-1.1-.3l-1.8-1a.2.2 0 01-.1-.2.2.2 0 01.1-.2l6.2-3.6a2.3 2.3 0 011.1-.3 2.3 2.3 0 011.1.3l1.8 1a.2.2 0 010 .4l-6.2 3.6a2.2 2.2 0 01-1.1.3z"/>
        </g>
      </g>
      <g>
        <path class="cls-10" d="M471.2 312.2a1.3 1.3 0 01-.7 1l-6.2 3.6a3.3 3.3 0 01-1 .3 3.3 3.3 0 01-2.3-.3l-6.2-3.6a1.3 1.3 0 01-.7-1.2 1.5 1.5 0 010-.3 1.9 1.9 0 01.1-.2l1-5.1h3.8l.8-.5 1.2-.7a3.3 3.3 0 013.3 0l2 1.2h3.8l1 5a1.2 1.2 0 01.1.4 1.6 1.6 0 010 .4z"/>
        <path class="cls-11" d="M463 308.7l.5 1.5-.1 7a3.3 3.3 0 01-2.4-.4l-6.2-3.6a1.3 1.3 0 01-.7-1.2 1.5 1.5 0 010-.3 1.9 1.9 0 01.1-.2l1-5.1h3.8l.8-.5z"/>
        <path class="cls-8" d="M471.2 312.2l-1.2-5.5-.8-.3h.9l1 5a1.2 1.2 0 01.1.4 1.6 1.6 0 010 .4z"/>
        <path class="cls-13" d="M462.7 310.6a2.2 2.2 0 01-1.1-.3l-6.3-3.6a.2.2 0 010-.2.2.2 0 010-.2l6.3-3.6a2.3 2.3 0 011-.3 2.2 2.2 0 011.2.3l6.2 3.6a.2.2 0 01.1.2.2.2 0 01-.1.2l-6.2 3.6a2.1 2.1 0 01-1.1.3z"/>
        <path class="cls-4" d="M460.5 318.4a1.3 1.3 0 01-.6 1l-6.2 3.6a3 3 0 01-1 .3 3.3 3.3 0 01-2.4-.4l-6.2-3.5a1.3 1.3 0 01-.6-1.2 1.6 1.6 0 010-.3 2 2 0 010-.2l1-5.2h3.8l.8-.4 1.2-.7a3.3 3.3 0 013.3 0l2 1.1h3.8l1 5.1a1 1 0 01.1.4 1.6 1.6 0 010 .4z"/>
        <path class="cls-8" d="M452.4 314.8l.5 1.6-.2 6.9a3.3 3.3 0 01-2.3-.4l-6.3-3.5a1.3 1.3 0 01-.6-1.2 1.6 1.6 0 010-.3 2 2 0 010-.2l1-5.2h3.8l.8-.4zM460.5 318.4l-1.2-5.5-.8-.4h1l1 5a1 1 0 010 .5 1.6 1.6 0 010 .4z"/>
        <path class="cls-9" d="M452 316.7a2.2 2.2 0 01-1.1-.3l-6.2-3.5a.2.2 0 01-.1-.3.2.2 0 010-.2l6.3-3.5a2.2 2.2 0 011.1-.3 2.2 2.2 0 011.1.3l6.2 3.5a.2.2 0 01.1.2.2.2 0 010 .3l-6.3 3.5a2.2 2.2 0 01-1.1.3z"/>
        <path class="cls-4" d="M449.9 324.5a1.3 1.3 0 01-.7 1l-6.2 3.6a3.3 3.3 0 01-1 .4 3.3 3.3 0 01-2.3-.4l-6.2-3.6a1.3 1.3 0 01-.7-1.1 1.5 1.5 0 010-.3 1.9 1.9 0 010-.3l1-5.1h3.8l.8-.5 1.2-.6a3.3 3.3 0 013.3 0l2 1.1h3.8l1 5a1.4 1.4 0 01.2.4 1.6 1.6 0 010 .4z"/>
        <path class="cls-8" d="M441.8 321l.4 1.6-.1 6.9a3.3 3.3 0 01-2.4-.4l-6.2-3.6a1.3 1.3 0 01-.7-1.1 1.5 1.5 0 010-.3 1.9 1.9 0 010-.2l1-5.2h3.8l.8-.4zM449.9 324.5l-1.2-5.5-.8-.3h.9l1 5a1.4 1.4 0 010 .4 1.6 1.6 0 010 .4z"/>
        <path class="cls-9" d="M441.4 322.9a2.2 2.2 0 01-1.2-.3L434 319a.2.2 0 01-.1-.2.2.2 0 01.1-.2l6.2-3.6a2.3 2.3 0 011.1-.3 2.3 2.3 0 011.1.3l6.2 3.6a.2.2 0 01.2.2.2.2 0 01-.2.2l-6.2 3.6a2.2 2.2 0 01-1 .3z"/>
        <path class="cls-4" d="M439.2 330.7a1.3 1.3 0 01-.7 1l-6.1 3.6a3.1 3.1 0 01-1 .3 3.3 3.3 0 01-2.4-.3l-6.2-3.6a1.3 1.3 0 01-.7-1.2 1.6 1.6 0 010-.3 2 2 0 010-.2l1-5.1h3.9l.7-.5 1.2-.7a3.3 3.3 0 013.4 0l2 1.2h3.7l1 5a1.3 1.3 0 01.2.4 1.3 1.3 0 010 .4z"/>
        <path class="cls-8" d="M431 327.1l.5 1.6-.1 7a3.3 3.3 0 01-2.4-.5l-6.2-3.5a1.3 1.3 0 01-.7-1.2 1.6 1.6 0 010-.3 2 2 0 01.1-.2l1-5.2h3.8l.8-.4zM439.2 330.7l-1.2-5.5-.8-.4h.9l1 5.1a1.3 1.3 0 01.1.4 1.3 1.3 0 010 .4z"/>
        <path class="cls-9" d="M430.7 329a2.2 2.2 0 01-1.1-.3l-6.2-3.6a.2.2 0 01-.1-.2.2.2 0 010-.2l6.3-3.6a2.2 2.2 0 011-.3 2.2 2.2 0 011.2.3l6.2 3.6a.2.2 0 01.1.2.2.2 0 01-.1.2l-6.2 3.6a2.2 2.2 0 01-1.1.3z"/>
        <path class="cls-10" d="M427.4 337.6a1.3 1.3 0 01-.7 1l-6.2 3.6a3.3 3.3 0 01-1 .4 3.3 3.3 0 01-2.3-.4l-6.2-3.6a1.3 1.3 0 01-.7-1.1 1.5 1.5 0 010-.3 1 1 0 01.1-.3l1-5h3.8l.8-.5 1.2-.7a3.3 3.3 0 013.3 0l2 1.1h3.8l1 5a1.1 1.1 0 01.1.5 1.6 1.6 0 010 .3z"/>
        <path class="cls-11" d="M419.3 334l.4 1.7-.1 6.9a3.3 3.3 0 01-2.4-.4l-6.2-3.6a1.3 1.3 0 01-.7-1.1 1.5 1.5 0 010-.3 1 1 0 01.1-.3l1-5h3.8l.8-.5z"/>
        <path class="cls-8" d="M427.4 337.6l-1.2-5.5-.8-.3h.9l1 5a1.1 1.1 0 01.1.5 1.6 1.6 0 010 .3z"/>
        <path class="cls-13" d="M418.9 336a2.2 2.2 0 01-1.2-.3l-6.2-3.6a.2.2 0 010-.2.2.2 0 010-.2l6.2-3.6a2.3 2.3 0 011.2-.3 2.3 2.3 0 011 .3l6.3 3.6a.2.2 0 01.1.2.2.2 0 01-.1.2l-6.2 3.6a2.2 2.2 0 01-1.1.3z"/>
        <g>
          <path class="cls-10" d="M416.7 343.8a1.3 1.3 0 01-.6 1l-6.2 3.6a3.3 3.3 0 01-3.4 0l-6.2-3.6a1.3 1.3 0 01-.6-1.2 1.5 1.5 0 010-.3 1 1 0 010-.2l1-5.1h3.8l.8-.5 1.2-.7a3.3 3.3 0 013.3 0l2 1.2h3.8l1 5a1 1 0 01.1.4 1.6 1.6 0 010 .4z"/>
          <path class="cls-11" d="M408.6 340.2l.4 1.6v7a3.3 3.3 0 01-2.5-.4l-6.2-3.6a1.3 1.3 0 01-.6-1.2 1.5 1.5 0 010-.3 1 1 0 010-.2l1-5.2h3.8l.8-.4zM416.7 343.8l-1.2-5.5-.8-.3h1l1 5a1 1 0 010 .4 1.6 1.6 0 010 .4z"/>
          <path class="cls-13" d="M408.2 342.2a2.3 2.3 0 01-1.1-.3l-6.2-3.6a.2.2 0 01-.1-.2.2.2 0 010-.2l6.3-3.6a2.2 2.2 0 011.1-.3 2.2 2.2 0 011.1.3l6.2 3.6a.2.2 0 01.1.2.2.2 0 010 .2l-6.3 3.6a2.3 2.3 0 01-1.1.3z"/>
        </g>
        <g>
          <path class="cls-10" d="M406 350a1.3 1.3 0 01-.6 1l-6.2 3.6a3.3 3.3 0 01-1 .3 3.3 3.3 0 01-2.3-.3l-6.2-3.6a1.3 1.3 0 01-.7-1.2 1.5 1.5 0 010-.3 1.9 1.9 0 010-.2l1-5.1h3.8l.8-.5 1.2-.7a3.3 3.3 0 013.3 0l2 1.2h3.9l1 5a1 1 0 01.1.4 1.6 1.6 0 010 .4z"/>
          <path class="cls-11" d="M398 346.4l.4 1.6-.1 6.9a3.3 3.3 0 01-2.4-.4l-6.2-3.6a1.3 1.3 0 01-.7-1.1 1.5 1.5 0 010-.3 1.9 1.9 0 010-.2l1-5.2h3.8l.8-.4zM406 350l-1.1-5.5-.8-.3h.9l1 5a1 1 0 01.1.4 1.6 1.6 0 010 .4z"/>
          <path class="cls-13" d="M397.5 348.3a2.2 2.2 0 01-1-.3l-6.3-3.6a.2.2 0 01-.1-.2.2.2 0 01.1-.2l6.2-3.6a2.3 2.3 0 011.1-.3 2.3 2.3 0 011.2.3l6.2 3.6a.2.2 0 010 .2.2.2 0 010 .2l-6.3 3.6a2.2 2.2 0 01-1 .3z"/>
        </g>
        <g>
          <path class="cls-10" d="M393.6 356.4l-1-5.2-2.7.6-3-1.8a3.3 3.3 0 00-3.4 0l-6.2 3.6-3.7 2.2-6.6 1.5-1 5.2a1.3 1.3 0 00.6 1.6l6.2 3.6a3.3 3.3 0 003.3 0L393 358a1.3 1.3 0 00.6-1.6z"/>
          <path class="cls-11" d="M374.9 359.6l.4 1.6-.1 6.9a3.3 3.3 0 01-2.4-.4l-6.2-3.5a1.3 1.3 0 01-.7-1.2 1.5 1.5 0 010-.3 1 1 0 01.1-.2l1-5.2h3.8l.7-.4z"/>
          <path class="cls-13" d="M374.5 361.5a2.2 2.2 0 01-1.2-.3l-6.2-3.6a.2.2 0 010-.2.2.2 0 010-.2l16.9-9.7a2.3 2.3 0 011.1-.3 2.3 2.3 0 011.1.3l6.2 3.6a.2.2 0 01.2.2.2.2 0 01-.2.2l-10.6 6.1-.2.1-6 3.5a2.2 2.2 0 01-1.1.3z"/>
        </g>
        <g>
          <path class="cls-4" d="M372.3 369.3a1.3 1.3 0 01-.6 1l-6.2 3.6a3 3 0 01-1 .4 3.2 3.2 0 01-2.4-.4l-6.2-3.6a1.3 1.3 0 01-.6-1.1 1.6 1.6 0 010-.3 1 1 0 010-.3l1-5.1h3.8l.8-.4 1.2-.7a3.3 3.3 0 013.3 0l2 1h3.8l1 5.2a1.6 1.6 0 01.1.3 1.6 1.6 0 010 .4z"/>
          <path class="cls-8" d="M364.2 365.8l.4 1.5v7a3.2 3.2 0 01-2.5-.4l-6.2-3.6a1.3 1.3 0 01-.6-1.1 1.6 1.6 0 010-.4 1 1 0 010-.2l1-5.1h3.8l.8-.5zM372.3 369.3l-1.2-5.5-.8-.3h1l1 5a1.6 1.6 0 010 .4 1.6 1.6 0 010 .4z"/>
          <path class="cls-9" d="M363.8 367.7a2.3 2.3 0 01-1.1-.3l-6.2-3.6a.2.2 0 01-.1-.2.2.2 0 010-.2l6.3-3.6a2.3 2.3 0 011.1-.3 2.3 2.3 0 011.1.3l6.2 3.6a.2.2 0 01.1.2.2.2 0 010 .2l-6.3 3.6a2.3 2.3 0 01-1.1.3z"/>
        </g>
        <g>
          <path class="cls-4" d="M361.7 375.5a1.3 1.3 0 01-.7 1l-6.2 3.5a3.3 3.3 0 01-3.3 0l-6.2-3.6a1.3 1.3 0 01-.7-1.1 1.5 1.5 0 010-.3 1 1 0 010-.3l1-5.1h3.9l.7-.5 1.2-.6a3.3 3.3 0 013.4 0l2 1.1h3.7l1 5a1.5 1.5 0 01.1.4 1.2 1.2 0 010 .5z"/>
          <path class="cls-8" d="M353.6 372l.4 1.5-.1 7a3.3 3.3 0 01-2.4-.5l-6.2-3.5a1.3 1.3 0 01-.7-1.2 1.5 1.5 0 010-.3 1 1 0 010-.2l1-5.2h3.9l.7-.4zM361.7 375.5l-1.2-5.5-.8-.4h.9l1 5a1.5 1.5 0 010 .5 1.2 1.2 0 010 .4z"/>
          <path class="cls-9" d="M353.1 373.8a2.1 2.1 0 01-1-.3l-6.3-3.5a.2.2 0 010-.4l6.2-3.6a2.2 2.2 0 012.2 0l6.2 3.6a.2.2 0 01.2.2.2.2 0 01-.2.2l-6.2 3.6a2.1 2.1 0 01-1 .2z"/>
        </g>
        <g>
          <path class="cls-4" d="M351 381.6a1.3 1.3 0 01-.7 1l-6.2 3.6a3 3 0 01-1 .4 3.3 3.3 0 01-2.3-.4l-6.2-3.6a1.3 1.3 0 01-.7-1.1 1.6 1.6 0 010-.3 1 1 0 01.1-.3l1-5.1h3.8l.8-.4 1.2-.7a3.3 3.3 0 013.3 0l2 1.1h3.8l1 5a1 1 0 01.1.5 1.6 1.6 0 010 .3z"/>
          <path class="cls-8" d="M342.9 378l.4 1.6-.1 7a3.3 3.3 0 01-2.4-.4l-6.2-3.6a1.3 1.3 0 01-.7-1.1 1.6 1.6 0 010-.3 1 1 0 01.1-.3l1-5.1h3.8l.8-.5zM351 381.6l-1.2-5.5-.8-.3h.9l1 5a1 1 0 01.1.4 1.6 1.6 0 010 .4z"/>
          <path class="cls-9" d="M342.5 380a2.2 2.2 0 01-1.1-.3l-6.2-3.6a.2.2 0 01-.2-.2.2.2 0 01.2-.2l6.2-3.6a2.2 2.2 0 012.2 0l6.2 3.6a.2.2 0 01.1.2.2.2 0 01-.1.2l-6.2 3.6a2.2 2.2 0 01-1.1.3z"/>
        </g>
        <g>
          <path class="cls-4" d="M340.3 387.8a1.3 1.3 0 01-.6 1l-6.2 3.6a3.7 3.7 0 01-1 .3 3.3 3.3 0 01-2.4-.3l-6.1-3.6a1.3 1.3 0 01-.7-1.2 1.5 1.5 0 010-.3 1 1 0 01.1-.2l1-5.2h3.8l.8-.4 1.2-.7a3.3 3.3 0 013.3 0l2 1.1h3.8l1 5.1a1.2 1.2 0 010 .4 1.6 1.6 0 010 .4z"/>
          <path class="cls-8" d="M332.2 384.2l.5 1.6-.2 7a3.3 3.3 0 01-2.3-.4l-6.2-3.6a1.3 1.3 0 01-.7-1.2 1.5 1.5 0 010-.3 1 1 0 01.1-.2l1-5.2h3.8l.8-.4zM340.3 387.8l-1.2-5.5-.7-.4h.8l1 5.1a1.2 1.2 0 01.2.4 1.6 1.6 0 010 .4z"/>
          <path class="cls-9" d="M331.8 386.1a2.1 2.1 0 01-1-.3l-6.3-3.5a.2.2 0 01-.1-.2.2.2 0 01.1-.3l6.2-3.5a2.2 2.2 0 012.2 0l6.2 3.6a.2.2 0 01.2.2.2.2 0 01-.2.2l-6.2 3.5a2.1 2.1 0 01-1 .3z"/>
        </g>
        <g>
          <path class="cls-4" d="M329.7 394a1.3 1.3 0 01-.7 1l-6.2 3.5a3 3 0 01-1 .4 3.3 3.3 0 01-2.3-.4l-6.2-3.6a1.3 1.3 0 01-.7-1.1 1.6 1.6 0 010-.3 1 1 0 01.1-.2l1-5.2h3.8l.8-.4 1.2-.7a3.3 3.3 0 013.3 0l2 1.1h3.7l1 5a1 1 0 01.2.5 1.6 1.6 0 010 .3z"/>
          <path class="cls-8" d="M321.6 390.4l.4 1.6-.1 7a3.3 3.3 0 01-2.4-.4l-6.2-3.6a1.3 1.3 0 01-.7-1.2 1.6 1.6 0 010-.3 1 1 0 01.1-.2l1-5.2h3.8l.8-.4zM329.7 394l-1.2-5.6-.8-.3h.9l1 5a1 1 0 01.1.5 1.6 1.6 0 010 .3z"/>
          <path class="cls-9" d="M321.2 392.3a2.3 2.3 0 01-1.2-.3l-6.2-3.6a.2.2 0 01-.1-.2.2.2 0 01.1-.2l6.2-3.6a2.3 2.3 0 011.1-.3 2.3 2.3 0 011.1.3l6.2 3.6a.2.2 0 01.2.2.2.2 0 01-.2.2l-6.1 3.6a2.2 2.2 0 01-1.1.3z"/>
        </g>
        <g>
          <path class="cls-4" d="M319 400a1.3 1.3 0 01-.7 1l-6.2 3.7a3.3 3.3 0 01-1 .3 3.3 3.3 0 01-2.3-.3l-6.2-3.6a1.3 1.3 0 01-.7-1.2 1.5 1.5 0 010-.3 1 1 0 010-.2l1-5.1h3.8l.8-.5 1.2-.7a3.3 3.3 0 013.3 0l2 1.2h3.8l1 5a1.2 1.2 0 01.1.4 1.6 1.6 0 01.1.4z"/>
          <path class="cls-8" d="M311 396.5l.3 1.6v7a3.3 3.3 0 01-2.5-.4l-6.2-3.6a1.3 1.3 0 01-.6-1.2 1.5 1.5 0 010-.3 1 1 0 010-.2l1-5.1h3.8l.8-.5zM319 400l-1.2-5.4-.8-.4h.9l1 5.1a1.2 1.2 0 01.1.4 1.6 1.6 0 010 .4z"/>
          <path class="cls-9" d="M310.5 398.5a2.2 2.2 0 01-1.1-.3l-6.2-3.6a.2.2 0 01-.1-.2.2.2 0 010-.2l6.3-3.6a2.2 2.2 0 011.1-.3 2.2 2.2 0 011.1.3l6.2 3.6a.2.2 0 01.1.2.2.2 0 010 .2l-6.3 3.6a2.2 2.2 0 01-1.1.3z"/>
        </g>
        <g>
          <path class="cls-4" d="M308.4 406.3a1.3 1.3 0 01-.7 1l-6.2 3.5a3 3 0 01-1 .4 3.3 3.3 0 01-2.3-.4l-6.2-3.6a1.3 1.3 0 01-.7-1.1 1.1 1.1 0 010-.3 2 2 0 01.1-.3l1-5.1h3.8l.8-.4 1.2-.7a3.3 3.3 0 013.3 0l2 1.1h3.8l1 5.1a1.3 1.3 0 01.1.4 1.6 1.6 0 010 .4z"/>
          <path class="cls-8" d="M300.2 402.7l.5 1.6-.1 6.9a3.3 3.3 0 01-2.4-.4l-6.2-3.6a1.3 1.3 0 01-.7-1.1 1.1 1.1 0 010-.3 2 2 0 01.1-.3l1-5.1h3.8l.8-.4zM308.4 406.3l-1.2-5.6-.8-.3h.9l1 5a1.3 1.3 0 010 .5 1.6 1.6 0 010 .4z"/>
          <path class="cls-9" d="M299.8 404.6a2.3 2.3 0 01-1-.3l-6.3-3.6a.2.2 0 01-.1-.2.2.2 0 01.1-.2l6.2-3.6a2.2 2.2 0 011.1-.3 2.2 2.2 0 011.1.3l6.3 3.6a.2.2 0 010 .2.2.2 0 010 .2l-6.2 3.6a2.3 2.3 0 01-1.2.3z"/>
        </g>
        <g>
          <path class="cls-4" d="M297.7 412.4a1.3 1.3 0 01-.7 1l-6.2 3.6a3.5 3.5 0 01-1 .3 3.3 3.3 0 01-2.3-.3l-6.2-3.6a1.3 1.3 0 01-.7-1.2 1 1 0 010-.3 1.9 1.9 0 010-.2l1-5.1h3.8l.8-.5 1.2-.7a3.3 3.3 0 013.3 0l2 1.2h3.8l1 5a1.8 1.8 0 01.2.4 1.6 1.6 0 010 .4z"/>
          <path class="cls-8" d="M289.6 408.9l.4 1.5-.1 7a3.3 3.3 0 01-2.4-.4l-6.2-3.6a1.3 1.3 0 01-.7-1.2 1 1 0 010-.3 1.9 1.9 0 01.1-.2l1-5.1h3.8l.8-.5zM297.7 412.4l-1.2-5.5-.8-.3h.9l1 5a1.8 1.8 0 01.1.4 1.6 1.6 0 010 .4z"/>
          <path class="cls-9" d="M289.2 410.8a2.2 2.2 0 01-1.1-.3l-6.2-3.6a.2.2 0 01-.2-.2.2.2 0 01.2-.2l6.2-3.6a2.2 2.2 0 011-.3 2.2 2.2 0 011.2.3l6.2 3.6a.2.2 0 01.1.2.2.2 0 01-.1.2l-6.2 3.6a2.2 2.2 0 01-1.1.3z"/>
        </g>
        <g>
          <path class="cls-4" d="M287 418.6a1.3 1.3 0 01-.7 1l-6.1 3.5a3.2 3.2 0 01-1 .4 3.3 3.3 0 01-2.4-.4l-6.2-3.5a1.3 1.3 0 01-.7-1.2 1.1 1.1 0 010-.3 2 2 0 010-.2l1-5.2h3.9l.7-.4 1.2-.7a3.3 3.3 0 013.4 0l2 1.1h3.7l1 5.1a1.6 1.6 0 01.2.4 1.2 1.2 0 010 .4z"/>
          <path class="cls-8" d="M279 415l.4 1.6-.2 6.9a3.3 3.3 0 01-2.3-.4l-6.2-3.6a1.3 1.3 0 01-.7-1.1 1.1 1.1 0 010-.3 2 2 0 010-.3l1-5.1h3.8l.8-.4zM287 418.6l-1.2-5.6-.8-.3h.9l1 5a1.6 1.6 0 01.1.5 1.2 1.2 0 010 .4z"/>
          <path class="cls-9" d="M278.5 417a2.3 2.3 0 01-1.1-.4l-6.2-3.6a.2.2 0 01-.1-.2.3.3 0 01.1-.2l6.2-3.6a2.2 2.2 0 012.2 0l6.2 3.6a.3.3 0 01.2.2.2.2 0 01-.2.2l-6.2 3.6a2.3 2.3 0 01-1 .3z"/>
        </g>
        <g>
          <path class="cls-4" d="M276.4 424.7a1.3 1.3 0 01-.7 1l-6.2 3.6a3.9 3.9 0 01-1 .4 3.4 3.4 0 01-2.3-.4l-6.2-3.6a1.3 1.3 0 01-.7-1.2 1 1 0 010-.3 1 1 0 01.1-.2l1-5.1h3.8l.7-.5 1.2-.7a3.4 3.4 0 013.4 0l2 1.2h3.7l1 5a1.8 1.8 0 01.2.4 1.2 1.2 0 010 .4z"/>
          <path class="cls-8" d="M268.3 421.2l.4 1.5-.1 7a3.4 3.4 0 01-2.4-.4l-6.2-3.6a1.3 1.3 0 01-.7-1.2 1 1 0 010-.3 1 1 0 01.1-.2l1-5.1h3.8l.7-.5zM276.4 424.7l-1.2-5.5-.8-.3h.9l1 5a1.8 1.8 0 010 .4 1.2 1.2 0 010 .4z"/>
          <path class="cls-9" d="M267.9 423a2.2 2.2 0 01-1.2-.2l-6.2-3.6a.3.3 0 010-.2.2.2 0 010-.2l6.2-3.6a2.2 2.2 0 012.3 0l6.2 3.6a.2.2 0 01.1.2.3.3 0 01-.1.2l-6.2 3.6a2.2 2.2 0 01-1.1.3z"/>
        </g>
        <g>
          <path class="cls-4" d="M265.7 430.9a1.3 1.3 0 01-.6 1l-6.2 3.6a3.2 3.2 0 01-1 .3 3.3 3.3 0 01-2.4-.4l-6.2-3.5a1.3 1.3 0 01-.7-1.2 1.6 1.6 0 010-.3 1 1 0 010-.2l1-5.2h3.9l.7-.4 1.2-.7a3.4 3.4 0 013.4 0l2 1.1h3.7l1 5.1a1.6 1.6 0 01.2.4 1.2 1.2 0 010 .4z"/>
          <path class="cls-8" d="M257.6 427.3l.4 1.6-.1 6.9a3.3 3.3 0 01-2.4-.4l-6.2-3.5a1.3 1.3 0 01-.6-1.2 1.6 1.6 0 010-.3 1 1 0 010-.2l1-5.2h3.8l.8-.4zM265.7 430.9l-1.2-5.5-.8-.4h.9l1 5a1.6 1.6 0 01.1.5 1.2 1.2 0 010 .4z"/>
          <path class="cls-9" d="M257.2 429.2a2.3 2.3 0 01-1.1-.3l-6.2-3.5a.2.2 0 01-.2-.3.3.3 0 01.2-.2l6.2-3.5a2.3 2.3 0 011-.3 2.3 2.3 0 011.2.3l6.2 3.5a.2.2 0 01.1.2.2.2 0 010 .3l-6.3 3.5a2.3 2.3 0 01-1.1.3z"/>
        </g>
        <g>
          <path class="cls-4" d="M255 437a1.3 1.3 0 01-.6 1l-6.2 3.6a3.7 3.7 0 01-1 .3 3.3 3.3 0 01-2.3-.3l-6.2-3.6a1.3 1.3 0 01-.7-1.2 1.5 1.5 0 010-.3 1 1 0 010-.2l1-5.1h3.9l.7-.5 1.2-.7a3.3 3.3 0 013.3 0l2 1.2h3.8l1 5a1.6 1.6 0 01.1.4 1.2 1.2 0 010 .4z"/>
          <path class="cls-8" d="M247 433.5l.4 1.5-.2 7a3.3 3.3 0 01-2.3-.4l-6.2-3.6a1.3 1.3 0 01-.7-1.1 1.5 1.5 0 010-.3 1 1 0 010-.3l1-5.1h3.9l.7-.5zM255 437l-1.1-5.5-.8-.3h.8l1 5a1.6 1.6 0 01.2.4 1.2 1.2 0 010 .4z"/>
          <path class="cls-9" d="M246.5 435.4a2.2 2.2 0 01-1-.3l-6.3-3.6a.2.2 0 01-.1-.2.2.2 0 01.1-.2l6.2-3.6a2.2 2.2 0 011.1-.3 2.2 2.2 0 011.2.3l6.2 3.6a.2.2 0 010 .2.2.2 0 010 .2l-6.3 3.6a2.2 2.2 0 01-1 .3z"/>
        </g>
      </g>
      <g>
        <path class="cls-10" d="M401.4 358c-.5-1.2-1.5.3-2-.9H395l-6.4 1.6-1 5.2a1.3 1.3 0 00.5 1.6l6.3 3.5a3.3 3.3 0 003.3 0l7.2-4.2a34.4 34.4 0 01-3.6-6.7z"/>
        <path class="cls-11" d="M396.5 361l.5 1.5-.2 7c-.8 0-.7.6-1.4.1l-7.1-4.1a1.3 1.3 0 01-.7-1.2 1.6 1.6 0 010-.3 1 1 0 010-.2l1-5.2h3.8l.8-.4z"/>
      </g>
      <g>
        <path class="cls-11" d="M465.2 319l1.4-5 2.3.5 3.1-1.9a3.3 3.3 0 013.3 0l10.4 6 6.4 1.6 1 5.3a1.3 1.3 0 01-.6 1.5l-6.2 3.5a3.3 3.3 0 01-3.3 0l-10.5-6a.8.8 0 01-.2-.1l-6.5-3.8a1.3 1.3 0 01-.7-1.2 1.5 1.5 0 01.1-.4z"/>
        <path class="cls-10" d="M484.3 322.5l-.5 1.5.2 7a3.3 3.3 0 002.4-.4l6.2-3.5a1.3 1.3 0 00.6-1.2 1.5 1.5 0 000-.3 1 1 0 000-.2l-1-5.2h-3.8l-.8-.4z"/>
        <path class="cls-13" d="M484.7 324.4a2.1 2.1 0 01-1.1-.3l-17.3-10a.2.2 0 010-.2.2.2 0 010-.2l6.3-3.5a2.2 2.2 0 011-.3 2.2 2.2 0 011.2.3L492 320a.2.2 0 010 .4l-6.2 3.6a2.1 2.1 0 01-1.1.3z"/>
        <path class="cls-4" d="M471.5 325.8a1.3 1.3 0 01-.6 1l-6.2 3.6a3.3 3.3 0 01-1 .4 3.3 3.3 0 01-2.4-.4l-6.2-3.6a1.3 1.3 0 01-.7-1.1 1.4 1.4 0 010-.3.8.8 0 010-.3l1-5h3.9l.7-.5 1.2-.7a3.3 3.3 0 013.4 0l2 1.1h3.7l1 5a1.6 1.6 0 01.2.5 1.2 1.2 0 010 .3z"/>
        <path class="cls-8" d="M463.4 322.3l.4 1.5v7a3.3 3.3 0 01-2.5-.4l-6.2-3.6a1.3 1.3 0 01-.6-1.1 1.4 1.4 0 010-.3.8.8 0 010-.3l1-5.1h3.8l.8-.5zM471.5 325.8l-1.2-5.5-.8-.3h1l1 5a1.6 1.6 0 010 .4 1.2 1.2 0 010 .4z"/>
        <path class="cls-9" d="M463 324.2a2.2 2.2 0 01-1.1-.3l-6.2-3.6a.2.2 0 01-.1-.2.2.2 0 010-.2l6.3-3.6a2.3 2.3 0 011.1-.3 2.3 2.3 0 011.1.3l6.2 3.6a.2.2 0 01.1.2.2.2 0 010 .2L464 324a2.2 2.2 0 01-1.1.3z"/>
        <path class="cls-4" d="M460.9 332a1.3 1.3 0 01-.7 1l-6.2 3.6a3.3 3.3 0 01-3.3 0l-6.2-3.6a1.3 1.3 0 01-.7-1.2 1.5 1.5 0 010-.3 1 1 0 010-.2l1-5.2h3.9l.7-.4 1.2-.7a3.3 3.3 0 013.3 0l2 1.1h3.8l1 5.1a2 2 0 01.1.4 1.3 1.3 0 010 .4z"/>
        <path class="cls-8" d="M452.8 328.4l.4 1.6-.1 7a3.3 3.3 0 01-2.4-.4l-6.2-3.6a1.3 1.3 0 01-.7-1.2 1.5 1.5 0 010-.3 1 1 0 010-.2l1-5.2h3.9l.7-.4zM460.9 332l-1.2-5.5-.8-.3h.9l1 5a2 2 0 010 .4 1.3 1.3 0 010 .4z"/>
        <path class="cls-9" d="M452.3 330.4a2.2 2.2 0 01-1-.3l-6.3-3.6a.2.2 0 01-.1-.2.2.2 0 01.1-.2l6.2-3.6a2.2 2.2 0 011.1-.3 2.2 2.2 0 011.1.3l6.2 3.6a.2.2 0 01.2.2.2.2 0 01-.2.2l-6.2 3.6a2.2 2.2 0 01-1 .3z"/>
        <path class="cls-4" d="M450.2 338.1a1.3 1.3 0 01-.7 1l-6.2 3.6a3.3 3.3 0 01-1 .4 3.3 3.3 0 01-2.3-.4l-6.2-3.6a1.3 1.3 0 01-.6-1.1 1.4 1.4 0 010-.3.8.8 0 010-.2l1-5.2h3.8l.8-.4 1.2-.7a3.3 3.3 0 013.3 0l2 1.1h3.8l1 5a1.6 1.6 0 010 .5 1.6 1.6 0 01.1.3z"/>
        <path class="cls-8" d="M442 334.6l.5 1.6-.1 6.9a3.3 3.3 0 01-2.4-.4l-6.2-3.6a1.3 1.3 0 01-.7-1.1 1.4 1.4 0 010-.3.8.8 0 01.1-.3l1-5h3.8l.8-.5zM450.2 338.1l-1.2-5.5-.8-.3h.9l1 5a1.6 1.6 0 01.1.5 1.6 1.6 0 010 .3z"/>
        <path class="cls-9" d="M441.7 336.5a2.3 2.3 0 01-1.1-.3l-6.2-3.6a.2.2 0 01-.2-.2.2.2 0 01.2-.2l6.2-3.6a2.3 2.3 0 011-.3 2.3 2.3 0 011.2.3l6.2 3.6a.2.2 0 01.1.2.2.2 0 01-.1.2l-6.2 3.6a2.3 2.3 0 01-1.1.3z"/>
        <path class="cls-10" d="M438.4 345.1a1.3 1.3 0 01-.7 1l-6.2 3.6a3.5 3.5 0 01-1 .4 3.3 3.3 0 01-2.3-.4l-6.2-3.6a1.3 1.3 0 01-.7-1.1 1 1 0 010-.3 1 1 0 010-.3l1-5.1h3.8l.8-.5 1.2-.6a3.3 3.3 0 013.3 0l2 1.1h3.8l1 5a1.8 1.8 0 01.1.4 1.2 1.2 0 010 .4z"/>
        <path class="cls-11" d="M430.3 341.6l.4 1.5-.1 7a3.3 3.3 0 01-2.4-.4L422 346a1.3 1.3 0 01-.7-1.2 1 1 0 010-.2 1 1 0 010-.3l1-5.1h3.9l.7-.5z"/>
        <path class="cls-8" d="M438.4 345.1l-1.2-5.5-.8-.3h.9l1 5a1.8 1.8 0 010 .4 1.2 1.2 0 010 .4z"/>
        <path class="cls-13" d="M429.9 343.5a2.3 2.3 0 01-1.2-.3l-6.2-3.6a.3.3 0 010-.2.3.3 0 010-.2l6.2-3.6a2.3 2.3 0 011.2-.3 2.3 2.3 0 011 .3l6.3 3.6a.2.2 0 01.1.2.3.3 0 01-.1.2l-6.2 3.6a2.3 2.3 0 01-1.1.3z"/>
        <path class="cls-10" d="M427.7 351.3a1.3 1.3 0 01-.6 1l-6.2 3.6a3.5 3.5 0 01-1 .3 3.3 3.3 0 01-2.4-.3l-6.2-3.6a1.3 1.3 0 01-.7-1.2 1.5 1.5 0 010-.3 1 1 0 010-.2l1-5.2h3.9l.7-.4 1.2-.7a3.4 3.4 0 013.4 0l2 1.1h3.7l1 5.1a1.7 1.7 0 01.2.4 1.3 1.3 0 010 .4z"/>
        <path class="cls-11" d="M419.6 347.7l.4 1.6-.1 7a3.3 3.3 0 01-2.4-.5l-6.2-3.5a1.3 1.3 0 01-.6-1.2 1.5 1.5 0 010-.3 1 1 0 010-.2l1-5.2h3.8l.8-.4zM427.7 351.3l-1.2-5.5-.8-.4h.9l1 5.1a1.7 1.7 0 01.1.4 1.3 1.3 0 010 .4z"/>
        <path class="cls-13" d="M419.2 349.6a2.2 2.2 0 01-1.1-.3l-6.2-3.5a.2.2 0 01-.1-.3.2.2 0 010-.2l6.3-3.5a2.2 2.2 0 012.2 0l6.2 3.5a.2.2 0 01.1.3.2.2 0 010 .2l-6.3 3.5a2.3 2.3 0 01-1.1.3z"/>
        <g>
          <path class="cls-10" d="M417 357.4a1.3 1.3 0 01-.6 1l-6.2 3.6a3.3 3.3 0 01-1 .4 3.3 3.3 0 01-2.3-.4l-6.2-3.6a1.3 1.3 0 01-.7-1.1 1.4 1.4 0 010-.3 1 1 0 010-.3l1-5.1h3.8l.8-.5 1.2-.6a3.3 3.3 0 013.3 0l2 1.1h3.8l1 5a1.6 1.6 0 01.1.4 1.2 1.2 0 010 .4z"/>
          <path class="cls-11" d="M409 353.9l.4 1.6-.2 6.9a3.3 3.3 0 01-2.3-.4l-6.2-3.6a1.3 1.3 0 01-.7-1.1 1.4 1.4 0 010-.3 1 1 0 010-.3l1-5.1h3.8l.8-.5zM417 357.4L416 352l-.8-.3h.8l1 5a1.6 1.6 0 01.2.4 1.2 1.2 0 010 .4z"/>
          <path class="cls-13" d="M408.5 355.8a2.2 2.2 0 01-1-.3l-6.3-3.6a.2.2 0 01-.1-.2.2.2 0 01.1-.2l6.2-3.6a2.3 2.3 0 011.1-.3 2.3 2.3 0 011.1.3l6.2 3.6a.2.2 0 01.2.2.2.2 0 01-.2.2l-6.2 3.6a2.2 2.2 0 01-1 .3z"/>
        </g>
        <g>
          <path class="cls-4" d="M394 370.6a1.3 1.3 0 01-.7 1l-6.2 3.6a3.3 3.3 0 01-3.3 0l-6.2-3.6a1.3 1.3 0 01-.7-1.1 1.6 1.6 0 010-.3 2 2 0 01.1-.3l1-5.1h3.8l.8-.4 1.2-.7a3.3 3.3 0 013.3 0l2 1.1h3.8l1 5a1 1 0 01.1.4 1.7 1.7 0 010 .4z"/>
          <path class="cls-8" d="M385.9 367l.4 1.6-.1 7a3.3 3.3 0 01-2.4-.4l-6.2-3.6a1.3 1.3 0 01-.7-1.1 1.6 1.6 0 010-.3 2 2 0 01.1-.3l1-5.1h3.8l.7-.5zM394 370.6l-1.2-5.5-.8-.3h.9l1 5a1 1 0 01.1.4 1.7 1.7 0 010 .4z"/>
          <path class="cls-9" d="M385.5 369a2.2 2.2 0 01-1.2-.3l-6.2-3.6a.2.2 0 010-.2.2.2 0 010-.2l6.2-3.6a2.2 2.2 0 011.2-.3 2.2 2.2 0 011 .3l6.3 3.6a.2.2 0 01.1.2.2.2 0 01-.1.2l-6.2 3.6a2.2 2.2 0 01-1.1.3z"/>
        </g>
        <g>
          <path class="cls-4" d="M383.3 376.8a1.3 1.3 0 01-.6 1l-6.2 3.6a3.3 3.3 0 01-1 .3 3.3 3.3 0 01-2.4-.3l-6.2-3.6a1.3 1.3 0 01-.6-1.2 1.4 1.4 0 010-.3 1.4 1.4 0 010-.2l1-5.1h3.8l.8-.5 1.2-.7a3.3 3.3 0 013.3 0l2 1.2h3.8l1 5a1 1 0 01.1.4 1.6 1.6 0 010 .4z"/>
          <path class="cls-8" d="M375.2 373.2l.4 1.6v7a3.3 3.3 0 01-2.5-.4l-6.2-3.6a1.3 1.3 0 01-.6-1.2 1.4 1.4 0 010-.3 1.4 1.4 0 010-.2l1-5.2h3.8l.8-.4zM383.3 376.8l-1.2-5.5-.8-.4h1l1 5.1a1 1 0 010 .4 1.6 1.6 0 010 .4z"/>
        </g>
        <g>
          <path class="cls-4" d="M372.7 383a1.3 1.3 0 01-.7 1l-6.2 3.5a3.4 3.4 0 01-1 .4 3.3 3.3 0 01-2.4-.4l-6.2-3.6a1.3 1.3 0 01-.6-1.1 1.6 1.6 0 010-.3 2 2 0 010-.2l1-5.2h3.8l.8-.4 1.2-.7a3.3 3.3 0 013.3 0l2 1.1h3.8l1 5a1 1 0 01.1.5 1.7 1.7 0 010 .3z"/>
          <path class="cls-8" d="M364.5 379.4l.5 1.6-.1 7a3.3 3.3 0 01-2.4-.4l-6.2-3.6a1.3 1.3 0 01-.7-1.2 1.6 1.6 0 010-.3 2 2 0 010-.2l1-5.2h3.9l.7-.4zM372.7 383l-1.2-5.6-.8-.3h.9l1 5a1 1 0 010 .4 1.7 1.7 0 010 .4z"/>
          <path class="cls-9" d="M364.1 381.3a2.3 2.3 0 01-1.1-.3l-6.2-3.6a.2.2 0 01-.1-.2.2.2 0 01.1-.2l6.2-3.6a2.2 2.2 0 011.1-.3 2.2 2.2 0 011.1.3l6.2 3.6a.2.2 0 01.2.2.2.2 0 01-.2.2l-6.1 3.6a2.3 2.3 0 01-1.2.3z"/>
        </g>
        <g>
          <path class="cls-4" d="M362 389a1.3 1.3 0 01-.7 1l-6.2 3.7a3.5 3.5 0 01-1 .3 3.3 3.3 0 01-2.3-.3l-6.2-3.6a1.3 1.3 0 01-.7-1.2 1.4 1.4 0 010-.3 1.4 1.4 0 010-.2l1-5.1h3.8l.8-.5 1.2-.7a3.3 3.3 0 013.3 0l2 1.2h3.8l1 5a1 1 0 01.2.4 1.6 1.6 0 010 .4z"/>
          <path class="cls-8" d="M353.9 385.5l.4 1.6-.1 7a3.3 3.3 0 01-2.4-.4l-6.2-3.6a1.3 1.3 0 01-.7-1.2 1.4 1.4 0 010-.3 1.4 1.4 0 01.1-.2l1-5.1h3.8l.8-.5zM362 389l-1.2-5.4-.8-.4h.9l1 5.1a1 1 0 01.1.4 1.6 1.6 0 010 .4z"/>
          <path class="cls-9" d="M353.5 387.5a2.2 2.2 0 01-1.1-.3l-6.2-3.6a.2.2 0 01-.2-.2.2.2 0 01.2-.2l6.2-3.6a2.3 2.3 0 012.2 0l6.2 3.6a.2.2 0 01.1.2.2.2 0 01-.1.2l-6.2 3.6a2.2 2.2 0 01-1.1.3z"/>
        </g>
        <g>
          <path class="cls-4" d="M351.3 395.3a1.3 1.3 0 01-.6 1l-6.2 3.5a3.5 3.5 0 01-1 .4 3.4 3.4 0 01-2.4-.4l-6.2-3.6a1.3 1.3 0 01-.7-1.1 1 1 0 010-.3 1.9 1.9 0 01.1-.2l1-5.2h3.8l.9-.4 1.2-.7a3.4 3.4 0 013.3 0l2 1.1h3.8l1 5.1a1.5 1.5 0 01.1.4 1.7 1.7 0 010 .4z"/>
          <path class="cls-8" d="M343.2 391.7l.5 1.6-.2 6.9a3.4 3.4 0 01-2.3-.4l-6.2-3.6a1.3 1.3 0 01-.7-1.1 1 1 0 010-.3 1.9 1.9 0 010-.3l1-5h3.8l.9-.5zM351.3 395.3l-1.2-5.6-.7-.3h.8l1 5a1.5 1.5 0 01.2.5 1.7 1.7 0 010 .4z"/>
          <path class="cls-9" d="M342.8 393.6a2.2 2.2 0 01-1.1-.3l-6.2-3.6a.2.2 0 01-.1-.2.3.3 0 01.1-.2l6.2-3.6a2.2 2.2 0 012.2 0l6.2 3.6a.3.3 0 01.2.2.2.2 0 01-.2.2l-6.2 3.6a2.2 2.2 0 01-1 .3z"/>
        </g>
        <g>
          <path class="cls-4" d="M340.7 401.4a1.3 1.3 0 01-.7 1l-6.2 3.6a3.5 3.5 0 01-1 .3 3.3 3.3 0 01-2.3-.3l-6.2-3.6a1.3 1.3 0 01-.7-1.1 1 1 0 010-.4.8.8 0 010-.2l1-5.1h3.8l.8-.5 1.2-.7a3.3 3.3 0 013.3 0l2 1.2h3.8l1 5a1.6 1.6 0 01.1.4 1.2 1.2 0 010 .4z"/>
          <path class="cls-8" d="M332.6 397.9l.4 1.5-.1 7a3.3 3.3 0 01-2.4-.4l-6.2-3.6a1.3 1.3 0 01-.7-1.2 1 1 0 010-.3.8.8 0 010-.2l1-5.1h3.9l.7-.5zM340.7 401.4l-1.2-5.5-.8-.3h.9l1 5a1.6 1.6 0 010 .4 1.2 1.2 0 010 .4z"/>
          <path class="cls-9" d="M332.1 399.8a2.2 2.2 0 01-1-.3l-6.3-3.6a.2.2 0 010-.2.2.2 0 010-.2l6.2-3.6a2.3 2.3 0 012.3 0l6.2 3.6a.2.2 0 010 .2.2.2 0 010 .2l-6.2 3.6a2.2 2.2 0 01-1.2.3z"/>
        </g>
        <g>
          <path class="cls-4" d="M330 407.6a1.3 1.3 0 01-.7 1l-6.1 3.5a3.5 3.5 0 01-1 .4 3.3 3.3 0 01-2.4-.4l-6.2-3.5a1.3 1.3 0 01-.7-1.2 1.5 1.5 0 010-.3 1 1 0 010-.2l1-5.2h3.9l.7-.4 1.2-.7a3.4 3.4 0 013.4 0l2 1.1h3.7l1 5.1a2 2 0 01.2.4 1.3 1.3 0 010 .4z"/>
          <path class="cls-8" d="M321.9 404l.4 1.6-.1 6.9a3.3 3.3 0 01-2.4-.4l-6.2-3.6a1.3 1.3 0 01-.6-1.1 1.5 1.5 0 010-.3 1 1 0 010-.2l1-5.2h3.8l.8-.4zM330 407.6l-1.2-5.6-.8-.3h.9l1 5a2 2 0 01.1.5 1.3 1.3 0 010 .4z"/>
          <path class="cls-9" d="M321.5 406a2.2 2.2 0 01-1.1-.4l-6.2-3.6a.2.2 0 01-.1-.2.2.2 0 010-.2l6.3-3.6a2.2 2.2 0 011-.3 2.2 2.2 0 011.2.3l6.2 3.6a.2.2 0 01.1.2.2.2 0 010 .2l-6.3 3.6a2.2 2.2 0 01-1.1.3z"/>
        </g>
        <g>
          <path class="cls-4" d="M319.4 413.7a1.3 1.3 0 01-.7 1l-6.2 3.6a3.5 3.5 0 01-1 .4 3.3 3.3 0 01-2.4-.4l-6.2-3.6a1.3 1.3 0 01-.6-1.1 1.6 1.6 0 010-.4.8.8 0 010-.2l1-5.1h3.8l.8-.5 1.2-.6a3.3 3.3 0 013.3 0l2 1h3.8l1 5.1a1.6 1.6 0 01.1.4 1.2 1.2 0 010 .4z"/>
          <path class="cls-8" d="M311.2 410.2l.5 1.5-.2 7a3.3 3.3 0 01-2.3-.4l-6.2-3.6a1.3 1.3 0 01-.7-1.2 1.6 1.6 0 010-.3.8.8 0 010-.2l1-5.1h3.8l.8-.5zM319.4 413.7l-1.2-5.5-.8-.3h.8l1 5a1.6 1.6 0 01.2.4 1.2 1.2 0 010 .4z"/>
        </g>
        <g>
          <path class="cls-4" d="M308.7 419.9a1.3 1.3 0 01-.7 1l-6.2 3.5a3.3 3.3 0 01-3.3 0l-6.2-3.5a1.3 1.3 0 01-.7-1.2 1.5 1.5 0 010-.3 1 1 0 01.1-.2l1-5.2h3.8l.8-.4 1.2-.7a3.3 3.3 0 013.3 0l2 1.1h3.7l1 5.1a2 2 0 01.2.4 1.2 1.2 0 010 .4z"/>
          <path class="cls-8" d="M300.6 416.3l.4 1.6-.1 6.9a3.3 3.3 0 01-2.4-.4l-6.2-3.5a1.3 1.3 0 01-.7-1.2 1.5 1.5 0 010-.3 1 1 0 01.1-.2l1-5.2h3.8l.8-.4zM308.7 419.9l-1.2-5.5-.8-.4h.9l1 5a2 2 0 01.1.5 1.2 1.2 0 010 .4z"/>
          <path class="cls-9" d="M300.2 418.2a2.3 2.3 0 01-1.1-.3l-6.3-3.5a.2.2 0 010-.3.2.2 0 010-.2l6.3-3.5a2.2 2.2 0 011-.3 2.2 2.2 0 011.2.3l6.2 3.5a.2.2 0 01.1.2.2.2 0 01-.1.3l-6.2 3.5a2.3 2.3 0 01-1.1.3z"/>
        </g>
        <g>
          <path class="cls-4" d="M298 426a1.3 1.3 0 01-.7 1l-6.2 3.6a3.3 3.3 0 01-1 .3 3.3 3.3 0 01-2.3-.3l-6.2-3.6a1.3 1.3 0 01-.6-1.1 1.6 1.6 0 010-.4 1 1 0 010-.2l1-5.1h3.8l.8-.5 1.2-.7a3.3 3.3 0 013.3 0l2 1.2h3.8l1 5a1.6 1.6 0 010 .4 1.6 1.6 0 01.1.4z"/>
          <path class="cls-8" d="M290 422.5l.4 1.5-.2 7a3.3 3.3 0 01-2.3-.4l-6.2-3.6a1.3 1.3 0 01-.7-1.1 1.6 1.6 0 010-.4 1 1 0 010-.2l1-5.1h3.8l.8-.5zM298 426l-1.2-5.5-.8-.3h.9l1 5a1.6 1.6 0 01.1.4 1.6 1.6 0 010 .4z"/>
          <path class="cls-9" d="M289.5 424.4a2.2 2.2 0 01-1.1-.3l-6.2-3.6a.2.2 0 01-.1-.2.2.2 0 010-.2l6.3-3.6a2.3 2.3 0 011.1-.3 2.2 2.2 0 011.1.3l6.2 3.6a.2.2 0 01.1.2.2.2 0 010 .2l-6.3 3.6a2.2 2.2 0 01-1 .3z"/>
        </g>
        <g>
          <path class="cls-4" d="M287.4 432.2a1.3 1.3 0 01-.7 1l-6.2 3.6a3.3 3.3 0 01-3.3 0l-6.2-3.6a1.3 1.3 0 01-.7-1.2 1.5 1.5 0 010-.3 1 1 0 010-.2l1-5.2h3.9l.7-.4 1.2-.7a3.3 3.3 0 013.4 0l2 1.1h3.7l1 5.1a2 2 0 01.2.4 1.6 1.6 0 010 .4z"/>
          <path class="cls-8" d="M279.3 428.6l.4 1.6-.1 7a3.3 3.3 0 01-2.4-.5l-6.2-3.5a1.3 1.3 0 01-.7-1.2 1.5 1.5 0 010-.3 1 1 0 010-.2l1-5.2h3.9l.7-.4zM287.4 432.2l-1.2-5.5-.8-.4h.9l1 5a2 2 0 010 .5 1.6 1.6 0 010 .4z"/>
        </g>
        <g>
          <path class="cls-10" d="M276.7 438.2a1.3 1.3 0 01-.6 1l-16.9 9.8a3.3 3.3 0 01-3.3 0l-6.2-3.6a1.3 1.3 0 01-.7-1.1 1.2 1.2 0 010-.5l1-5.1 6.5-1.6 3.8-2.2 6.2-3.6a3.3 3.3 0 013.3 0l3.2 1.8 2-.5.6-.1 1 5.1a.9.9 0 01.1.2 1.5 1.5 0 010 .4z"/>
          <path class="cls-11" d="M258 441l.4 1.5-.2 7a3.3 3.3 0 01-2.3-.4l-6.2-3.6a1.3 1.3 0 01-.7-1.2 1.6 1.6 0 010-.3 1 1 0 010-.2l1-5.2h3.9l.7-.4z"/>
          <path class="cls-8" d="M276.7 438.2l-1.1-5.4-.5-.1-.3-.2h.8l1 5.1a.9.9 0 01.1.3 1.5 1.5 0 010 .3z"/>
          <path class="cls-13" d="M257.5 442.9a2.2 2.2 0 01-1-.3l-6.3-3.6a.2.2 0 01-.1-.2.2.2 0 01.1-.2l10.7-6.2 6.1-3.6a2.3 2.3 0 011.1-.3 2.2 2.2 0 011.2.3l6.2 3.6a.2.2 0 010 .4l-16.9 9.8a2.1 2.1 0 01-1 .3z"/>
        </g>
        <path class="cls-9" d="M278.9 430.5a2.1 2.1 0 01-1.2-.3l-6.2-3.5a.2.2 0 010-.2.2.2 0 010-.3l6.2-3.5a2.2 2.2 0 012.3 0l6.2 3.5a.2.2 0 010 .3.2.2 0 010 .2l-6.2 3.6a2.2 2.2 0 01-1.1.2zM310.8 412a2.3 2.3 0 01-1-.2l-6.3-3.6a.2.2 0 01-.1-.2.2.2 0 01.1-.2l6.2-3.6a2.3 2.3 0 011.1-.3 2.3 2.3 0 011.1.3l6.3 3.6a.2.2 0 010 .2.2.2 0 010 .2l-6.3 3.6a2.3 2.3 0 01-1 .3z"/>
      </g>
      <g>
        <path class="cls-10" d="M415.6 370.2l-1-5.2-2.7.6-3-1.8c-1-.6-2.4-.6-3.6-1.3l-10.1 5.9-6.2 2.8-1 5.3a1.3 1.3 0 00.6 1.5l6.2 3.5a3.3 3.3 0 003.3 0l10.6-6 .1-.1 6.2-3.6a1.3 1.3 0 00.7-1.2 1.5 1.5 0 00-.1-.4z"/>
        <path class="cls-11" d="M396.9 373.4l.4 1.6-.1 7a3.3 3.3 0 01-2.4-.4l-6.2-3.6a1.3 1.3 0 01-.7-1.2 1.4 1.4 0 010-.3.8.8 0 010-.2l1-5.1h3.9l.7-.5z"/>
      </g>
      <g>
        <path class="cls-4" d="M482.5 332.2a1.3 1.3 0 01-.6 1l-6.2 3.6a3 3 0 01-1 .3 3.3 3.3 0 01-2.4-.3l-6.2-3.6a1.3 1.3 0 01-.7-1.2 1.6 1.6 0 010-.3.8.8 0 01.1-.2l1-5.2h3.8l.7-.4 1.2-.7a3.3 3.3 0 013.4 0l2 1.2h3.7l1 5a1 1 0 01.2.4 1.6 1.6 0 010 .4z"/>
        <path class="cls-8" d="M474.4 328.6l.4 1.6v7a3.3 3.3 0 01-2.5-.5l-6.2-3.5a1.3 1.3 0 01-.6-1.2 1.6 1.6 0 010-.3.8.8 0 010-.2l1-5.2h3.8l.8-.4zM482.5 332.2l-1.2-5.5-.8-.4h1l1 5.1a1 1 0 010 .4 1.6 1.6 0 010 .4z"/>
        <path class="cls-9" d="M474 330.5a2.3 2.3 0 01-1.1-.2l-6.2-3.6a.2.2 0 01-.1-.2.2.2 0 010-.3l6.3-3.5a2.3 2.3 0 011.1-.3 2.3 2.3 0 011.1.3l6.2 3.5a.2.2 0 01.1.3.2.2 0 010 .2l-6.3 3.6a2.2 2.2 0 01-1.1.2z"/>
        <path class="cls-4" d="M471.9 338.3a1.3 1.3 0 01-.7 1L465 343a3.7 3.7 0 01-1 .4 3.3 3.3 0 01-2.3-.4l-6.2-3.6a1.3 1.3 0 01-.7-1.1 1.5 1.5 0 010-.3 1 1 0 010-.3l1-5.1h3.9l.7-.5 1.2-.6a3.3 3.3 0 013.4 0l2 1.1h3.7l1 5a1.2 1.2 0 01.2.4 1.6 1.6 0 010 .4z"/>
        <path class="cls-8" d="M463.8 334.8l.4 1.5-.1 7a3.3 3.3 0 01-2.4-.4l-6.2-3.6a1.3 1.3 0 01-.7-1.1 1.5 1.5 0 010-.3 1 1 0 010-.3l1-5.1h3.9l.7-.5zM471.9 338.3l-1.2-5.5-.8-.3h.9l1 5a1.2 1.2 0 010 .4 1.6 1.6 0 010 .4z"/>
        <path class="cls-9" d="M463.3 336.7a2.2 2.2 0 01-1-.3l-6.3-3.6a.2.2 0 01-.1-.2.2.2 0 01.1-.2l6.2-3.6a2.2 2.2 0 011.1-.3 2.1 2.1 0 011.1.3l6.3 3.6a.2.2 0 010 .2.2.2 0 010 .2l-6.3 3.6a2.1 2.1 0 01-1 .3z"/>
        <path class="cls-4" d="M461.2 344.5a1.3 1.3 0 01-.7 1l-6.2 3.6a3 3 0 01-1 .3 3.3 3.3 0 01-2.3-.3l-6.2-3.6a1.3 1.3 0 01-.7-1.2 1.6 1.6 0 010-.3 2 2 0 01.1-.2l1-5.1h3.8l.8-.5 1.2-.7a3.3 3.3 0 013.3 0l2 1.2h3.8l1 5a1 1 0 01.1.4 1.6 1.6 0 010 .4z"/>
        <path class="cls-8" d="M453 341l.5 1.5-.1 7a3.3 3.3 0 01-2.4-.4l-6.2-3.6a1.3 1.3 0 01-.7-1.2 1.6 1.6 0 010-.3 2 2 0 01.1-.2l1-5.2h3.8l.8-.4zM461.2 344.5L460 339l-.8-.3h.9l1 5a1 1 0 01.1.4 1.6 1.6 0 010 .4z"/>
        <path class="cls-9" d="M452.7 342.9a2.3 2.3 0 01-1.1-.3l-6.2-3.6a.2.2 0 01-.2-.2.2.2 0 01.2-.2l6.2-3.6a2.3 2.3 0 011-.3 2.3 2.3 0 011.2.3l6.2 3.6a.2.2 0 01.1.2.2.2 0 01-.1.2l-6.2 3.6a2.3 2.3 0 01-1.1.3z"/>
        <path class="cls-4" d="M394.3 383.1a1.3 1.3 0 01-.6 1l-6.2 3.6a3.5 3.5 0 01-1 .4 3.3 3.3 0 01-2.4-.4l-6.2-3.6a1.3 1.3 0 01-.7-1.1 1.4 1.4 0 010-.3.8.8 0 010-.2l1-5.2h3.9l.7-.4 1.2-.7a3.3 3.3 0 013.4 0l2 1.1h3.7l1 5a1.6 1.6 0 01.2.5 1.2 1.2 0 010 .3z"/>
        <path class="cls-8" d="M386.2 379.6l.4 1.5-.1 7a3.3 3.3 0 01-2.4-.4l-6.2-3.6a1.3 1.3 0 01-.6-1.1 1.4 1.4 0 010-.3.8.8 0 010-.3l1-5.1h3.8l.8-.5zM394.3 383.1l-1.2-5.5-.8-.3h.9l1 5a1.6 1.6 0 01.1.4 1.2 1.2 0 010 .4z"/>
        <path class="cls-9" d="M385.8 381.5a2.3 2.3 0 01-1.1-.3l-6.2-3.6a.2.2 0 01-.1-.2.2.2 0 010-.2l6.3-3.6a2.3 2.3 0 011-.3 2.3 2.3 0 011.2.3l6.2 3.6a.2.2 0 01.1.2.2.2 0 010 .2l-6.3 3.6a2.3 2.3 0 01-1.1.3z"/>
        <g>
          <path class="cls-4" d="M383.6 389.3a1.3 1.3 0 01-.6 1l-6.2 3.6a3.7 3.7 0 01-1 .3 3.3 3.3 0 01-2.4-.3l-6.2-3.6a1.3 1.3 0 01-.6-1.2 1.5 1.5 0 010-.3 1 1 0 010-.2l1-5.1h3.8l.8-.5 1.2-.7a3.3 3.3 0 013.3 0l2 1.2h3.8l1 5a2 2 0 010 .4 1.6 1.6 0 01.1.4z"/>
          <path class="cls-8" d="M375.5 385.7l.5 1.6-.2 7a3.3 3.3 0 01-2.3-.4l-6.2-3.6a1.3 1.3 0 01-.7-1.2 1.5 1.5 0 010-.3 1 1 0 010-.2l1-5.2h3.8l.8-.4zM383.6 389.3l-1.2-5.5-.7-.4h.8l1 5.1a2 2 0 01.2.4 1.6 1.6 0 010 .4z"/>
          <path class="cls-9" d="M375.1 387.6a2.2 2.2 0 01-1-.3l-6.3-3.5a.2.2 0 010-.5l6.2-3.5a2.2 2.2 0 011.1-.3 2.2 2.2 0 011.1.3l6.3 3.5a.2.2 0 010 .5l-6.3 3.5a2.2 2.2 0 01-1 .3z"/>
        </g>
        <g>
          <path class="cls-4" d="M373 395.4a1.3 1.3 0 01-.7 1l-6.2 3.6a3 3 0 01-1 .4 3.3 3.3 0 01-2.3-.4l-6.2-3.6a1.3 1.3 0 01-.7-1.1 1.6 1.6 0 010-.3 1 1 0 01.1-.3l1-5.1h3.8l.8-.4 1.2-.7a3.3 3.3 0 013.3 0l2 1h3.7l1 5.2a1.7 1.7 0 01.2.3 1.6 1.6 0 010 .4z"/>
          <path class="cls-8" d="M364.9 391.9l.4 1.6-.1 6.9a3.3 3.3 0 01-2.4-.4l-6.2-3.6a1.3 1.3 0 01-.7-1.1 1.6 1.6 0 010-.3 1 1 0 01.1-.3l1-5.1h3.8l.8-.4zM373 395.4l-1.2-5.5-.8-.3h.9l1 5a1.7 1.7 0 01.1.4 1.6 1.6 0 010 .4z"/>
          <path class="cls-9" d="M364.5 393.8a2.3 2.3 0 01-1.1-.3l-6.2-3.6a.2.2 0 01-.2-.2.2.2 0 01.2-.2l6.2-3.6a2.3 2.3 0 011-.3 2.3 2.3 0 011.2.3l6.2 3.6a.2.2 0 01.1.2.2.2 0 01-.1.2l-6.2 3.6a2.3 2.3 0 01-1.1.3z"/>
        </g>
        <g>
          <path class="cls-4" d="M362.3 401.6a1.3 1.3 0 01-.6 1l-6.2 3.6a3.3 3.3 0 01-1 .3 3.3 3.3 0 01-2.4-.3l-6.2-3.6a1.3 1.3 0 01-.7-1.2 1.5 1.5 0 010-.3 2 2 0 01.1-.2l1-5.1h3.8l.8-.5 1.2-.7a3.3 3.3 0 013.3 0l2 1.2h3.7l1 5a1.8 1.8 0 01.2.4 1.6 1.6 0 010 .4z"/>
          <path class="cls-8" d="M354.2 398l.5 1.6-.2 6.9a3.3 3.3 0 01-2.3-.4l-6.2-3.6a1.3 1.3 0 01-.7-1.1 1.5 1.5 0 010-.3 2 2 0 010-.2l1-5.2h3.8l.8-.4zM362.3 401.6l-1.2-5.5-.7-.4h.8l1 5.1a1.8 1.8 0 01.2.4 1.6 1.6 0 010 .4z"/>
          <path class="cls-9" d="M353.8 400a2.1 2.1 0 01-1.1-.3l-6.2-3.6a.2.2 0 010-.4l6.2-3.6a2.1 2.1 0 011.1-.3 2.2 2.2 0 011.1.3l6.2 3.6a.2.2 0 010 .4l-6.2 3.6a2.2 2.2 0 01-1 .3z"/>
        </g>
        <g>
          <path class="cls-4" d="M351.7 407.8a1.3 1.3 0 01-.7 1l-6.2 3.5a3.3 3.3 0 01-3.3 0l-6.2-3.6a1.3 1.3 0 01-.7-1.1 1.5 1.5 0 010-.3 1 1 0 01.1-.2l1-5.2h3.8l.7-.4 1.2-.7a3.3 3.3 0 013.4 0l2 1.1h3.7l1 5a1.5 1.5 0 01.2.5 1.3 1.3 0 010 .4z"/>
          <path class="cls-8" d="M343.6 404.2l.4 1.6-.1 6.9a3.3 3.3 0 01-2.4-.4l-6.2-3.6a1.3 1.3 0 01-.7-1.1 1.5 1.5 0 010-.3 1 1 0 01.1-.3l1-5.1h3.8l.7-.4zM351.7 407.8l-1.2-5.6-.8-.3h.9l1 5a1.5 1.5 0 010 .5 1.3 1.3 0 010 .4z"/>
          <path class="cls-9" d="M343.1 406.1a2.3 2.3 0 01-1-.3l-6.3-3.6a.2.2 0 010-.2.2.2 0 010-.2l6.2-3.6a2.2 2.2 0 012.3 0l6.2 3.6a.2.2 0 010 .2.2.2 0 010 .2l-6.2 3.6a2.3 2.3 0 01-1.2.3z"/>
        </g>
        <g>
          <path class="cls-4" d="M341 413.9a1.3 1.3 0 01-.7 1l-6.2 3.6a3.3 3.3 0 01-1 .3 3.3 3.3 0 01-2.3-.3l-6.2-3.6a1.3 1.3 0 01-.7-1.1 1.6 1.6 0 010-.4.8.8 0 01.1-.2l1-5.1h3.8l.8-.5 1.2-.7a3.3 3.3 0 013.3 0l2 1.2h3.8l1 5a1.3 1.3 0 010 .4 1.2 1.2 0 01.1.4z"/>
          <path class="cls-8" d="M332.9 410.4l.4 1.5-.1 7a3.3 3.3 0 01-2.4-.4l-6.2-3.6a1.3 1.3 0 01-.6-1.2 1.6 1.6 0 010-.3.8.8 0 010-.2l1-5.1h3.8l.8-.5zM341 413.9l-1.2-5.5-.8-.3h.9l1 5a1.3 1.3 0 01.1.4 1.2 1.2 0 010 .4z"/>
          <path class="cls-9" d="M332.5 412.3a2.1 2.1 0 01-1.1-.3l-6.2-3.6a.2.2 0 01-.1-.2.2.2 0 010-.2l6.3-3.6a2.2 2.2 0 012.2 0l6.2 3.6a.2.2 0 01.1.2.2.2 0 010 .2l-6.3 3.6a2.1 2.1 0 01-1.1.3z"/>
        </g>
        <g>
          <path class="cls-4" d="M330.4 420a1.3 1.3 0 01-.7 1l-6.2 3.6a3.7 3.7 0 01-1 .4 3.3 3.3 0 01-2.3-.4L314 421a1.3 1.3 0 01-.7-1.2 1.5 1.5 0 010-.3 1 1 0 01.1-.2l1-5.1h3.8l.8-.5 1.2-.7a3.3 3.3 0 013.3 0l2 1.2h3.8l1 5a1.1 1.1 0 010 .4 1.6 1.6 0 010 .4z"/>
          <path class="cls-8" d="M322.2 416.5l.5 1.6-.2 6.9a3.3 3.3 0 01-2.3-.4L314 421a1.3 1.3 0 01-.7-1.2 1.5 1.5 0 010-.3 1 1 0 01.1-.2l1-5.1h3.8l.8-.5zM330.4 420l-1.2-5.5-.8-.3h.8l1 5a1.1 1.1 0 01.2.5 1.6 1.6 0 010 .4z"/>
          <path class="cls-9" d="M321.8 418.4a2.3 2.3 0 01-1-.3l-6.3-3.6a.2.2 0 01-.1-.2.2.2 0 01.1-.2l6.2-3.6a2.3 2.3 0 011.1-.3 2.3 2.3 0 011.1.3l6.3 3.6a.2.2 0 010 .2.2.2 0 010 .2l-6.3 3.6a2.3 2.3 0 01-1 .3z"/>
        </g>
        <g>
          <path class="cls-4" d="M319.7 426.2a1.3 1.3 0 01-.7 1l-6.2 3.6a3 3 0 01-1 .4 3.3 3.3 0 01-2.3-.4l-6.2-3.6a1.3 1.3 0 01-.7-1.1 1.6 1.6 0 010-.4 1 1 0 01.1-.2l1-5.1h3.8l.8-.5 1.2-.7a3.3 3.3 0 013.3 0l2 1.2h3.8l1 5a1 1 0 010 .4 1.6 1.6 0 010 .4z"/>
          <path class="cls-8" d="M311.6 422.7l.4 1.5-.1 7a3.3 3.3 0 01-2.4-.4l-6.2-3.6a1.3 1.3 0 01-.7-1.2 1.6 1.6 0 010-.3 1 1 0 01.1-.2l1-5.1h3.8l.8-.5zM319.7 426.2l-1.2-5.5-.8-.3h.9l1 5a1 1 0 01.1.4 1.6 1.6 0 010 .4z"/>
          <path class="cls-9" d="M311.2 424.6a2.2 2.2 0 01-1.1-.3l-6.3-3.6a.2.2 0 010-.2.2.2 0 010-.2l6.3-3.6a2.2 2.2 0 011-.3 2.2 2.2 0 011.2.3l6.2 3.6a.2.2 0 01.1.2.2.2 0 01-.1.2l-6.2 3.6a2.2 2.2 0 01-1.1.3z"/>
        </g>
        <g>
          <path class="cls-4" d="M309 432.4a1.3 1.3 0 01-.7 1l-6.2 3.6a3.3 3.3 0 01-1 .3 3.3 3.3 0 01-2.3-.4l-6.2-3.5a1.3 1.3 0 01-.7-1.2 1.5 1.5 0 010-.3 1.4 1.4 0 01.1-.2l1-5.1h3.8l.8-.5 1.2-.7a3.3 3.3 0 013.3 0l2 1.2h3.8l1 5a1 1 0 01.1.4 1.6 1.6 0 010 .4z"/>
          <path class="cls-8" d="M301 428.8l.4 1.6-.2 6.9a3.3 3.3 0 01-2.3-.4l-6.3-3.6a1.3 1.3 0 01-.6-1.1 1.5 1.5 0 010-.3 1.4 1.4 0 010-.2l1-5.2h3.8l.8-.4zM309 432.4l-1.2-5.5-.8-.4h.9l1 5a1 1 0 01.1.5 1.6 1.6 0 010 .4z"/>
          <path class="cls-9" d="M300.5 430.7a2.3 2.3 0 01-1.1-.3l-6.2-3.5a.2.2 0 01-.1-.3.2.2 0 010-.2l6.3-3.5a2.3 2.3 0 011.1-.3 2.3 2.3 0 011.1.2l6.2 3.6a.2.2 0 01.1.2.2.2 0 010 .3l-6.3 3.5a2.3 2.3 0 01-1 .3z"/>
        </g>
        <g>
          <path class="cls-4" d="M298.4 438.5a1.3 1.3 0 01-.7 1l-6.2 3.6a3.3 3.3 0 01-3.3 0l-6.2-3.6a1.3 1.3 0 01-.7-1.2 1.5 1.5 0 010-.3 1.9 1.9 0 01.1-.2l1-5.1h3.8l.7-.5 1.2-.7a3.3 3.3 0 013.4 0l2 1.2h3.7l1 5a1.5 1.5 0 01.2.4 1.7 1.7 0 010 .4z"/>
          <path class="cls-8" d="M290.3 435l.4 1.6-.1 6.9a3.3 3.3 0 01-2.4-.4l-6.2-3.6a1.3 1.3 0 01-.7-1.2 1.5 1.5 0 010-.3 1.9 1.9 0 01.1-.2l1-5.1h3.8l.7-.5zM298.4 438.5l-1.2-5.5-.8-.3h.9l1 5a1.5 1.5 0 010 .4 1.7 1.7 0 010 .4z"/>
          <path class="cls-9" d="M289.9 436.9a2.2 2.2 0 01-1.2-.3l-6.2-3.6a.2.2 0 010-.2.2.2 0 010-.2l6.2-3.6a2.2 2.2 0 011.2-.3 2.2 2.2 0 011 .3l6.3 3.6a.3.3 0 010 .2.3.3 0 010 .2l-6.2 3.6a2.2 2.2 0 01-1.1.3z"/>
        </g>
        <g>
          <path class="cls-10" d="M287.6 444l-1-5.1-2.6.6-3.1-1.8a3.3 3.3 0 00-3.3 0l-6.2 3.6-3.8 2.1-6.5 1.6-1 5.2a1.3 1.3 0 00.6 1.6l6.2 3.6a3.4 3.4 0 003.3 0l16.9-9.7a1.3 1.3 0 00.6-1.6z"/>
          <path class="cls-11" d="M269 447.3l.4 1.5-.2 7a3.3 3.3 0 01-2.3-.4l-6.2-3.6a1.3 1.3 0 01-.7-1.1 1 1 0 010-.3 1 1 0 010-.3l1-5.1h3.8l.8-.5z"/>
          <path class="cls-13" d="M268.5 449.2a2.2 2.2 0 01-1-.3l-6.3-3.6a.3.3 0 01-.1-.2.2.2 0 01.1-.2l10.7-6.2 6.2-3.5a2.2 2.2 0 012.2 0l6.2 3.6a.2.2 0 01.1.2.2.2 0 01-.1.2l-16.9 9.7a2.2 2.2 0 01-1 .3z"/>
        </g>
      </g>
      <g>
        <path class="cls-11" d="M487.2 332l1.4-5 2.3.5 3-1.8a3.3 3.3 0 013.4 0l10.4 6 6.4 1.6 1 5.2a1.3 1.3 0 01-.6 1.5l-6.2 3.6a3.3 3.3 0 01-3.3 0l-10.5-6h-.2l-6.5-3.9a1.3 1.3 0 01-.7-1.1 1.4 1.4 0 01.1-.5z"/>
        <path class="cls-10" d="M506.2 335.5l-.4 1.6.1 6.9a3.3 3.3 0 002.4-.4l6.2-3.6a1.3 1.3 0 00.7-1.1 1.5 1.5 0 000-.3 1 1 0 00-.1-.2l-1-5.2h-3.8l-.8-.4z"/>
        <path class="cls-13" d="M506.6 337.4a2.1 2.1 0 01-1-.3l-17.3-9.9a.2.2 0 010-.2.2.2 0 010-.2l6.2-3.6a2.2 2.2 0 012.3 0l17.2 10a.2.2 0 010 .4l-6.2 3.5a2.2 2.2 0 01-1.2.3z"/>
        <path class="cls-4" d="M493.5 338.9a1.3 1.3 0 01-.6 1l-6.2 3.6a3.9 3.9 0 01-1 .3 3.4 3.4 0 01-2.4-.4L477 340a1.3 1.3 0 01-.7-1.2 1 1 0 010-.3 1 1 0 010-.2l1-5.2h3.9l.7-.4 1.2-.7a3.4 3.4 0 013.4 0l2 1.1h3.7l1 5.1a2 2 0 01.2.4 1.6 1.6 0 010 .4z"/>
        <path class="cls-8" d="M485.4 335.3l.4 1.6-.1 7a3.4 3.4 0 01-2.4-.5l-6.2-3.5a1.3 1.3 0 01-.6-1.2 1 1 0 010-.3 1 1 0 010-.2l1-5.2h3.8l.8-.4zM493.5 338.9l-1.2-5.5-.8-.4h1l1 5a2 2 0 010 .5 1.6 1.6 0 010 .4z"/>
        <path class="cls-9" d="M485 337.2a2.2 2.2 0 01-1.1-.3l-6.2-3.5a.3.3 0 01-.1-.2.2.2 0 010-.3l6.3-3.5a2.2 2.2 0 012.2 0l6.2 3.5a.2.2 0 01.1.3.2.2 0 010 .2l-6.3 3.5a2.2 2.2 0 01-1.1.3z"/>
        <path class="cls-4" d="M482.9 345a1.3 1.3 0 01-.7 1l-6.2 3.6a3.3 3.3 0 01-3.3 0l-6.2-3.6a1.3 1.3 0 01-.7-1.1 1.1 1.1 0 010-.4 1 1 0 010-.2l1-5.1h3.9l.7-.5 1.2-.7a3.4 3.4 0 013.3 0l2 1.2h3.8l1 5a1.6 1.6 0 01.2.4 1.2 1.2 0 010 .4z"/>
        <path class="cls-8" d="M474.7 341.5l.5 1.5-.2 7a3.3 3.3 0 01-2.4-.4l-6.2-3.6a1.3 1.3 0 01-.6-1.1 1.1 1.1 0 010-.3 1 1 0 010-.2l1-5.2h3.8l.8-.4zM482.9 345l-1.2-5.5-.8-.3h.9l1 5a1.6 1.6 0 010 .4 1.2 1.2 0 010 .4z"/>
        <path class="cls-9" d="M474.3 343.4a2.3 2.3 0 01-1-.3l-6.3-3.6a.3.3 0 01-.1-.2.3.3 0 01.1-.2l6.2-3.6a2.3 2.3 0 011.1-.3 2.2 2.2 0 011.1.3l6.2 3.6a.2.2 0 01.2.2.2.2 0 01-.2.2l-6.2 3.6a2.3 2.3 0 01-1 .3z"/>
        <path class="cls-4" d="M472.2 351.2a1.3 1.3 0 01-.7 1l-6.2 3.6a3.5 3.5 0 01-1 .3 3.4 3.4 0 01-2.3-.3l-6.2-3.6a1.3 1.3 0 01-.7-1.2 1 1 0 010-.3 1 1 0 010-.2l1-5.1h3.9l.8-.5 1.2-.7a3.4 3.4 0 013.3 0l2 1.2h3.8l1 5a2 2 0 01.1.4 1.3 1.3 0 010 .4z"/>
        <path class="cls-8" d="M464 347.6l.5 1.6-.1 7a3.4 3.4 0 01-2.4-.4l-6.2-3.6a1.3 1.3 0 01-.7-1.2 1 1 0 010-.3 1 1 0 01.1-.2l1-5.2h3.8l.8-.4zM472.2 351.2l-1.2-5.5-.8-.4h.9l1 5.1a2 2 0 01.1.4 1.3 1.3 0 010 .4z"/>
        <path class="cls-9" d="M463.7 349.6a2.2 2.2 0 01-1.1-.4l-6.2-3.5a.2.2 0 01-.2-.2.2.2 0 01.2-.2l6.2-3.6a2.3 2.3 0 011-.3 2.2 2.2 0 011.2.3l6.2 3.6a.2.2 0 01.1.2.2.2 0 01-.1.2l-6.2 3.6a2.2 2.2 0 01-1.1.3z"/>
        <g>
          <path class="cls-4" d="M449.5 364.3a1.3 1.3 0 01-.6 1l-6.2 3.5a3.2 3.2 0 01-1 .4 3.3 3.3 0 01-2.4-.4l-6.2-3.5a1.3 1.3 0 01-.7-1.2 1.1 1.1 0 010-.3 2 2 0 010-.2l1-5.2h3.9l.7-.4 1.2-.7a3.3 3.3 0 013.4 0l2 1.1h3.7l1 5.1a1.3 1.3 0 01.2.4 1.6 1.6 0 010 .4z"/>
          <path class="cls-8" d="M441.4 360.7l.4 1.6v6.9a3.3 3.3 0 01-2.5-.4l-6.2-3.6a1.3 1.3 0 01-.6-1.1 1.1 1.1 0 010-.3 2 2 0 010-.2l1-5.2h3.8l.8-.4zM449.5 364.3l-1.2-5.5-.8-.4h1l1 5a1.3 1.3 0 010 .5 1.6 1.6 0 010 .4z"/>
          <path class="cls-9" d="M441 362.6a2.3 2.3 0 01-1.1-.3l-6.2-3.6a.2.2 0 01-.1-.2.2.2 0 010-.2l6.3-3.5a2.2 2.2 0 012.2 0l6.2 3.5a.3.3 0 01.1.2.2.2 0 010 .3l-6.3 3.5a2.3 2.3 0 01-1.1.3z"/>
        </g>
        <g>
          <path class="cls-10" d="M426.6 377l-1.1-5.3-2.4.7-3.3-1.9a3.4 3.4 0 00-3.4 0l-6.1 3.6-10.7 6.1-1 .6-9.2 3.2-1 5.2a1.3 1.3 0 00.6 1.6l6.2 3.6a3.3 3.3 0 003.3 0l27.5-15.9a1.3 1.3 0 00.7-1.2 1.3 1.3 0 00-.1-.3z"/>
          <path class="cls-11" d="M397.2 386.3l.4 1.5-.1 7a3.2 3.2 0 01-2.4-.4l-6.2-3.6a1.3 1.3 0 01-.6-1.1 1.6 1.6 0 010-.4.8.8 0 010-.2l1-5.1h3.8l.8-.5z"/>
          <path class="cls-13" d="M396.8 388.2a2.3 2.3 0 01-1.1-.3l-6.2-3.6a.2.2 0 01-.1-.2.2.2 0 010-.2L417 368a2.1 2.1 0 011-.3 2.3 2.3 0 011 .2l.3.2 6.1 3.5a.2.2 0 01.1.2.2.2 0 01-.1.2l-27.5 15.9a2.3 2.3 0 01-1.1.3z"/>
        </g>
        <g>
          <path class="cls-4" d="M394.6 396a1.3 1.3 0 01-.6 1l-6.2 3.6a3.3 3.3 0 01-1 .3 3.3 3.3 0 01-2.4-.3l-6.1-3.6a1.3 1.3 0 01-.7-1.1 1.6 1.6 0 010-.4 1 1 0 010-.2l1-5.1h3.8l.8-.5 1.2-.7a3.3 3.3 0 013.3 0l2 1.2h3.8l1 5a1 1 0 01.1.4 1.6 1.6 0 010 .4z"/>
          <path class="cls-8" d="M386.5 392.4l.5 1.6-.1 7a3.3 3.3 0 01-2.4-.4l-6.2-3.6a1.3 1.3 0 01-.7-1.1 1.6 1.6 0 010-.4 1 1 0 010-.2l1-5.1h3.8l.8-.5zM394.6 396l-1.2-5.5-.7-.3h.8l1 5a1 1 0 01.2.4 1.6 1.6 0 010 .4z"/>
          <path class="cls-9" d="M386.1 394.4a2.3 2.3 0 01-1-.3l-6.3-3.6a.2.2 0 01-.1-.2.2.2 0 01.1-.3l6.2-3.5a2.3 2.3 0 011.1-.3 2.3 2.3 0 011.1.3l6.3 3.5a.2.2 0 010 .3.2.2 0 010 .2l-6.3 3.6a2.3 2.3 0 01-1 .3z"/>
        </g>
        <g>
          <path class="cls-4" d="M384 402.1a1.3 1.3 0 01-.7 1l-6.2 3.6a3.3 3.3 0 01-3.3 0l-6.2-3.6a1.3 1.3 0 01-.7-1.1 1.5 1.5 0 010-.3 1 1 0 01.1-.3l1-5h3.8l.8-.5 1.2-.7a3.3 3.3 0 013.3 0l2 1.1h3.8l1 5a1.2 1.2 0 01.1.5 1.6 1.6 0 010 .3z"/>
          <path class="cls-8" d="M375.9 398.6l.4 1.5-.1 7a3.3 3.3 0 01-2.4-.4l-6.2-3.6a1.3 1.3 0 01-.7-1.1 1.5 1.5 0 010-.3 1 1 0 01.1-.3l1-5.1h3.8l.8-.5zM384 402.1l-1.2-5.5-.8-.3h.9l1 5a1.2 1.2 0 01.1.4 1.6 1.6 0 010 .4z"/>
          <path class="cls-9" d="M375.5 400.5a2.2 2.2 0 01-1.1-.3l-6.2-3.6a.2.2 0 01-.2-.2.2.2 0 01.2-.2l6.2-3.6a2.2 2.2 0 011-.3 2.2 2.2 0 011.2.3l6.2 3.6a.2.2 0 01.1.2.2.2 0 01-.1.2l-6.2 3.6a2.2 2.2 0 01-1.1.3z"/>
        </g>
        <g>
          <path class="cls-4" d="M373.3 408.3a1.3 1.3 0 01-.6 1l-6.2 3.6a3.3 3.3 0 01-1 .3 3.3 3.3 0 01-2.4-.3l-6.2-3.6a1.3 1.3 0 01-.7-1.2 1.6 1.6 0 010-.3 1 1 0 01.1-.2l1-5.1h3.8l.9-.5 1.2-.7a3.3 3.3 0 013.3 0l2 1.1h3.8l1 5.1a1 1 0 01.1.4 1.6 1.6 0 010 .4z"/>
          <path class="cls-8" d="M365.2 404.7l.5 1.6-.2 7a3.3 3.3 0 01-2.3-.4l-6.3-3.6a1.3 1.3 0 01-.6-1.2 1.6 1.6 0 010-.3 1 1 0 010-.2l1-5.1h3.8l.9-.5zM373.3 408.3l-1.2-5.5-.8-.3h1l1 5a1 1 0 010 .4 1.6 1.6 0 010 .4z"/>
          <path class="cls-9" d="M364.8 406.7a2.3 2.3 0 01-1.1-.3l-6.2-3.6a.2.2 0 01-.1-.2.2.2 0 010-.3l6.3-3.5a2.3 2.3 0 011.1-.3 2.3 2.3 0 011.1.3l6.2 3.6a.2.2 0 01.1.2.2.2 0 010 .2l-6.3 3.6a2.3 2.3 0 01-1 .3z"/>
        </g>
        <g>
          <path class="cls-4" d="M362.7 414.4a1.3 1.3 0 01-.7 1l-6.2 3.6a3.3 3.3 0 01-3.3 0l-6.2-3.6a1.3 1.3 0 01-.7-1.1 1.5 1.5 0 010-.3 1 1 0 01.1-.2l1-5.2h3.8l.7-.4 1.3-.7a3.3 3.3 0 013.3 0l2 1.1h3.8l1 5a1.2 1.2 0 010 .5 1.6 1.6 0 010 .3z"/>
          <path class="cls-8" d="M354.6 410.9l.4 1.6-.1 6.9a3.3 3.3 0 01-2.4-.4l-6.2-3.6a1.3 1.3 0 01-.7-1.1 1.5 1.5 0 010-.3 1 1 0 01.1-.3l1-5h3.8l.7-.5zM362.7 414.4l-1.2-5.5-.8-.3h.9l1 5a1.2 1.2 0 010 .5 1.6 1.6 0 010 .3z"/>
          <path class="cls-9" d="M354.1 412.8a2.2 2.2 0 01-1-.3l-6.3-3.6a.3.3 0 01-.1-.2.2.2 0 01.1-.2l6.2-3.6a2.2 2.2 0 011.1-.3 2.2 2.2 0 011.2.3l6.2 3.6a.2.2 0 010 .2.3.3 0 010 .2l-6.2 3.6a2.2 2.2 0 01-1.2.3z"/>
        </g>
        <g>
          <path class="cls-4" d="M352 420.6a1.3 1.3 0 01-.7 1l-6.2 3.6a3.3 3.3 0 01-1 .4 3.3 3.3 0 01-2.3-.4l-6.2-3.6a1.3 1.3 0 01-.7-1.1 1.1 1.1 0 010-.4 2 2 0 01.1-.2l1-5.1h3.8l.8-.5 1.2-.7a3.3 3.3 0 013.3 0l2 1.2h3.8l1 5a1.3 1.3 0 01.1.4 1.6 1.6 0 010 .4z"/>
          <path class="cls-8" d="M343.9 417l.4 1.6-.1 7a3.3 3.3 0 01-2.4-.4l-6.2-3.6a1.3 1.3 0 01-.7-1.2 1.1 1.1 0 010-.3 2 2 0 01.1-.2l1-5.1h3.8l.8-.5zM352 420.6l-1.2-5.5-.8-.3h.9l1 5a1.3 1.3 0 01.1.4 1.6 1.6 0 010 .4z"/>
          <path class="cls-9" d="M343.5 419a2.3 2.3 0 01-1.1-.3l-6.2-3.6a.3.3 0 01-.2-.2.3.3 0 01.2-.2l6.2-3.6a2.2 2.2 0 012.2 0l6.2 3.6a.3.3 0 01.1.2.3.3 0 01-.1.2l-6.2 3.6a2.3 2.3 0 01-1.1.3z"/>
        </g>
        <g>
          <path class="cls-4" d="M341.4 426.8a1.3 1.3 0 01-.7 1l-6.2 3.5a3.5 3.5 0 01-1 .4 3.3 3.3 0 01-2.4-.4l-6.1-3.6a1.3 1.3 0 01-.7-1.1 1 1 0 010-.3 1.9 1.9 0 01.1-.2l1-5.2h3.8l.7-.4 1.3-.7a3.3 3.3 0 013.3 0l2 1.1h3.8l1 5a1.5 1.5 0 010 .5 1.6 1.6 0 010 .4z"/>
          <path class="cls-8" d="M333.2 423.2l.5 1.6-.2 6.9a3.3 3.3 0 01-2.3-.4l-6.2-3.6a1.3 1.3 0 01-.7-1.1 1 1 0 010-.3 1.9 1.9 0 01.1-.2l1-5.2h3.8l.7-.4zM341.4 426.8l-1.3-5.6-.7-.3h.8l1 5a1.5 1.5 0 01.2.5 1.6 1.6 0 010 .4z"/>
          <path class="cls-9" d="M332.8 425.1a2.2 2.2 0 01-1-.3l-6.3-3.6a.3.3 0 01-.1-.2.3.3 0 01.1-.2l6.2-3.6a2.2 2.2 0 012.2 0l6.2 3.6a.2.2 0 010 .4l-6.2 3.6a2.2 2.2 0 01-1 .3z"/>
        </g>
        <g>
          <path class="cls-4" d="M330.7 433a1.3 1.3 0 01-.7 1l-6.2 3.5a3.5 3.5 0 01-1 .4 3.3 3.3 0 01-2.3-.4l-6.2-3.6a1.3 1.3 0 01-.7-1.1 1.1 1.1 0 010-.3 1 1 0 010-.3l1-5.1h3.8l.8-.5 1.2-.6a3.3 3.3 0 013.3 0l2 1h3.8l1 5.2a1.6 1.6 0 01.1.3 1.2 1.2 0 010 .4z"/>
          <path class="cls-8" d="M322.6 429.4l.4 1.5-.1 7a3.3 3.3 0 01-2.4-.4l-6.2-3.6a1.3 1.3 0 01-.7-1.2 1.1 1.1 0 010-.3 1 1 0 01.1-.2l1-5.1h3.8l.7-.5zM330.7 433l-1.2-5.6-.8-.3h.9l1 5a1.6 1.6 0 01.1.4 1.2 1.2 0 010 .4z"/>
          <path class="cls-9" d="M322.2 431.3a2.3 2.3 0 01-1.1-.3l-6.3-3.6a.2.2 0 010-.2.2.2 0 010-.2l6.3-3.6a2.3 2.3 0 011-.3 2.3 2.3 0 011.2.3l6.2 3.6a.2.2 0 01.1.2.2.2 0 01-.1.2l-6.2 3.6a2.3 2.3 0 01-1.1.3z"/>
        </g>
        <g>
          <path class="cls-4" d="M320 439a1.3 1.3 0 01-.7 1l-6.1 3.6a3.5 3.5 0 01-1 .4 3.4 3.4 0 01-2.4-.4l-6.2-3.5a1.3 1.3 0 01-.7-1.2 1 1 0 010-.3 1 1 0 010-.2l1-5.2h3.9l.7-.4 1.2-.7a3.4 3.4 0 013.4 0l2 1.1h3.7l1 5.1a2 2 0 01.2.4 1.2 1.2 0 010 .4z"/>
          <path class="cls-8" d="M312 435.5l.3 1.6v6.9a3.4 3.4 0 01-2.5-.4l-6.2-3.6a1.3 1.3 0 01-.6-1.1 1 1 0 010-.3 1 1 0 010-.2l1-5.2h3.8l.8-.4zM320 439l-1.2-5.4-.8-.4h.9l1 5a2 2 0 01.1.5 1.2 1.2 0 010 .4z"/>
          <path class="cls-9" d="M311.5 437.4a2.2 2.2 0 01-1.1-.3l-6.2-3.6a.2.2 0 010-.4l6.2-3.6a2.2 2.2 0 011.1-.2 2.2 2.2 0 011.1.2l6.2 3.6a.2.2 0 010 .4l-6.2 3.6a2.2 2.2 0 01-1.1.3z"/>
        </g>
        <g>
          <path class="cls-10" d="M309.3 444.7l-1-5.3-2.4.8-3.4-2a3.4 3.4 0 00-3.3 0l-6.2 3.6-10.7 6.2-1 .6-9.2 3.1-1 5.2a1.3 1.3 0 00.6 1.6l6.2 3.6a3.3 3.3 0 003.3 0l27.6-15.9a1.3 1.3 0 00.6-1.1 1.4 1.4 0 00-.1-.4z"/>
          <path class="cls-11" d="M280 454l.4 1.6-.2 6.9a3.3 3.3 0 01-2.3-.4l-6.2-3.6a1.3 1.3 0 01-.7-1.1 1.6 1.6 0 010-.3 1 1 0 010-.3l1-5.1h3.8l.8-.4z"/>
          <path class="cls-13" d="M279.5 455.9a2.3 2.3 0 01-1-.3l-6.3-3.6a.2.2 0 01-.1-.2.2.2 0 01.1-.2l10.8-6.2 16.7-9.7a2.3 2.3 0 011.2-.3 2.3 2.3 0 011 .3l6.3 3.6V439.7a.2.2 0 010 .1l-27.6 15.9a2.3 2.3 0 01-1 .3z"/>
        </g>
      </g>
      <g>
        <path class="cls-4" d="M504.5 346.2a1.3 1.3 0 01-.7 1l-6.2 3.6a3.3 3.3 0 01-.9.4 3.3 3.3 0 01-2.4-.4l-6.2-3.6a1.3 1.3 0 01-.6-1.1 1.6 1.6 0 010-.4 1 1 0 010-.2l1-5.1h3.8l.8-.5 1.2-.7a3.3 3.3 0 013.3 0l2 1.2h3.8l1 5a1.3 1.3 0 01.1.4 1.2 1.2 0 010 .4z"/>
        <path class="cls-8" d="M496.4 342.7l.4 1.5-.1 7a3.3 3.3 0 01-2.4-.4l-6.2-3.6a1.3 1.3 0 01-.6-1.2 1.6 1.6 0 010-.3 1 1 0 010-.2l1-5.1h3.8l.8-.5zM504.5 346.2l-1.2-5.5-.8-.3h.9l1 5a1.3 1.3 0 01.1.4 1.2 1.2 0 010 .4z"/>
        <path class="cls-9" d="M496 344.6a2.3 2.3 0 01-1.1-.3l-6.2-3.6a.2.2 0 01-.1-.2.2.2 0 010-.2l6.3-3.6a2.3 2.3 0 011.1-.3 2.3 2.3 0 011.1.3l6.2 3.6a.2.2 0 01.1.2.2.2 0 010 .2l-6.3 3.6a2.3 2.3 0 01-1.1.3z"/>
        <path class="cls-4" d="M493.8 351.7l-1-5.2-2.7.6-3.1-1.8a3.3 3.3 0 00-3.3 0l-10 5.9-6.4 1.5-1.1 5.3a1.3 1.3 0 00.6 1.5l6.2 3.6a3.3 3.3 0 003.3 0l10.6-6a.8.8 0 010-.2l6.3-3.5a1.3 1.3 0 00.7-1.2 1.5 1.5 0 00-.1-.5z"/>
        <path class="cls-8" d="M475 355l.5 1.6-.1 6.9a3.3 3.3 0 01-2.4-.4l-6.2-3.6a1.3 1.3 0 01-.7-1.1 1.6 1.6 0 010-.3 1 1 0 01.1-.3l1-5.1h3.8l.8-.4z"/>
        <path class="cls-9" d="M474.7 356.9a2.3 2.3 0 01-1.1-.3l-6.3-3.6a.2.2 0 010-.2.2.2 0 010-.2l17-9.8a2.2 2.2 0 011-.3 2.1 2.1 0 011.1.3l6.3 3.6a.2.2 0 010 .2.2.2 0 010 .2l-17 9.8a2.3 2.3 0 01-1 .3z"/>
        <path class="cls-4" d="M471.2 365.4a1.3 1.3 0 01-.7 1l-6.2 3.6a3 3 0 01-1 .4 3.3 3.3 0 01-2.3-.4l-6.2-3.6a1.3 1.3 0 01-.7-1.1 1.6 1.6 0 010-.3 2 2 0 01.1-.3l1-5.1h3.8l.8-.4 1.2-.7a3.3 3.3 0 013.3 0l2 1h3.8l1 5.2a1.3 1.3 0 010 .4 1.2 1.2 0 010 .3z"/>
        <path class="cls-8" d="M463 361.9l.5 1.6-.1 6.9a3.3 3.3 0 01-2.4-.4l-6.2-3.6a1.3 1.3 0 01-.7-1.1 1.6 1.6 0 010-.3 2 2 0 01.1-.3l1-5.1h3.8l.8-.4zM471.2 365.4L470 360l-.8-.3h.9l1 5a1.3 1.3 0 010 .5 1.2 1.2 0 010 .3z"/>
        <path class="cls-9" d="M462.6 363.8a2.2 2.2 0 01-1-.3l-6.3-3.6a.2.2 0 010-.2.2.2 0 010-.2l6.2-3.6a2.1 2.1 0 011.1-.3 2.2 2.2 0 011.2.3l6.2 3.6a.2.2 0 010 .2.2.2 0 010 .2l-6.2 3.6a2.3 2.3 0 01-1.2.3z"/>
        <path class="cls-4" d="M460.5 371.6a1.3 1.3 0 01-.7 1l-6.2 3.6a3.3 3.3 0 01-.9.3 3.3 3.3 0 01-2.4-.3l-6.2-3.6a1.3 1.3 0 01-.6-1.2 1.5 1.5 0 010-.3 2 2 0 010-.2l1-5.1h3.8l.8-.5 1.2-.7a3.3 3.3 0 013.3 0l2 1.2h3.8l1 5a1.4 1.4 0 01.1.4 1.2 1.2 0 010 .4z"/>
        <path class="cls-8" d="M452.4 368l.4 1.6-.1 7a3.3 3.3 0 01-2.4-.4l-6.2-3.6a1.3 1.3 0 01-.6-1.2 1.5 1.5 0 010-.3 2 2 0 010-.2l1-5.1h3.8l.8-.5zM460.5 371.6l-1.2-5.5-.8-.3h.9l1 5a1.4 1.4 0 01.1.4 1.2 1.2 0 010 .4z"/>
        <path class="cls-9" d="M452 370a2.2 2.2 0 01-1.1-.3l-6.2-3.6a.2.2 0 01-.1-.2.2.2 0 010-.2l6.3-3.6a2.1 2.1 0 011.1-.3 2.2 2.2 0 011.1.3l6.2 3.6a.2.2 0 01.1.2.2.2 0 010 .2l-6.3 3.6a2.2 2.2 0 01-1.1.3z"/>
        <g>
          <path class="cls-4" d="M449.9 377.8a1.3 1.3 0 01-.7 1l-6.2 3.5a3.3 3.3 0 01-3.3 0l-6.2-3.5a1.3 1.3 0 01-.7-1.2 1.6 1.6 0 010-.3 1 1 0 010-.2l1-5.2h3.8l.8-.4 1.2-.7a3.3 3.3 0 013.3 0l2 1.1h3.8l1 5.1a1.3 1.3 0 01.1.4 1.2 1.2 0 010 .4z"/>
          <path class="cls-8" d="M441.7 374.2l.5 1.6-.2 6.9a3.3 3.3 0 01-2.3-.4l-6.2-3.6a1.3 1.3 0 01-.7-1.1 1.6 1.6 0 010-.3 1 1 0 010-.2l1-5.2h3.8l.8-.4zM449.9 377.8l-1.2-5.6-.8-.3h.8l1 5a1.3 1.3 0 01.2.5 1.2 1.2 0 010 .4z"/>
          <path class="cls-9" d="M441.3 376.1a2.3 2.3 0 01-1-.3l-6.3-3.6a.2.2 0 01-.1-.2.2.2 0 01.1-.2l6.2-3.6a2.1 2.1 0 011.1-.3 2.2 2.2 0 011.1.3l6.2 3.6a.2.2 0 01.2.2.2.2 0 01-.2.2l-6.2 3.6a2.3 2.3 0 01-1 .3z"/>
        </g>
        <g>
          <path class="cls-10" d="M437.6 384.2l-1-5.2-2.7.6-3.1-1.8a3.4 3.4 0 00-3.3 0l-10 5.9-6.5 1.5-1 5.3a1.3 1.3 0 00.6 1.5l6.2 3.6a3.3 3.3 0 003.3 0l10.6-6.1h.1l6.2-3.7a1.3 1.3 0 00.7-1.1 1.2 1.2 0 00-.1-.5z"/>
          <path class="cls-11" d="M418.9 387.4l.4 1.6-.1 7a3.3 3.3 0 01-2.4-.4l-6.2-3.6a1.3 1.3 0 01-.7-1.2 1.5 1.5 0 010-.3 1 1 0 010-.2l1-5.1h3.9l.7-.5z"/>
          <path class="cls-13" d="M418.4 389.4a2.2 2.2 0 01-1-.3l-6.3-3.6a.2.2 0 010-.2.2.2 0 010-.2l16.9-9.8a2.3 2.3 0 011.1-.3 2.3 2.3 0 011.1.3l6.2 3.6a.2.2 0 01.2.2.2.2 0 01-.2.2l-16.8 9.8a2.2 2.2 0 01-1.2.3z"/>
        </g>
        <g>
          <path class="cls-10" d="M416.3 397.2a1.3 1.3 0 01-.7 1l-6.1 3.6a3.5 3.5 0 01-1 .3 3.3 3.3 0 01-2.4-.4l-6.2-3.5a1.3 1.3 0 01-.7-1.2 1.6 1.6 0 010-.3 1 1 0 010-.2l1-5.2h3.9l.7-.4 1.2-.7a3.3 3.3 0 013.4 0l2 1.1h3.7l1 5.1a1.6 1.6 0 01.2.4 1.2 1.2 0 010 .4z"/>
          <path class="cls-11" d="M408.2 393.6l.4 1.6-.1 6.9a3.3 3.3 0 01-2.4-.4l-6.2-3.6a1.3 1.3 0 01-.6-1.1 1.6 1.6 0 010-.3 1 1 0 010-.2l1-5.2h3.8l.8-.4zM416.3 397.2l-1.2-5.5-.8-.4h.9l1 5a1.6 1.6 0 01.1.5 1.2 1.2 0 010 .4z"/>
          <path class="cls-13" d="M407.8 395.5a2.3 2.3 0 01-1.1-.3l-6.2-3.6a.2.2 0 01-.2-.2.2.2 0 01.2-.2l6.2-3.6a2.2 2.2 0 012.2 0l6.2 3.6a.2.2 0 01.1.2.2.2 0 01-.1.3l-6.2 3.5a2.3 2.3 0 01-1.1.3z"/>
        </g>
        <g>
          <path class="cls-4" d="M405.6 403.3a1.3 1.3 0 01-.6 1l-6.2 3.6a3.3 3.3 0 01-3.3 0l-6.2-3.6a1.3 1.3 0 01-.7-1.2 1.5 1.5 0 010-.3 1 1 0 010-.2l1-5.1h3.8l.8-.5 1.2-.7a3.3 3.3 0 013.3 0l2 1.2h3.8l1 5a2 2 0 01.1.4 1.2 1.2 0 010 .4z"/>
          <path class="cls-8" d="M397.5 399.8l.5 1.5-.2 7a3.3 3.3 0 01-2.3-.4l-6.2-3.6a1.3 1.3 0 01-.7-1.2 1.5 1.5 0 010-.3 1 1 0 010-.2l1-5.1h3.8l.8-.5zM405.6 403.3l-1.2-5.5-.7-.3h.8l1 5a2 2 0 01.2.4 1.2 1.2 0 010 .4z"/>
          <path class="cls-9" d="M397.1 401.7a2.2 2.2 0 01-1-.3l-6.3-3.6a.2.2 0 010-.4l6.2-3.6a2.2 2.2 0 011.1-.3 2.2 2.2 0 011.1.3l6.2 3.6a.2.2 0 010 .4l-6.2 3.6a2.2 2.2 0 01-1 .3z"/>
        </g>
        <g>
          <path class="cls-4" d="M395 409.5a1.3 1.3 0 01-.7 1l-6.2 3.5a3.3 3.3 0 01-1 .4 3.3 3.3 0 01-2.3-.4l-6.2-3.6a1.3 1.3 0 01-.7-1.1 1.6 1.6 0 010-.3 1 1 0 01.1-.3l1-5.1h3.8l.7-.5 1.2-.6a3.3 3.3 0 013.4 0l2 1h3.7l1 5.2a1.6 1.6 0 01.2.3 1.2 1.2 0 010 .5z"/>
          <path class="cls-8" d="M386.9 406l.4 1.5-.1 6.9a3.3 3.3 0 01-2.4-.4l-6.2-3.5a1.3 1.3 0 01-.7-1.2 1.6 1.6 0 010-.3 1 1 0 01.1-.2l1-5.2h3.8l.7-.4zM395 409.5l-1.2-5.5-.8-.4h.9l1 5a1.6 1.6 0 01.1.5 1.2 1.2 0 010 .4z"/>
          <path class="cls-9" d="M386.5 407.8a2.3 2.3 0 01-1.2-.3l-6.2-3.5a.2.2 0 010-.3.2.2 0 010-.2l6.2-3.6a2.3 2.3 0 011.2-.2 2.3 2.3 0 011 .2l6.3 3.6a.2.2 0 01.1.2.2.2 0 01-.1.3l-6.2 3.5a2.3 2.3 0 01-1.1.3z"/>
        </g>
        <g>
          <path class="cls-4" d="M384.3 415.1l-1.1-5.3-2.4.8-3.3-2a3.4 3.4 0 00-3.4 0l-27.5 16-10.6 6.2-1 .5-9.2 3.2-1 5.2a1.3 1.3 0 00.6 1.6l6.2 3.6a3.3 3.3 0 003.3 0l48.9-28.3a1.3 1.3 0 00.7-1.2 1.4 1.4 0 00-.3-.3z"/>
          <path class="cls-8" d="M333.6 436.8l.4 1.5-.1 7a3.3 3.3 0 01-2.4-.4l-6.2-3.6a1.3 1.3 0 01-.7-1.1 1.6 1.6 0 010-.4 1 1 0 01.1-.2l1-5.1h3.8l.7-.5z"/>
          <path class="cls-9" d="M333.1 438.7a2.2 2.2 0 01-1-.3l-6.3-3.6a.2.2 0 010-.2.2.2 0 010-.2l10.8-6.2 38-22a2.2 2.2 0 011.2-.3 2.2 2.2 0 011.1.3l6.2 3.5v.2a.7.7 0 010 .1.2.2 0 010 .2l-48.9 28.3a2.3 2.3 0 01-1 .2z"/>
        </g>
        <g>
          <path class="cls-10" d="M331 446.4a1.3 1.3 0 01-.7 1l-6.2 3.6a3.3 3.3 0 01-1 .3 3.3 3.3 0 01-2.3-.3l-6.2-3.6a1.3 1.3 0 01-.7-1.1 1.6 1.6 0 010-.4 1 1 0 010-.2l1-5.1h3.8l.8-.5 1.2-.7a3.3 3.3 0 013.3 0l2 1.2h3.8l1 5a1 1 0 01.2.4 1.6 1.6 0 010 .4z"/>
          <path class="cls-11" d="M323 442.9l.3 1.5v7a3.3 3.3 0 01-2.5-.4l-6.2-3.6a1.3 1.3 0 01-.6-1.2 1.6 1.6 0 010-.3 1 1 0 010-.2l1-5.1h3.8l.8-.5z"/>
          <path class="cls-8" d="M331 446.4l-1.2-5.5-.8-.3h.9l1 5a1 1 0 01.1.4 1.6 1.6 0 010 .4z"/>
          <path class="cls-13" d="M322.5 444.8a2.3 2.3 0 01-1.1-.3l-6.2-3.6a.2.2 0 01-.1-.2.2.2 0 010-.2l6.3-3.6a2.3 2.3 0 011.1-.3 2.3 2.3 0 011.1.3l6.2 3.6a.2.2 0 01.1.2.2.2 0 010 .2l-6.3 3.6a2.3 2.3 0 01-1.1.3z"/>
        </g>
        <g>
          <path class="cls-4" d="M320.4 452.6a1.3 1.3 0 01-.7 1l-6.2 3.5a3.3 3.3 0 01-3.3 0l-6.2-3.6a1.3 1.3 0 01-.7-1.1 1.5 1.5 0 010-.3 2 2 0 01.1-.3l1-5h3.8l.7-.5 1.3-.7a3.3 3.3 0 013.3 0l2 1.1h3.8l1 5a1.2 1.2 0 010 .5 1.7 1.7 0 010 .4z"/>
          <path class="cls-8" d="M312.2 449l.5 1.6-.2 6.9a3.3 3.3 0 01-2.3-.4l-6.2-3.6a1.3 1.3 0 01-.7-1.1 1.5 1.5 0 010-.3 2 2 0 01.1-.3l1-5h3.8l.7-.5zM320.4 452.6L319 447l-.7-.3h.9l1 5a1.2 1.2 0 010 .4 1.7 1.7 0 010 .5z"/>
          <path class="cls-9" d="M311.8 451a2.2 2.2 0 01-1-.4l-6.3-3.6a.2.2 0 010-.4l6.2-3.6a2.2 2.2 0 011.1-.3 2.2 2.2 0 011.1.3l6.3 3.6a.2.2 0 010 .4l-6.2 3.6a2.2 2.2 0 01-1.2.3z"/>
        </g>
        <g>
          <path class="cls-10" d="M309.6 458l-1-5.1-2.6.6-3.1-1.8a3.3 3.3 0 00-3.3 0l-10.1 5.8-6.4 1.6-1.1 5.2a1.3 1.3 0 00.6 1.5l6.2 3.6a3.4 3.4 0 003.3 0l10.6-6 .1-.1 6.2-3.6a1.3 1.3 0 00.7-1.2 1.4 1.4 0 000-.4z"/>
          <path class="cls-11" d="M291 461.3l.4 1.6-.2 6.9a3.4 3.4 0 01-2.3-.4l-6.2-3.5a1.3 1.3 0 01-.7-1.2 1 1 0 010-.3 1.6 1.6 0 010-.2l1-5.2h3.8l.8-.4z"/>
          <path class="cls-13" d="M290.5 463.2a2.2 2.2 0 01-1.1-.3l-6.2-3.5a.2.2 0 010-.5l16.9-9.7a2.2 2.2 0 011-.3 2.2 2.2 0 011.2.3l6.2 3.5a.2.2 0 01.1.3.2.2 0 01-.1.2l-6.1 3.5a.8.8 0 00-.2 0l-10.6 6.2a2.2 2.2 0 01-1 .3z"/>
        </g>
      </g>
      <path class="cls-9" d="M374.8 373.6a2.2 2.2 0 01-1.1-.3l-6.2-3.6a.2.2 0 010-.4l6.2-3.6a2.2 2.2 0 011.1-.3 2.2 2.2 0 011.1.3l6.2 3.6a.2.2 0 010 .4l-6.2 3.6a2.2 2.2 0 01-1.1.3z"/>
      <path class="cls-4" d="M220.4 433v7.8l71.4 41.2v-4.7L220.4 433z"/>
      <path class="cls-13" d="M396.4 375.3a2.2 2.2 0 01-1-.3l-6.3-3.5a.2.2 0 010-.5l10.3-5.9-10.6-6.1a.2.2 0 01-.1-.2.2.2 0 01.1-.2l6.2-3.6a2.3 2.3 0 011.1-.3 2.3 2.3 0 011.1.3l11.3 6.5 6 3.4a.2.2 0 010 .3.2.2 0 010 .2l-17 9.6a2.2 2.2 0 01-1 .3z"/>
      <g>
        <path class="cls-1" d="M150.3 398L0 311.1l209.6-121 6.5 207.8h-65.8z"/>
        <path class="cls-6" d="M180.3 423a58.1 58.1 0 01-9.2-.6c-13-2-141.6-46-150.7-89.6-2.3-11 3.2-21 16.5-29.6 43.3-27.8 113-50.5 199.3-.4l2.8 1.6c9.6-12.9 79-70 132.8-86.6 59.4-18.3 63.9-16.6 104.5 12 10.3 7.3 11.3 12.6 12.3 18.3 1.2 6.6 2.5 14.2 23 28.2l-2.2 3.2c-21.8-15-23.3-23.3-24.6-30.7-1-5.3-1.7-9.5-10.8-15.8-38.9-27.5-42-29.7-101.1-11.5-58.5 18-128.8 80-131.3 85.8l-.2 1-1 .3c-1 .5-1.6.2-6.1-2.5-84.6-49-152.9-26.9-195.3.4-12 7.6-16.8 16-14.8 25.5 8.3 39.6 130.2 83.7 147.5 86.5 24.7 4 49.7-10.4 74-24.2 26.8-15.4 52.1-30 75-18.2l-1.8 3.4c-21-10.7-45.5 3.3-71.4 18.1-21.8 12.6-44.3 25.5-67.2 25.5z"/>
        <path fill="#7b746b" d="M176.3 369.8l14.5-8.4v-22.1l-14.5 8.3v22.2z"/>
        <path class="cls-7" d="M425.7 271.7l-39.7-23-209.7 121 39.8 23 209.6-121z"/>
        <path class="cls-15" d="M423.9 270.6l-38-21.8-209.6 121 38 21.9 209.6-121z"/>
        <path class="cls-7" d="M425.7 263L386 240.2l-209.7 121 39.8 23 209.6-121z"/>
        <path class="cls-15" d="M423.9 262l-38-21.9-209.6 121 38 22L423.8 262z"/>
        <path class="cls-7" d="M425.7 254.4l-39.7-23-209.7 121 39.8 23 209.6-121z"/>
        <path class="cls-15" d="M423.9 253.3l-38-21.9-209.6 121 38 22 209.6-121z"/>
        <path class="cls-6" d="M425.7 251L216.1 372v-39.5l209.6-121v39.4zM425.7 259.6l-209.6 121v-5.2l209.6-121v5.2zM425.7 268.3l-209.6 121V384l209.6-121v5.1zM425.7 277L216.1 398v-5.3l209.6-121v5.2z"/>
        <path class="cls-7" d="M216 332.5L65.9 245.7l209.6-121 150.3 86.7-209.6 121z"/>
        <path class="cls-4" d="M216 372l-39.7-23v-39.5l39.8 23V372zM176.3 375L65.8 311.2v-65.5l110.5 63.8V375z"/>
        <path class="cls-4" d="M216 380.6l-39.7-23v-5.1l39.8 23v5.1zM216 389.3l-39.7-23v-5.2l39.8 23v5.2zM216 398l-39.7-23v-5.2l39.8 23v5.1z"/>
        <g>
          <path class="cls-4" d="M277.7 317.2c0 3.4-6.2 9.9-14 14.3s-14 5.3-14 1.8 6.3-9.9 14-14.3 14-5.3 14-1.8z"/>
          <path class="cls-16" d="M288 311.4L236.9 341v-2.4l51.3-29.6v2.4z"/>
          <path class="cls-16" d="M274 318.4c0 2-5.2 6.6-11.5 10.3s-11.5 5-11.5 3 5.1-6.7 11.5-10.3 11.5-5 11.5-3z"/>
          <path class="cls-17" d="M288 316.5l-6 3.5v2.4l6-3.5v-2.4z"/>
        </g>
        <g>
          <path class="cls-18" d="M414.1 218.1v24.4l-2.6 1.5v-24.3l2.6-1.6z"/>
          <path class="cls-18" d="M414.1 218.1l-2.6 1.6-17.9-10.3 2.7-1.6 17.8 10.3z"/>
          <path class="cls-9" d="M414.1 242.5l-2.6 1.5v-2.4l.5-.3 2.1 1.2z"/>
          <path class="cls-4" d="M414.1 218.1L412 217v24.4l2.1 1.2v-24.4z"/>
          <path class="cls-4" d="M414.1 218.1l-17.8-10.3v2.5l17.8 10.3V218z"/>
          <path class="cls-6" d="M393.6 209.3l2.7-1.5v2.5l-.6.3-2-1.3z"/>
          <path class="cls-18" d="M408.8 221.2v24.4l-2.6 1.5v-24.4l2.6-1.5z"/>
          <path class="cls-18" d="M408.8 221.2l-2.6 1.5-17.8-10.3 2.6-1.5 17.8 10.3z"/>
          <path class="cls-9" d="M408.8 245.6l-2.6 1.5v-2.4l.5-.3 2.1 1.2z"/>
          <path class="cls-4" d="M408.8 221.2l-2-1.2v24.4l2 1.2v-24.4z"/>
          <path class="cls-4" d="M408.8 221.2L391 210.9v2.4l17.8 10.3v-2.4z"/>
          <path class="cls-6" d="M388.4 212.4l2.6-1.5v2.4l-.5.3-2.1-1.2z"/>
          <g>
            <path class="cls-18" d="M403.5 224.2v24.4l-2.6 1.5v-24.3l2.6-1.6z"/>
            <path class="cls-18" d="M403.5 224.2l-2.6 1.6-17.8-10.3 2.6-1.6 17.8 10.3z"/>
            <path class="cls-9" d="M403.5 248.6l-2.6 1.5v-2.4l.5-.3 2.1 1.2z"/>
            <path class="cls-4" d="M403.5 224.2l-2-1.2v24.4l2 1.2v-24.4z"/>
            <path class="cls-4" d="M403.5 224.2L385.7 214v2.5l17.8 10.3v-2.5z"/>
            <path class="cls-6" d="M383 215.5l2.7-1.6v2.5l-.5.3-2.1-1.2z"/>
          </g>
          <g>
            <path class="cls-18" d="M398.3 227.3v24.4l-2.7 1.5v-24.4l2.7-1.5z"/>
            <path class="cls-18" d="M398.3 227.3l-2.7 1.5-17.8-10.3 2.6-1.5 17.9 10.3z"/>
            <path class="cls-9" d="M398.3 251.7l-2.7 1.5v-2.4l.5-.3 2.2 1.2z"/>
            <path class="cls-4" d="M398.3 227.3L396 226v24.4l2.2 1.2v-24.4z"/>
            <path class="cls-4" d="M398.3 227.3L380.4 217v2.4l17.9 10.3v-2.4z"/>
            <path class="cls-6" d="M377.8 218.5l2.6-1.5v2.4l-.5.3-2.1-1.2z"/>
          </g>
          <g>
            <path class="cls-18" d="M393 230.3v24.4l-2.6 1.5V232l2.6-1.6z"/>
            <path class="cls-18" d="M393 230.3l-2.6 1.5-17.9-10.2 2.6-1.6 17.9 10.3z"/>
            <path class="cls-9" d="M393 254.7l-2.6 1.5v-2.4l.5-.3 2 1.2z"/>
            <path class="cls-4" d="M393 230.3l-2.1-1.2v24.4l2 1.2v-24.4z"/>
            <path class="cls-4" d="M393 230.3L375 220v2.5l17.9 10.3v-2.5z"/>
            <path class="cls-6" d="M372.5 221.6l2.6-1.6v2.5l-.5.3-2-1.2z"/>
          </g>
          <g>
            <path class="cls-18" d="M387.7 233.4v24.4l-2.6 1.5v-24.4l2.6-1.5z"/>
            <path class="cls-18" d="M387.7 233.4l-2.6 1.5-17.9-10.3 2.7-1.5 17.8 10.3z"/>
            <path class="cls-9" d="M387.7 257.8l-2.6 1.5v-2.4l.5-.3 2 1.2z"/>
            <path class="cls-4" d="M387.7 233.4l-2.1-1.2v24.4l2 1.2v-24.4z"/>
            <path class="cls-4" d="M387.7 233.4l-17.8-10.3v2.4l17.8 10.3v-2.4z"/>
            <path class="cls-6" d="M367.2 224.6l2.7-1.5v2.4l-.6.3-2-1.2z"/>
          </g>
          <g>
            <path class="cls-18" d="M382.4 236.4v24.4l-2.6 1.6V238l2.6-1.6z"/>
            <path class="cls-18" d="M382.4 236.4l-2.6 1.6-17.9-10.3 2.7-1.5 17.8 10.2z"/>
            <path class="cls-9" d="M382.4 260.8l-2.6 1.6v-2.5l.5-.3 2.1 1.2z"/>
            <path class="cls-4" d="M382.4 236.4l-2.1-1.2v24.4l2.1 1.2v-24.4z"/>
            <path class="cls-4" d="M382.4 236.4l-17.8-10.3v2.5l17.8 10.3v-2.5z"/>
            <path class="cls-6" d="M362 227.7l2.6-1.5v2.4l-.6.3-2-1.2z"/>
          </g>
          <g>
            <path class="cls-18" d="M377.1 239.5v24.4l-2.6 1.5V241l2.6-1.5z"/>
            <path class="cls-18" d="M377.1 239.5l-2.6 1.5-17.8-10.3 2.6-1.5 17.8 10.3z"/>
            <path class="cls-9" d="M377.1 263.9l-2.6 1.5V263l.5-.3 2.1 1.2z"/>
            <path class="cls-4" d="M377.1 239.5l-2-1.2v24.4l2 1.2v-24.4z"/>
            <path class="cls-4" d="M377.1 239.5l-17.8-10.3v2.4L377 242v-2.4z"/>
            <path class="cls-6" d="M356.7 230.7l2.6-1.5v2.4l-.5.3-2.1-1.2z"/>
          </g>
          <g>
            <path class="cls-18" d="M371.8 242.6v24.3l-2.6 1.5v-24.3l2.6-1.5z"/>
            <path class="cls-18" d="M371.8 242.6l-2.6 1.5-17.8-10.3 2.6-1.6 17.8 10.4z"/>
            <path class="cls-9" d="M371.8 267l-2.6 1.4V266l.5-.3 2.1 1.2z"/>
            <path class="cls-4" d="M371.8 242.6l-2-1.3v24.4l2 1.2v-24.3z"/>
            <path class="cls-4" d="M371.8 242.6L354 232.3v2.4l17.8 10.3v-2.4z"/>
            <path class="cls-6" d="M351.4 233.8l2.6-1.6v2.5l-.5.3-2.1-1.2z"/>
          </g>
          <g>
            <path class="cls-18" d="M366.6 245.6V270l-2.7 1.5v-24.4l2.7-1.5z"/>
            <path class="cls-18" d="M366.6 245.6l-2.7 1.5-17.8-10.3 2.6-1.5 17.9 10.3z"/>
            <path class="cls-9" d="M366.6 270l-2.7 1.5v-2.4l.6-.3 2 1.2z"/>
            <path class="cls-4" d="M366.6 245.6l-2.2-1.2v24.4l2.2 1.2v-24.4z"/>
            <path class="cls-4" d="M366.6 245.6l-17.9-10.3v2.4l17.9 10.3v-2.4z"/>
            <path class="cls-6" d="M346.1 236.8l2.6-1.5v2.4l-.5.3-2.1-1.2z"/>
          </g>
        </g>
        <g>
          <path class="cls-4" d="M363 199.6l-51.5-29.8c-29.1-16.8-73.2-18.6-98.5-4l-64.3 37c-25.2 14.6-22 40 7.1 57l51.6 29.7c9.5 5.5 24 6.1 32.4 1.3l125.6-72.5c8.3-4.8 7.3-13.2-2.3-18.7z"/>
          <path class="cls-19" d="M235 281.8l125.7-72.5c4.9-2.9 4.3-7.8-1.4-11l-54.9-31.8c-25.2-14.6-63.4-16.2-85.3-3.5L155 200c-21.9 12.7-19.1 34.7 6.1 49.3l55 31.7c5.6 3.3 14.2 3.6 19 .8z"/>
          <path class="cls-20" d="M188.9 243.7c29 16.7 76.2 16.6 105.4-.2s29.4-44.2.3-61-76.2-16.6-105.4.3-29.4 44-.3 60.8z"/>
          <path d="M196.7 239.2c24.7 14.2 65 14.2 89.9-.2s25-37.6.2-52-65-14.1-89.9.3-25 37.6-.3 51.8z" fill="#ddc4a7"/>
          <ellipse class="cls-6" cx="241.8" cy="215.2" rx="58.5" ry="33.8" transform="rotate(-.3 241.5 215)"/>
          <path class="cls-6" d="M200.2 231c22.8 13.3 59.9 13.2 82.8 0s23-34.6.3-47.8-59.9-13-82.8.2-23 34.5-.3 47.7z"/>
        </g>
        <path class="cls-15" d="M358.4 197.3l-213.7 2.9-78.9 45.5 114 65.8h38l171.9-99.2-31.3-15z"/>
        <g>
          <path fill="#e7dfd9" d="M85.3 78.7L174.8 27l3.4-2 132.5-13.7L371.5 0v172.7l-74.8-50.3-29.4-56.2V45L165 95.4 85.4 78.6z"/>
          <path class="cls-6" d="M371.5 172.7l31.2 18V15L371.5 0v172.7z"/>
          <path class="cls-20" d="M230.8 269.6l172-99.3V15l-172 99.2v155.4z"/>
          <path class="cls-19" d="M247.2 248.9l139.2-80.4V38.8L247.2 119V249z"/>
          <path class="cls-7" d="M377.5 164.3l8.9 4.2L247.2 249v-9.4l62.2-63 68-12.2z"/>
          <path d="M247.2 239.5s81.7-37.6 130.3-75.2c9.6-43.6 0-119.2 0-119.2l-130.3 75.2z" fill="#565e64"/>
          <path class="cls-6" d="M402.7 170.3v20.5L354 219l-1 .6-72.2 41.6-1 .6-48.9 28.2v-20.4l172-99.3z"/>
          <path class="cls-2" d="M353.9 205v14l-1 .6v-12.7l-72.2 41.7v12.6l-1 .6v-14l74.2-42.9z"/>
          <g>
            <path class="cls-4" d="M199.6 272l31.2 18V114.2l-31.2-15V272z"/>
            <path class="cls-3" d="M199.6 99.3l-34.4-4-80-16.6v105.6l47.7 40.2 43.3 21.3 23.4 26.2V99.2z"/>
          </g>
          <path class="cls-7" d="M371.5 0l-172 99.3 31.3 15 172-99.3-31.3-15z"/>
          <path class="cls-24" d="M371.5 0l-60.8 11.3-145.5 84 34.4 4L371.5 0z"/>
        </g>
        <g>
          <path class="cls-15" d="M395.2 267.3l12.6-7.2 3-5.4-12.5-1.2-3 5.3v8.5zM377.5 277.6l12.6-7.3 3-5.3-3-3.2-9.5 2-3.1 5.3v8.5z"/>
          <path class="cls-9" d="M398.3 262l16-14-3.4-1.8-12.6 7.3v8.5zM380.6 272.3l16-14-3.5-1.8-12.5 7.2v8.6z"/>
          <path class="cls-6" d="M401.7 263.9l12.6-7.3v-8.5l-12.6 7.3v8.5zM384 274.1l12.6-7.3v-8.5l-12.6 7.3v8.5z"/>
          <path class="cls-4" d="M401.7 264l-3.4-2v-8.5l3.4 2v8.5zM384 274.1l-3.4-2v-8.5l3.4 2v8.5z"/>
        </g>
        <path class="cls-17" d="M276 257.4l-6 3.5v2.5l6-3.5v-2.4z"/>
        <g>
          <path class="cls-2" d="M265 270.3L230.8 290v-15l34.1-19.7v15z"/>
          <path class="cls-25" d="M235.3 274.2a1.6 1.6 0 01-.8 1.3c-.4.3-.7 0-.7-.4a1.6 1.6 0 01.7-1.3c.4-.2.8 0 .8.4zM238.9 272.1a1.7 1.7 0 01-.8 1.3c-.4.3-.7 0-.7-.4a1.7 1.7 0 01.8-1.3c.4-.2.7 0 .7.4zM242.5 270a1.6 1.6 0 01-.7 1.3c-.4.2-.8 0-.8-.4a1.6 1.6 0 01.8-1.3c.4-.2.7 0 .7.4zM246.2 268a1.7 1.7 0 01-.8 1.2c-.4.3-.7 0-.7-.4a1.7 1.7 0 01.7-1.3c.4-.2.8 0 .8.4zM249.8 265.8a1.7 1.7 0 01-.8 1.3c-.4.3-.7 0-.7-.4a1.7 1.7 0 01.7-1.3c.4-.2.8 0 .8.4zM253.4 263.8a1.7 1.7 0 01-.7 1.2c-.4.3-.8 0-.8-.4a1.7 1.7 0 01.8-1.3c.4-.2.7 0 .7.4zM257 261.6a1.7 1.7 0 01-.7 1.3c-.4.3-.8 0-.8-.4a1.7 1.7 0 01.8-1.3c.4-.2.8 0 .8.4zM260.7 259.6a1.6 1.6 0 01-.8 1.2c-.4.3-.7 0-.7-.4a1.6 1.6 0 01.7-1.3c.4-.2.8 0 .8.4zM264.3 257.5a1.7 1.7 0 01-.7 1.2c-.5.3-.8.1-.8-.4a1.7 1.7 0 01.8-1.3c.4-.2.7 0 .7.5zM233.3 277.7a1.7 1.7 0 01-.8 1.3c-.4.2-.7 0-.7-.4a1.6 1.6 0 01.7-1.3c.4-.3.8 0 .8.4zM236.9 275.6a1.6 1.6 0 01-.8 1.3c-.4.2-.7 0-.7-.4a1.6 1.6 0 01.7-1.3c.5-.3.8 0 .8.4zM240.5 273.5a1.7 1.7 0 01-.7 1.3c-.5.2-.8 0-.8-.4a1.6 1.6 0 01.8-1.3c.4-.3.7-.1.7.4zM244.1 271.4a1.6 1.6 0 01-.7 1.3c-.4.2-.8 0-.8-.4a1.7 1.7 0 01.8-1.3c.4-.3.7 0 .7.4zM247.8 269.3a1.6 1.6 0 01-.8 1.3c-.4.2-.7 0-.7-.4a1.6 1.6 0 01.7-1.3c.4-.3.8 0 .8.4zM251.4 267.2a1.6 1.6 0 01-.8 1.3c-.4.3-.7 0-.7-.4a1.7 1.7 0 01.7-1.3c.5-.3.8 0 .8.4zM255 265.1a1.6 1.6 0 01-.8 1.3c-.4.3-.7 0-.7-.4a1.6 1.6 0 01.7-1.3c.5-.2.8 0 .8.4zM258.7 263a1.7 1.7 0 01-.8 1.3c-.4.2-.7 0-.7-.4a1.6 1.6 0 01.7-1.3c.4-.2.8 0 .8.4zM262.3 261a1.7 1.7 0 01-.7 1.2c-.5.3-.8 0-.8-.4a1.6 1.6 0 01.8-1.3c.4-.2.7 0 .7.4zM235.3 278.9a1.7 1.7 0 01-.8 1.3c-.4.2-.7 0-.7-.5a1.7 1.7 0 01.7-1.3c.4-.2.8 0 .8.5zM238.9 276.8a1.7 1.7 0 01-.8 1.3c-.4.2-.7 0-.7-.5a1.7 1.7 0 01.8-1.3c.4-.2.7 0 .7.5zM242.5 274.7a1.6 1.6 0 01-.7 1.3c-.4.2-.8 0-.8-.5a1.6 1.6 0 01.8-1.2c.4-.3.7-.1.7.4zM246.2 272.6a1.7 1.7 0 01-.8 1.3c-.4.2-.7 0-.7-.5a1.7 1.7 0 01.7-1.2c.4-.3.8-.1.8.4zM249.8 270.5a1.6 1.6 0 01-.8 1.3c-.4.2-.7 0-.7-.4a1.6 1.6 0 01.7-1.3c.4-.3.8-.1.8.4zM253.4 268.4a1.7 1.7 0 01-.7 1.3c-.4.2-.8 0-.8-.4a1.7 1.7 0 01.8-1.3c.4-.3.7 0 .7.4zM257 266.3a1.6 1.6 0 01-.7 1.3c-.4.2-.8 0-.8-.4a1.6 1.6 0 01.8-1.3c.4-.3.8 0 .8.4zM260.7 264.2a1.7 1.7 0 01-.8 1.3c-.4.2-.7 0-.7-.4a1.7 1.7 0 01.7-1.3c.4-.3.8 0 .8.4zM264.3 262.1a1.7 1.7 0 01-.7 1.3c-.5.2-.8 0-.8-.4a1.7 1.7 0 01.8-1.3c.4-.3.7 0 .7.4zM233.3 282.3a1.7 1.7 0 01-.8 1.3c-.4.3-.7 0-.7-.4a1.6 1.6 0 01.7-1.3c.4-.2.8 0 .8.4zM236.9 280.2a1.6 1.6 0 01-.8 1.3c-.4.3-.7 0-.7-.4a1.6 1.6 0 01.7-1.3c.5-.2.8 0 .8.4zM240.5 278.1a1.7 1.7 0 01-.7 1.3c-.5.3-.8 0-.8-.4a1.6 1.6 0 01.8-1.3c.4-.2.7 0 .7.4zM244.1 276a1.6 1.6 0 01-.7 1.3c-.4.3-.8 0-.8-.4a1.7 1.7 0 01.8-1.3c.4-.2.7 0 .7.4zM247.8 274a1.6 1.6 0 01-.8 1.3c-.4.2-.7 0-.7-.4a1.7 1.7 0 01.7-1.3c.4-.3.8-.1.8.4zM251.4 271.9a1.6 1.6 0 01-.8 1.3c-.4.2-.7 0-.7-.5a1.7 1.7 0 01.7-1.3c.5-.2.8 0 .8.5zM255 269.8a1.6 1.6 0 01-.8 1.3c-.4.2-.7 0-.7-.5a1.6 1.6 0 01.7-1.3c.5-.2.8 0 .8.5zM258.7 267.7a1.7 1.7 0 01-.8 1.3c-.4.2-.7 0-.7-.5a1.6 1.6 0 01.7-1.3c.4-.2.8 0 .8.5zM262.3 265.6a1.6 1.6 0 01-.7 1.3c-.5.2-.8 0-.8-.5a1.6 1.6 0 01.8-1.2c.4-.3.7-.1.7.4zM235.3 283.5a1.7 1.7 0 01-.8 1.3c-.4.2-.7 0-.7-.4a1.7 1.7 0 01.7-1.3c.4-.3.8-.1.8.4zM238.9 281.4a1.6 1.6 0 01-.8 1.3c-.4.2-.7 0-.7-.4a1.6 1.6 0 01.8-1.3c.4-.3.7 0 .7.4zM242.5 279.3a1.7 1.7 0 01-.7 1.3c-.4.2-.8 0-.8-.4a1.7 1.7 0 01.8-1.3c.4-.3.7 0 .7.4zM246.2 277.2a1.7 1.7 0 01-.8 1.3c-.4.3-.7 0-.7-.4a1.7 1.7 0 01.7-1.3c.4-.2.8 0 .8.4zM249.8 275.1a1.6 1.6 0 01-.8 1.3c-.4.3-.7 0-.7-.4a1.6 1.6 0 01.7-1.3c.4-.2.8 0 .8.4zM253.4 273a1.7 1.7 0 01-.7 1.3c-.4.2-.8 0-.8-.4a1.7 1.7 0 01.8-1.3c.4-.2.7 0 .7.4zM257 271a1.6 1.6 0 01-.7 1.2c-.4.3-.8 0-.8-.4a1.6 1.6 0 01.8-1.3c.4-.2.8 0 .8.4zM260.7 268.8a1.7 1.7 0 01-.8 1.3c-.4.3-.7 0-.7-.4a1.7 1.7 0 01.7-1.3c.4-.2.8 0 .8.4zM264.3 266.7a1.6 1.6 0 01-.7 1.3c-.5.3-.8 0-.8-.4a1.6 1.6 0 01.8-1.3c.4-.2.7 0 .7.4zM233.3 287a1.6 1.6 0 01-.8 1.3c-.4.2-.7 0-.7-.4a1.6 1.6 0 01.7-1.3c.4-.3.8 0 .8.4zM236.9 284.9a1.7 1.7 0 01-.8 1.3c-.4.2-.7 0-.7-.4a1.6 1.6 0 01.7-1.3c.5-.3.8 0 .8.4zM240.5 282.8a1.7 1.7 0 01-.7 1.3c-.5.2-.8 0-.8-.4a1.6 1.6 0 01.8-1.3c.4-.3.7 0 .7.4zM244.1 280.7a1.6 1.6 0 01-.7 1.3c-.4.2-.8 0-.8-.4a1.6 1.6 0 01.8-1.3c.4-.3.7 0 .7.4zM247.8 278.6a1.6 1.6 0 01-.8 1.3c-.4.2-.7 0-.7-.4a1.7 1.7 0 01.7-1.3c.4-.3.8 0 .8.4zM251.4 276.5a1.6 1.6 0 01-.8 1.3c-.4.2-.7 0-.7-.4a1.6 1.6 0 01.7-1.3c.5-.3.8-.1.8.4zM255 274.4a1.6 1.6 0 01-.8 1.3c-.4.2-.7 0-.7-.4a1.7 1.7 0 01.7-1.3c.5-.3.8 0 .8.4zM258.7 272.3a1.7 1.7 0 01-.8 1.3c-.4.2-.7 0-.7-.4a1.6 1.6 0 01.7-1.3c.4-.3.8 0 .8.4zM262.3 270.2a1.7 1.7 0 01-.7 1.3c-.5.2-.8 0-.8-.4a1.6 1.6 0 01.8-1.3c.4-.3.7 0 .7.4z"/>
        </g>
        <g>
          <path class="cls-2" d="M402.7 190.8l-34.1 19.7v-15l34.1-19.8v15z"/>
          <path class="cls-25" d="M398.7 179.9c0 .4.3.6.7.4a1.6 1.6 0 00.8-1.3c0-.5-.4-.7-.8-.4a1.7 1.7 0 00-.7 1.3zM395 182c0 .5.4.7.8.4a1.7 1.7 0 00.8-1.3c0-.4-.4-.6-.8-.4a1.7 1.7 0 00-.8 1.3zM391.4 184c0 .5.4.7.8.5a1.6 1.6 0 00.7-1.3c0-.5-.3-.7-.7-.4a1.6 1.6 0 00-.8 1.3zM387.8 186.2c0 .4.3.6.7.4a1.6 1.6 0 00.8-1.3c0-.5-.3-.7-.8-.4a1.7 1.7 0 00-.7 1.3zM384.2 188.3c0 .4.3.6.7.4a1.6 1.6 0 00.8-1.3c0-.5-.4-.7-.8-.4a1.6 1.6 0 00-.7 1.3zM380.5 190.3c0 .5.4.7.8.5a1.7 1.7 0 00.7-1.3c0-.5-.3-.7-.7-.4a1.7 1.7 0 00-.8 1.3zM376.9 192.4c0 .5.3.7.8.5a1.7 1.7 0 00.7-1.3c0-.5-.3-.7-.8-.4a1.6 1.6 0 00-.7 1.3zM373.3 194.5c0 .5.3.7.7.5a1.7 1.7 0 00.8-1.3c0-.5-.4-.7-.8-.4a1.7 1.7 0 00-.7 1.2zM369.6 196.6c0 .5.4.7.8.5a1.7 1.7 0 00.7-1.3c0-.5-.3-.7-.7-.5a1.7 1.7 0 00-.8 1.3zM400.7 181c0 .5.3.7.7.4a1.6 1.6 0 00.8-1.3c0-.4-.3-.6-.8-.4a1.7 1.7 0 00-.7 1.3zM397 183.1c0 .5.4.7.8.4a1.6 1.6 0 00.8-1.3c0-.4-.4-.6-.8-.4a1.6 1.6 0 00-.7 1.3zM393.4 185.2c0 .5.4.7.8.4a1.6 1.6 0 00.7-1.2c0-.5-.3-.7-.7-.5a1.7 1.7 0 00-.8 1.3zM389.8 187.3c0 .5.3.7.8.4a1.7 1.7 0 00.7-1.2c0-.5-.3-.7-.7-.5a1.6 1.6 0 00-.8 1.3zM386.2 189.4c0 .5.3.7.7.4a1.6 1.6 0 00.8-1.3c0-.4-.4-.6-.8-.4a1.6 1.6 0 00-.7 1.3zM382.6 191.5c0 .5.3.7.7.4a1.7 1.7 0 00.7-1.3c0-.4-.3-.6-.7-.4a1.6 1.6 0 00-.8 1.3zM379 193.6c0 .5.3.7.7.4a1.6 1.6 0 00.7-1.3c0-.4-.3-.6-.7-.4a1.6 1.6 0 00-.8 1.3zM375.3 195.7c0 .5.3.7.7.4a1.7 1.7 0 00.8-1.3c0-.4-.3-.6-.8-.4a1.6 1.6 0 00-.7 1.3zM371.7 197.8c0 .5.3.6.7.4a1.7 1.7 0 00.8-1.3c0-.4-.4-.6-.8-.4a1.6 1.6 0 00-.7 1.3zM398.7 184.5c0 .5.3.7.7.4a1.6 1.6 0 00.8-1.3c0-.4-.4-.6-.8-.4a1.6 1.6 0 00-.7 1.3zM395 186.6c0 .5.4.7.8.4a1.7 1.7 0 00.8-1.2c0-.5-.4-.7-.8-.5a1.7 1.7 0 00-.8 1.3zM391.4 188.7c0 .5.4.7.8.4a1.6 1.6 0 00.7-1.3c0-.4-.3-.6-.7-.4a1.6 1.6 0 00-.8 1.3zM387.8 190.8c0 .5.3.7.7.4a1.6 1.6 0 00.8-1.3c0-.4-.3-.6-.8-.4a1.7 1.7 0 00-.7 1.3zM384.2 192.9c0 .5.3.7.7.4a1.7 1.7 0 00.8-1.3c0-.4-.4-.6-.8-.4a1.7 1.7 0 00-.7 1.3zM380.5 195c0 .5.4.7.8.4a1.6 1.6 0 00.7-1.3c0-.4-.3-.6-.7-.4a1.6 1.6 0 00-.8 1.3zM376.9 197c0 .6.3.8.8.5a1.7 1.7 0 00.7-1.3c0-.4-.3-.6-.8-.4a1.7 1.7 0 00-.7 1.3zM373.3 199.2c0 .5.3.7.7.4a1.6 1.6 0 00.8-1.3c0-.5-.4-.6-.8-.4a1.6 1.6 0 00-.7 1.3zM369.6 201.3c0 .5.4.6.8.4a1.7 1.7 0 00.7-1.3c0-.5-.3-.6-.7-.4a1.7 1.7 0 00-.8 1.3zM400.7 185.7c0 .4.3.6.7.4a1.6 1.6 0 00.8-1.3c0-.5-.3-.7-.8-.4a1.6 1.6 0 00-.7 1.3zM397 187.8c0 .4.4.6.8.4a1.6 1.6 0 00.8-1.3c0-.5-.4-.7-.8-.4a1.7 1.7 0 00-.7 1.3zM393.4 189.9c0 .4.4.6.8.4a1.6 1.6 0 00.7-1.3c0-.5-.3-.7-.7-.4a1.6 1.6 0 00-.8 1.3zM389.8 192c0 .5.3.7.8.4a1.7 1.7 0 00.7-1.3c0-.4-.3-.6-.7-.4a1.6 1.6 0 00-.8 1.3zM386.2 194c0 .5.3.7.7.5a1.6 1.6 0 00.8-1.3c0-.5-.4-.7-.8-.4a1.6 1.6 0 00-.7 1.3zM382.6 196.1c0 .5.3.7.7.5a1.7 1.7 0 00.7-1.3c0-.5-.3-.7-.7-.5a1.6 1.6 0 00-.8 1.3zM379 198.2c0 .5.3.7.7.5a1.7 1.7 0 00.7-1.3c0-.5-.3-.7-.7-.4a1.6 1.6 0 00-.8 1.2zM375.3 200.3c0 .5.3.7.7.5a1.6 1.6 0 00.8-1.3c0-.5-.3-.7-.8-.5a1.6 1.6 0 00-.7 1.3zM371.7 202.4c0 .5.3.7.7.5a1.7 1.7 0 00.8-1.3c0-.5-.4-.7-.8-.5a1.6 1.6 0 00-.7 1.3zM398.7 189.2c0 .4.3.6.7.4a1.7 1.7 0 00.8-1.3c0-.5-.4-.7-.8-.4a1.7 1.7 0 00-.7 1.3zM395 191.3c0 .4.4.6.8.4a1.6 1.6 0 00.8-1.3c0-.5-.4-.7-.8-.4a1.7 1.7 0 00-.8 1.3zM391.4 193.3c0 .5.4.7.8.5a1.7 1.7 0 00.7-1.3c0-.5-.3-.7-.7-.4a1.7 1.7 0 00-.8 1.3zM387.8 195.4c0 .5.3.7.7.5a1.6 1.6 0 00.8-1.3c0-.5-.3-.7-.8-.4a1.6 1.6 0 00-.7 1.3zM384.2 197.5c0 .5.3.7.7.5a1.7 1.7 0 00.8-1.3c0-.5-.4-.7-.8-.4a1.7 1.7 0 00-.7 1.2zM380.5 199.6c0 .5.4.7.8.5a1.6 1.6 0 00.7-1.3c0-.5-.3-.7-.7-.5a1.6 1.6 0 00-.8 1.3zM376.9 201.7c0 .5.3.7.8.5a1.7 1.7 0 00.7-1.3c0-.5-.3-.7-.8-.5a1.7 1.7 0 00-.7 1.3zM373.3 203.8c0 .5.3.7.7.5a1.7 1.7 0 00.8-1.3c0-.5-.4-.7-.8-.5a1.6 1.6 0 00-.7 1.3zM369.6 206c0 .4.4.6.8.3a1.7 1.7 0 00.7-1.2c0-.5-.3-.7-.7-.5a1.7 1.7 0 00-.8 1.3zM400.7 190.3c0 .5.3.7.7.4a1.6 1.6 0 00.8-1.3c0-.4-.3-.6-.8-.4a1.6 1.6 0 00-.7 1.3zM397 192.4c0 .5.4.7.8.4a1.6 1.6 0 00.8-1.3c0-.4-.4-.6-.8-.4a1.7 1.7 0 00-.7 1.3zM393.4 194.5c0 .5.4.7.8.4a1.6 1.6 0 00.7-1.3c0-.4-.3-.6-.7-.4a1.6 1.6 0 00-.8 1.3zM389.8 196.6c0 .5.3.7.8.4a1.7 1.7 0 00.7-1.3c0-.4-.3-.6-.7-.4a1.6 1.6 0 00-.8 1.3zM386.2 198.7c0 .5.3.7.7.4a1.7 1.7 0 00.8-1.3c0-.4-.4-.6-.8-.4a1.6 1.6 0 00-.7 1.3zM382.6 200.8c0 .5.3.6.7.4a1.6 1.6 0 00.7-1.3c0-.5-.3-.6-.7-.4a1.6 1.6 0 00-.8 1.3zM379 202.9c0 .5.3.6.7.4a1.7 1.7 0 00.7-1.3c0-.5-.3-.6-.7-.4a1.6 1.6 0 00-.8 1.3zM375.3 205c0 .5.3.7.7.4a1.6 1.6 0 00.8-1.3c0-.4-.3-.6-.8-.4a1.6 1.6 0 00-.7 1.3zM371.7 207c0 .5.3.7.7.5a1.7 1.7 0 00.8-1.3c0-.5-.4-.7-.8-.4a1.6 1.6 0 00-.7 1.3z"/>
        </g>
        <path d="M377.5 164.3c9.6-43.6 0-119.2 0-119.2h-.3l-.2.2-.3.2-.3.2h-.2l-.3.3-.6.3-.7.4-.3.1-2.3 1.4-.3.2c9 38.3 2.4 103.2 2.4 103.2s-66 58.7-126.9 71.3v16.6s81.7-37.6 130.3-75.2z" fill="#d6d7db"/>
        <path class="cls-17" d="M266.4 120.6l-12 7v3.5l12-7v-3.5z"/>
      </g>
      <g>
        <path class="cls-1" d="M521.4 286l-12.6 7.2-1.2-18.8-35.4 20.5 13.8 11.5 39.7 19.3h23.7l-28-39.8z"/>
        <path class="cls-24" d="M515.8 282.6l32.6-18.8-22.4-6-32.6 18.7 22.4 6.1z"/>
        <path class="cls-6" d="M547.7 319.1l32.6-18.8.5-10.3-32.6 18.8-.5 10.3z"/>
        <path class="cls-4" d="M547.7 320l32.6-18.9v-.8l-32.6 18.8v.8z"/>
        <path class="cls-2" d="M547.7 320l32.6-18.9-.2 4.5-32.6 18.9.2-4.6z"/>
        <path class="cls-7" d="M548.2 308.8l32.6-18.8-32.4-26.2-32.6 18.8 32.4 26.2z"/>
        <path class="cls-4" d="M493.4 276.5l1.3 17.5 52.8 30.5.7-15.7-32.4-26.2-22.4-6z"/>
        <path class="cls-3" d="M547.7 320L494.3 289l.4 4.9 52.8 30.5.2-4.6z"/>
        <path class="cls-5" d="M547.7 320L494.3 289v-.9l53.4 31v.7z"/>
        <g>
          <path class="cls-11" d="M535.3 268.6l-.4-2-20.4-5.6.2 3.2 1.5-.8 19 5.2z"/>
          <path class="cls-13" d="M514.5 261l6.6-3.8 20.4 5.6-6.6 3.8-20.4-5.6z"/>
          <path class="cls-10" d="M535.3 268.6l6.6-3.8-.4-2-6.6 3.8.4 2z"/>
          <g>
            <path class="cls-11" d="M525.5 274.3l-.4-2-20.5-5.6.3 3.2 1.5-.9 19 5.3z"/>
            <path class="cls-13" d="M504.6 266.7l6.6-3.8 20.5 5.5-6.6 3.8-20.5-5.5z"/>
            <path class="cls-10" d="M525.5 274.3l6.6-3.9-.4-2-6.6 3.8.4 2z"/>
          </g>
          <g>
            <path class="cls-11" d="M515.6 280l-.4-2-20.4-5.7.3 3.3 1.5-.9 19 5.2z"/>
            <path class="cls-13" d="M494.8 272.3l6.6-3.8 20.4 5.6-6.6 3.8-20.4-5.6z"/>
            <path class="cls-10" d="M515.6 280l6.6-3.9-.4-2-6.6 3.8.4 2z"/>
          </g>
        </g>
      </g>
      <g>
        <path class="cls-1" d="M542.3 481.7H535L474.7 447l55-31.7 15.7.1-3 66.3z"/>
        <path fill="#203463" d="M605 445.5l-62.7 36.2-60-34.7v-3l122.7-1.4v3z"/>
        <path fill="#3757a4" d="M605 442.6l-62.7 36.2-60-34.7 54.8-31.8 15.8.2 52.1 30z"/>
        <path d="M550.9 430.4l-33.7 19.5a7.7 7.7 0 01-7 .2L491 439l41-23.7 19.4 11.1c1.8 1 1.5 2.8-.5 4z" fill="#26377f"/>
        <path class="cls-30" d="M545.3 433.6l-28.1 16.2a7.7 7.7 0 01-7 .3L491 439l35.5-20.5 19.3 11.1c1.7 1 1.5 2.9-.5 4z"/>
        <path class="cls-31" d="M524.6 443.3l-6 3.5a2.7 2.7 0 01-2.5 0l-17-9.7c-.6-.4-.6-1 .2-1.4l6-3.5a2.7 2.7 0 012.5-.1l17 9.8c.6.3.5 1-.2 1.4z"/>
        <path class="cls-9" d="M590 446l-42.7 24.7a8 8 0 01-7.2.3l-21.5-12.4c-1.8-1-1.6-3 .5-4.2l42.8-24.7a8 8 0 017.2-.3l21.5 12.4c1.8 1 1.6 3-.6 4.2z"/>
        <path class="cls-32" d="M587.2 439.9L536.8 469l3.3 2a8 8 0 007.2-.4l42.8-24.6c2-1.2 2.3-3.1.5-4.2z"/>
      </g>
      <g>
        <path class="cls-1" d="M136.8 510.3h-7.5l-60.1-34.7 54.9-31.7 15.7.1-3 66.3z"/>
        <path fill="#651718" d="M199.4 474.1l-62.6 36.2-60.1-34.7v-3l122.7-1.4v2.9z"/>
        <path fill="#b83631" d="M199.4 471.2l-62.6 36.2-60.1-34.8 54.9-31.7 15.7.2 52.1 30z"/>
        <path d="M145.3 459l-33.7 19.5a7.7 7.7 0 01-6.9.2l-19.3-11.1 41.1-23.7 19.3 11.1c1.8 1 1.6 2.8-.5 4z" fill="#872720"/>
        <path class="cls-30" d="M139.7 462.2l-28 16.2a7.7 7.7 0 01-7 .3l-19.3-11.1L121 447l19.3 11.1c1.8 1 1.5 2.9-.5 4z"/>
        <path class="cls-31" d="M119 471.9l-6 3.5a2.7 2.7 0 01-2.4 0l-17-9.7c-.7-.4-.6-1 .1-1.4l6.1-3.5a2.7 2.7 0 012.5-.1l17 9.8c.5.3.5 1-.3 1.4z"/>
        <path class="cls-9" d="M184.5 474.5l-42.8 24.7a8 8 0 01-7.2.3l-21.4-12.4c-1.9-1-1.7-3 .5-4.1l42.7-24.7a8 8 0 017.2-.3l21.5 12.4c1.8 1 1.6 3-.5 4.1z"/>
        <path class="cls-32" d="M181.7 468.4l-50.5 29.2 3.3 2a8 8 0 007.2-.4l42.8-24.7c2.1-1.2 2.3-3 .5-4.1z"/>
      </g>
      <g>
        <path class="cls-1" d="M131 537.4h-7.5l-60.1-34.7 55-31.7 15.6.1-3 66.3z"/>
        <path fill="#020203" d="M193.7 501.2L131 537.4l-60.1-34.7v-3l122.8-1.4v3z"/>
        <path fill="#555454" d="M193.7 498.3L131 534.5l-60.1-34.7 54.9-31.7 15.7.1 52.2 30.1z"/>
        <path d="M139.5 486.1l-33.7 19.5a7.7 7.7 0 01-6.9.3l-19.3-11.2 41.1-23.7 19.3 11.1c1.8 1 1.6 2.8-.5 4z" fill="#202121"/>
        <path class="cls-30" d="M134 489.4l-28.2 16.2a7.7 7.7 0 01-6.9.3l-19.3-11.2 35.5-20.5 19.3 11.2c1.8 1 1.6 2.8-.5 4z"/>
        <path class="cls-31" d="M113.3 499l-6.1 3.5a2.7 2.7 0 01-2.5.1l-17-9.8c-.6-.3-.5-1 .2-1.4L94 488a2.7 2.7 0 012.5 0l17 9.7c.6.4.5 1-.2 1.4z"/>
        <path class="cls-9" d="M178.7 501.7L136 526.3a8 8 0 01-7.2.3l-21.5-12.4c-1.8-1-1.6-2.9.5-4.1l42.8-24.7a8 8 0 017.2-.3l21.5 12.4c1.8 1 1.5 3-.6 4.2z"/>
        <path class="cls-32" d="M175.9 495.6l-50.5 29.1 3.4 2a8 8 0 007.2-.4l42.7-24.6c2.1-1.3 2.4-3.1.5-4.2z"/>
      </g>
    </g>
  </g>
</svg>
