<?xml version="1.0" encoding="UTF-8"?>
<!-- Generator: Adobe Illustrator 24.2.0, SVG Export Plug-In . SVG Version: 6.00 Build 0)  -->
<svg version="1.1" id="button_x5F_help" xmlns="http://www.w3.org/2000/svg" xmlns:xlink="http://www.w3.org/1999/xlink" x="0px" y="0px" viewBox="0 0 80 80" style="enable-background:new 0 0 80 80;" xml:space="preserve">
<style type="text/css">
	.st0{fill-rule:evenodd;clip-rule:evenodd;fill:#1C1C1C;}
	.st1{fill:none;}
	.st2{fill:#FFFFFF;}
</style>
<path id="circle" class="st0" d="M40.00167,80.00002C17.91259,80.00002,0,62.0926,0,40.00168S17.91259,0.00002,40.00167,0.00002  S80,17.91076,80,40.00168S62.09075,80.00002,40.00167,80.00002z"/>
<g id="question">
	<polygon id="Shape" class="st1" points="18,18.00002 62,18.00002 62,62.00002 18,62.00002  "/>
	<path id="Path" class="st2" d="M40.84328,46.4706V43.341c0.05484-0.45001,0.2571-0.85911,0.60674-1.2273   c0.34965-0.36819,0.76786-0.73638,1.25463-1.10457c0.48676-0.36819,1.01124-0.76024,1.57343-1.17616   c0.56218-0.41592,1.0798-0.90683,1.55286-1.47276c0.47306-0.56592,0.86385-1.22389,1.17236-1.9739   c0.30852-0.75002,0.46278-1.64322,0.46278-2.6796c0-1.02275-0.19196-1.94322-0.5759-2.76142   c-0.38393-0.8182-0.91183-1.51367-1.58371-2.08641c-0.67188-0.57274-1.47059-1.01593-2.39613-1.32957   s-1.92993-0.47046-3.01316-0.47046c-0.82271,0-1.58714,0.07841-2.2933,0.23523c-0.70615,0.15682-1.36432,0.3716-1.97449,0.64433   c-0.61018,0.27273-1.17236,0.58638-1.68655,0.94093c-0.51419,0.35455-0.98382,0.72956-1.40889,1.12502l1.76882,2.20607   c0.80899-0.62524,1.35061-1.01968,1.62484-1.18332c0.41135-0.24546,0.91526-0.47046,1.51172-0.67501   c0.59647-0.20455,1.3129-0.30683,2.14932-0.30683c0.61703,0,1.19635,0.08864,1.73797,0.26591s1.01125,0.43296,1.40889,0.76706   c0.39764,0.3341,0.71301,0.73979,0.94611,1.21707c0.2331,0.47728,0.34966,1.00911,0.34966,1.59549   c0,0.8182-0.15426,1.5273-0.46278,2.12732c-0.30851,0.60001-0.6993,1.13525-1.17236,1.60571   c-0.47306,0.47047-0.98039,0.90002-1.52201,1.28867s-1.04895,0.77729-1.52201,1.16593   c-0.47306,0.38865-0.86385,0.80456-1.17236,1.24775c-0.30852,0.44319-0.46278,0.95116-0.46278,1.5239v0.22501v3.39552H40.84328z"/>
	<path id="Path_1_" class="st2" d="M39.37103,52.94119c0.27026,0,0.52493-0.04898,0.764-0.14694s0.44696-0.23459,0.62367-0.40989   c0.1767-0.1753,0.31443-0.37896,0.41318-0.61097c0.09875-0.23201,0.14812-0.48723,0.14812-0.76564   c0-0.2681-0.04937-0.52074-0.14812-0.75791c-0.09875-0.23717-0.23648-0.4434-0.41318-0.6187   c-0.17671-0.1753-0.3846-0.31451-0.62367-0.41762c-0.23907-0.10312-0.49374-0.15468-0.764-0.15468   c-0.27026,0-0.52492,0.05156-0.76399,0.15468c-0.23907,0.10312-0.44437,0.24232-0.61588,0.41762   c-0.17151,0.1753-0.30664,0.38153-0.40539,0.6187s-0.14812,0.4898-0.14812,0.75791c0,0.27842,0.04938,0.53363,0.14812,0.76564   s0.23388,0.43567,0.40539,0.61097c0.17151,0.1753,0.3768,0.31193,0.61588,0.40989   C38.8461,52.89221,39.10077,52.94119,39.37103,52.94119z"/>
</g>
</svg>