<?xml version="1.0" encoding="UTF-8"?>
<!-- Generator: Adobe Illustrator 24.1.3, SVG Export Plug-In . SVG Version: 6.00 Build 0)  -->
<svg version="1.1" id="Ebene_1" xmlns="http://www.w3.org/2000/svg" xmlns:xlink="http://www.w3.org/1999/xlink" x="0px" y="0px" viewBox="0 0 80 80" style="enable-background:new 0 0 80 80;" xml:space="preserve">
<style type="text/css">
	.st0{fill-rule:evenodd;clip-rule:evenodd;fill:#D8D8D8;}
	.st1{fill:none;}
	.st2{fill-rule:evenodd;clip-rule:evenodd;fill:#313131;}
</style>
<g>
	<path id="icon_map" class="st0" d="M40.00167,80C17.91259,80,0,62.09259,0,40.00167S17.91259,0,40.00167,0S80,17.91075,80,40.00167   S62.09075,80,40.00167,80z"/>
	<g id="ic_insert_emoticon_24px" transform="translate(0.000000, 25.000000)">
		<g id="Group">
			<polygon id="Shape" class="st1" points="10,10 40,10 40,40 10,40    "/>
			<path id="Shape_1_" class="st2" d="M24.9875,12.5C18.0875,12.5,12.5,18.1,12.5,25s5.5875,12.5,12.4875,12.5     C31.9,37.5,37.5,31.9,37.5,25S31.9,12.5,24.9875,12.5L24.9875,12.5z M25,35c-5.525,0-10-4.475-10-10s4.475-10,10-10     s10,4.475,10,10S30.525,35,25,35L25,35z M29.375,23.75c1.0375,0,1.875-0.8375,1.875-1.875S30.4125,20,29.375,20     S27.5,20.8375,27.5,21.875S28.3375,23.75,29.375,23.75L29.375,23.75z M20.625,23.75c1.0375,0,1.875-0.8375,1.875-1.875     S21.6625,20,20.625,20s-1.875,0.8375-1.875,1.875S19.5875,23.75,20.625,23.75L20.625,23.75z M25,31.875     c2.9125,0,5.3875-1.825,6.3875-4.375h-12.775C19.6125,30.05,22.0875,31.875,25,31.875L25,31.875z"/>
		</g>
	</g>
	<g id="ic_insert_emoticon_24px_1_" transform="translate(30.000000, 25.000000)">
		<g id="Group_1_">
			<polygon id="Shape_2_" class="st1" points="10,10 40,10 40,40 10,40    "/>
			<path id="Shape_3_" class="st2" d="M24.9875,12.5C18.0875,12.5,12.5,18.1,12.5,25s5.5875,12.5,12.4875,12.5     C31.9,37.5,37.5,31.9,37.5,25S31.9,12.5,24.9875,12.5L24.9875,12.5z M25,35c-5.525,0-10-4.475-10-10s4.475-10,10-10     s10,4.475,10,10S30.525,35,25,35L25,35z M29.375,23.75c1.0375,0,1.875-0.8375,1.875-1.875S30.4125,20,29.375,20     S27.5,20.8375,27.5,21.875S28.3375,23.75,29.375,23.75L29.375,23.75z M20.625,23.75c1.0375,0,1.875-0.8375,1.875-1.875     S21.6625,20,20.625,20s-1.875,0.8375-1.875,1.875S19.5875,23.75,20.625,23.75L20.625,23.75z M25,31.875     c2.9125,0,5.3875-1.825,6.3875-4.375h-12.775C19.6125,30.05,22.0875,31.875,25,31.875L25,31.875z"/>
		</g>
	</g>
	<g id="ic_insert_emoticon_24px_2_" transform="translate(15.000000, 0.000000)">
		<g id="Group_2_">
			<polygon id="Shape_4_" class="st1" points="10,10 40,10 40,40 10,40    "/>
			<path id="Shape_5_" class="st2" d="M24.9875,12.5C18.0875,12.5,12.5,18.1,12.5,25s5.5875,12.5,12.4875,12.5     C31.9,37.5,37.5,31.9,37.5,25S31.9,12.5,24.9875,12.5L24.9875,12.5z M25,35c-5.525,0-10-4.475-10-10s4.475-10,10-10     s10,4.475,10,10S30.525,35,25,35L25,35z M29.375,23.75c1.0375,0,1.875-0.8375,1.875-1.875S30.4125,20,29.375,20     S27.5,20.8375,27.5,21.875S28.3375,23.75,29.375,23.75L29.375,23.75z M20.625,23.75c1.0375,0,1.875-0.8375,1.875-1.875     S21.6625,20,20.625,20s-1.875,0.8375-1.875,1.875S19.5875,23.75,20.625,23.75L20.625,23.75z M25,31.875     c2.9125,0,5.3875-1.825,6.3875-4.375h-12.775C19.6125,30.05,22.0875,31.875,25,31.875L25,31.875z"/>
		</g>
	</g>
</g>
</svg>