<?xml version="1.0" encoding="UTF-8"?>
<!-- Generator: Adobe Illustrator 24.1.3, SVG Export Plug-In . SVG Version: 6.00 Build 0)  -->
<svg version="1.1" id="Ebene_1" xmlns="http://www.w3.org/2000/svg" xmlns:xlink="http://www.w3.org/1999/xlink" x="0px" y="0px" viewBox="0 0 80 80" style="enable-background:new 0 0 80 80;" xml:space="preserve">
<style type="text/css">
	.st0{fill-rule:evenodd;clip-rule:evenodd;fill:#D8D8D8;}
	.st1{fill:none;}
	.st2{fill-rule:evenodd;clip-rule:evenodd;fill:#313131;}
</style>
<g>
	<path id="icon_map_2_" class="st0" d="M40.00167,80C17.91259,80,0,62.09259,0,40.00167S17.91259,0,40.00167,0   S80,17.91075,80,40.00167S62.09075,80,40.00167,80z"/>
	<g id="Group_4_">
		<path id="Shape_8_" class="st1" d="M13,13v54h54V13H13L13,13z M64.75,49c0,2.475-2.025,4.5-4.5,4.5h-40.5    c-2.475,0-4.5-2.025-4.5-4.5V31c0-2.475,2.025-4.5,4.5-4.5h40.5c2.475,0,4.5,2.025,4.5,4.5V49L64.75,49z"/>
		<path id="Shape_9_" class="st2" d="M60.25,26.5h-40.5c-2.475,0-4.5,2.025-4.5,4.5v18c0,2.475,2.025,4.5,4.5,4.5h40.5    c2.475,0,4.5-2.025,4.5-4.5V31C64.75,28.525,62.725,26.5,60.25,26.5L60.25,26.5z M37.75,42.25H31V49h-4.5v-6.75h-6.75v-4.5h6.75    V31H31v6.75h6.75V42.25L37.75,42.25z M47.875,46.75c-1.8675,0-3.375-1.5075-3.375-3.375S46.0075,40,47.875,40    s3.375,1.5075,3.375,3.375S49.7425,46.75,47.875,46.75L47.875,46.75z M56.875,40c-1.8675,0-3.375-1.5075-3.375-3.375    s1.5075-3.375,3.375-3.375s3.375,1.5075,3.375,3.375S58.7425,40,56.875,40L56.875,40z"/>
	</g>
</g>
</svg>