<?xml version="1.0" encoding="UTF-8"?>
<!-- Generator: Adobe Illustrator 24.1.3, SVG Export Plug-In . SVG Version: 6.00 Build 0)  -->
<svg version="1.1" id="Ebene_1" xmlns="http://www.w3.org/2000/svg" xmlns:xlink="http://www.w3.org/1999/xlink" x="0px" y="0px" viewBox="0 0 80 80" style="enable-background:new 0 0 80 80;" xml:space="preserve">
<style type="text/css">
	.st0{fill-rule:evenodd;clip-rule:evenodd;fill:#D8D8D8;}
	.st1{fill:none;}
	.st2{fill-rule:evenodd;clip-rule:evenodd;fill:#313131;}
</style>
<g>
	<path id="icon_map_1_" class="st0" d="M40.00167,80C17.91259,80,0,62.09259,0,40.00167S17.91259,0,40.00167,0   S80,17.91075,80,40.00167S62.09075,80,40.00167,80z"/>
	<g id="Group_3_">
		<polygon id="Shape_6_" class="st1" points="13,13 67,13 67,67 13,67   "/>
		<path id="Shape_7_" class="st2" d="M40,15.25c-11.1825,0-20.25,9.0675-20.25,20.25v15.75c0,3.735,3.015,6.75,6.75,6.75h6.75V40h-9    v-4.5c0-8.7075,7.0425-15.75,15.75-15.75s15.75,7.0425,15.75,15.75V40h-9v18h9v2.25H40v4.5h13.5c3.735,0,6.75-3.015,6.75-6.75    V35.5C60.25,24.3175,51.1825,15.25,40,15.25L40,15.25z"/>
	</g>
</g>
</svg>