<?xml version="1.0" encoding="UTF-8"?>
<!-- Generator: Adobe Illustrator 24.1.3, SVG Export Plug-In . SVG Version: 6.00 Build 0)  -->
<svg version="1.1" id="Ebene_1" xmlns="http://www.w3.org/2000/svg" xmlns:xlink="http://www.w3.org/1999/xlink" x="0px" y="0px" viewBox="0 0 604.58917 205.44293" style="enable-background:new 0 0 604.58917 205.44293;" xml:space="preserve">
<style type="text/css">
	.st0{enable-background:new    ;}
	.st1{fill:#313131;}
</style>
<g class="st0">
	<path class="st1" d="M102.72147,0h36.68623v51.36073h-36.68623c-14.18613,0-26.29259,5.01398-36.31937,15.04077   c-10.02914,10.02914-15.04136,22.13618-15.04136,36.31996c0,14.18613,5.01222,26.29199,15.04136,36.31996   c10.02679,10.02795,22.13324,15.04077,36.31937,15.04077h36.68623v51.36073h-36.68623   c-28.37226,0-52.58517-10.02679-72.63875-30.08272C10.02679,155.30664,0,131.09372,0,102.72147   c0-28.36991,10.02679-52.58282,30.08271-72.63875C50.13629,10.02914,74.34921,0,102.72147,0z"/>
	<path class="st1" d="M309.77859,30.08271c20.05356,20.05593,30.0827,44.26884,30.0827,72.63875   c0,28.37225-10.02914,52.58517-30.0827,72.63875c-20.05594,20.05592-44.26886,30.08272-72.63876,30.08272   c-28.37225,0-52.58517-10.02679-72.63875-30.08272c-20.05592-20.05357-30.08272-44.26649-30.08272-72.63875   c0-28.36991,10.02679-52.58282,30.08272-72.63875C184.55466,10.02914,208.76758,0,237.13983,0   C265.50974,0,289.72266,10.02914,309.77859,30.08271z M273.4592,139.04143c10.02679-10.02797,15.04138-22.13383,15.04138-36.31996   c0-14.18378-5.01459-26.29082-15.04138-36.31996c-10.02911-10.02679-22.13559-15.04077-36.31937-15.04077   c-14.18613,0-26.29259,5.01398-36.31937,15.04077c-10.02914,10.02914-15.04137,22.13618-15.04137,36.31996   c0,14.18613,5.01222,26.29199,15.04137,36.31996c10.02678,10.02795,22.13324,15.04077,36.31937,15.04077   C251.32361,154.0822,263.43008,149.06938,273.4592,139.04143z"/>
	<path class="st1" d="M342.20923,0h51.36072v14.67449c0,20.54429,9.29306,39.62114,27.88153,57.23053l35.5123,33.60459   c11.24887,11.34985,16.87567,25.09338,16.87567,41.23534c0,16.24055-5.72305,30.08272-17.16916,41.52882   s-25.29062,17.16916-41.52884,17.16916h-80.26947V154.0822h80.26947c2.05444,0,3.79013-0.70908,5.20944-2.12721   c1.41699-1.41815,2.12781-3.15561,2.12781-5.21004c0-1.95583-0.63745-3.61815-1.90768-4.98933l-27.00107-25.82711   c-34.24207-31.3048-51.36072-65.05614-51.36072-101.25401V0z"/>
	<path class="st1" d="M457.84424,58.69798V0h51.36072v58.69798c0,6.06702,2.1507,11.25123,6.45679,15.55497   c4.30371,4.30608,9.48792,6.45678,15.55499,6.45678c6.06464,0,11.24884-2.1507,15.55493-6.45678   c4.30371-4.30373,6.45679-9.48795,6.45679-15.55497V0h51.36072v58.69798c0,20.2508-7.1676,37.54322-21.49811,51.87493   c-14.33289,14.3317-31.62354,21.49754-51.87433,21.49754c-20.25082,0-37.54385-7.16585-51.87436-21.49754   C465.00949,96.2412,457.84424,78.94878,457.84424,58.69798z M479.85599,154.0822h102.72147v51.36073H479.85599V154.0822z"/>
</g>
</svg>