<?xml version="1.0" encoding="utf-8"?>
<!-- Generator: Adobe Illustrator 24.1.0, SVG Export Plug-In . SVG Version: 6.00 Build 0)  -->
<svg version="1.1" xmlns="http://www.w3.org/2000/svg" xmlns:xlink="http://www.w3.org/1999/xlink" x="0px" y="0px"
	 viewBox="0 0 1252.84717 1057.94385" style="enable-background:new 0 0 1252.84717 1057.94385;" xml:space="preserve">
<style type="text/css">
	.st0{fill:#202020;}
	.st1{fill:#EEEEEE;}
	.st2{fill:#BDBCBC;}
	.st3{fill:#F9DCC0;}
	.st4{fill:#333333;}
</style>
<g id="background">
	<polygon id="background_2_" class="st0" points="637.90924,221.0999 691.8891,68.80476 774.75952,13.30436 850.40735,8.74268 
		943.16144,51.69847 1013.48724,148.10562 	"/>
	<path id="background_1_" class="st1" d="M1252.84717,338.5928c-52.84412-0.24963-101.39575-22.75128-137.22729-62.42499
		c-22.90186-28.6546-45.56409-62.27472-67.17334-90.25134c0.70837,0.81128,1.31653,1.51941,1.80457,2.10242
		c-15.4613-21.57953-85.84094-119.79585-86.04523-120.08082c-76.73773-97.992-214.71027-83.38531-277.34241,1.7149
		c-37.30408,52.53778-50.15485,141.1109-62.2829,196.05096c-0.53864,1.84229-1.0462,3.58258-1.53174,5.20178
		c-24.17224,77.914-31.62402,120.42145-56.15039,163.27698c-34.0578,51.42169-56.05237,72.86877-116.61182,111.42801
		l-2.28601-4.02716c-0.00122,0.00903-368.96594,198.12079-372.28516,200.53516
		c-27.37524,18.04358-48.58813,43.24371-61.69189,73.16766c-48.51343,113.58093,35.41382,231.07739,150.88672,234.21594h9.28271
		v0.5332v6.45703v1.45129h3.21973h136.92194h3.21967v-1.45129v-6.45703v-0.49207l935.29285,0.28418
		C1252.84717,873.90826,1252.84717,515.2074,1252.84717,338.5928z M654.23401,197.64609
		c13.27368-35.54303,20.2995-81.19166,39.97693-109.64973c50.81512-79.3681,158.7359-93.6568,230.02277-37.48157
		c23.90271,17.92523,48.60901,58.5863,60.83252,73.91278C877.08044,53.02657,722.67651,88.32107,654.23401,197.64609z"/>
	<path id="background_3_" class="st1" d="M1050.2511,188.01889c0.51697,0.72162,0.97534,1.36145,1.36487,1.90515
		C1051.8512,190.01932,1051.34302,189.32333,1050.2511,188.01889z"/>
</g>
<g id="building_spaces">
	<rect id="space_x5F_empty_2_" x="877.22742" y="724.76074" class="st0" width="37.07771" height="90.27975"/>
	<rect id="space_x5F_empty_1_" x="737.42963" y="724.76105" class="st0" width="28.50299" height="90.27945"/>
	<rect id="space_x5F_empty" x="1029.16296" y="644.82892" class="st2" width="75.60713" height="62.78082"/>
</g>
<g id="building_floors">
	<path id="floor_x5F_office" class="st0" d="M570.37646,435.69241c25.38965-45.16187,31.11273-82.61911,55.82196-162.04562
		c13.46497-52.30154,41.41467-101.64874,89.53711-136.58485c69.16467-48.54333,150.27734-58.3155,224.04535-32.22045
		l-0.00494,0.01145c69.27618,28.76974,93.65863,65.69818,126.21393,110.2935c30.79309,41.19179,39.39319,56.37929,60.15503,76.6714
		c32.84558,29.94479,77.03479,49.22052,120.41003,50.02264v127.4827h-19.59851v10.67795h19.59851v147.75345h-87.83569v94.05017
		h-42.16333v-80.53479H972.61835v-19.36517h-52.60492v39.33331h-96.21985l0.00024-99.84052h-62.47278L566.80206,441.80954
		C568.39917,439.07654,570.37646,435.69241,570.37646,435.69241z"/>
	<polygon id="floor_x5F_storage_x5F_marketing" class="st2" points="1162.33826,716.13446 1162.33826,631.37561 
		1246.55493,631.37561 1246.55493,716.1344 1246.55505,716.13446 	"/>
	<rect id="floor_x5F_admin" x="971.49341" y="724.76062" class="st2" width="98.0136" height="95.29168"/>
	<rect id="floor_x5F_shower_2" x="1075.89844" y="734.00024" class="st2" width="37.68058" height="49.6386"/>
	<rect id="floor_x5F_shower_1" x="1073.07043" y="786.47729" class="st2" width="40.50856" height="33.57505"/>
	<path id="floor_x5F_nullpointer" class="st0" d="M448.44312,549.10541l66.10632,123.30432l-98.66504,52.89703v-0.00006
		l-66.15051-123.30957C399.03391,575.58057,438.5415,554.41095,448.44312,549.10541z"/>
	<path id="floor_x5F_wasser" class="st0" d="M346.58966,603.68188l66.17584,123.29694l-98.73627,52.93524l-66.15027-123.33972
		C281.2327,638.70239,315.71783,620.22412,346.58966,603.68188z"/>
	<path id="floor_x5F_10vorne" class="st0" d="M165.19514,1043.02991l-0.00037-0.00012
		C68.43716,1039.72241,0.15171,957.72205,7.37928,868.75067c3.87474-47.10809,28.48554-87.82062,61.04265-113.15955
		c2.88007-2.20709,3.15952-2.45502,3.88457-2.97302c8.06123-6.30682,21.70777-13.67456,20.91177-13.17242
		c2.54085-1.36108,20.67943-11.08014,48.96146-26.23444l23.37891,43.59521L165.19514,1043.02991z"/>
	<rect id="floor_x5F_elevator" x="774.50745" y="724.76093" class="st0" width="94.14513" height="90.2796"/>
	<rect id="floor_x5F_stairs" x="557.65527" y="724.76105" class="st2" width="171.19948" height="90.27945"/>
	<polygon id="floor_x5F_storage_x5F_drinks" class="st2" points="549.14056,720.23267 549.14056,820.05225 453.84882,820.05225 
		453.84882,771.27258 	"/>
	<polygon id="floor_x5F_kitchen" class="st3" points="314.7056,976.09369 174.19324,976.09369 174.19305,877.6629 
		295.8736,877.6629 295.8736,889.8277 314.71445,889.8277 314.71542,889.823 	"/>
	<polygon id="floor_x5F_toilet_x5F_m_x5F_2" class="st0" points="418.46201,1042.27979 317.55432,1042.27979 317.55432,1020.41901 
		326.1282,1020.41888 326.1282,924.13898 418.46201,924.13898 	"/>
	<polygon id="floor_x5F_toilet_x5F_m_x5F_1" class="st2" points="418.46201,921.05902 326.1282,921.02008 326.1282,880.50128 
		381.78333,880.50128 381.78333,877.6629 418.46201,877.6629 	"/>
	<rect id="floor_x5F_living_x5F_room" x="422.02481" y="877.6629" class="st0" width="92.75546" height="164.61687"/>
	<rect id="floor_x5F_memory" x="518.34296" y="877.6629" class="st0" width="150.4873" height="164.61687"/>
	<rect id="floor_x5F_kreativ" x="672.39307" y="877.6629" class="st0" width="73.49149" height="164.61687"/>
	<rect id="floor_x5F_contargo" x="749.4472" y="877.6629" class="st0" width="150.48595" height="164.61687"/>
	<rect id="floor_x5F_workspace" x="1019.01813" y="906.77142" class="st0" width="73.49837" height="135.5083"/>
	<rect id="floor_x5F_fitness" x="1096.07922" y="906.77142" class="st0" width="73.43018" height="135.5083"/>
	<rect id="floor_x5F_bmw" x="1173.07227" y="906.77142" class="st0" width="73.48376" height="135.5083"/>
	<polygon id="floor_x5F_billard" class="st0" points="1246.55603,903.69147 1015.45532,903.69147 1015.45532,906.77142 
		1015.45544,1042.27979 903.49658,1042.27979 903.49658,877.6629 922.88165,877.6629 922.88165,874.09961 922.88043,874.09961 
		922.88043,823.61505 1116.41687,823.61505 1116.42395,724.75684 1158.63098,724.70026 1158.63098,823.61499 1158.63098,823.61517 
		1246.55603,823.61517 	"/>
	<polygon id="floor_x5F_elevator_1_" class="st3" points="1025.59998,644.82874 969.05762,644.82849 969.05762,625.52399 
		923.58997,625.46216 923.58997,664.79047 652.94806,664.79034 652.94806,716.17926 923.58997,716.18036 923.58984,820.04688 
		968.70526,820.05249 968.70526,707.60974 1025.59998,707.60974 	"/>
	<polygon id="floor_x5F_balcony" class="st2" points="310.30685,1044.09143 178.78252,1044.09143 178.78252,981.2572 
		280.17416,981.2572 280.17416,983.2832 310.30685,983.2832 	"/>
	<rect id="floor_x5F_toilet_x5F_f_x5F_3" x="1193.11902" y="761.11475" class="st2" width="43.11784" height="29.3752"/>
	<rect id="floor_x5F_toilet_x5F_f_x5F_2" x="1193.11902" y="791.34192" class="st2" width="43.11784" height="29.37477"/>
	<rect id="floor_x5F_toilet_x5F_f_x5F_1" x="1161.52954" y="761.11475" class="st2" width="30.74444" height="59.60197"/>
	<path id="floor_x5F_coffee" class="st0" d="M450.28577,823.6153c-33.28604,0.26495-32.33984-30.88153-19.09583-42.62085
		c5.45294-4.42395,8.9165-6.34839,8.9165-6.34839l108.90265-58.38934l100.3761-0.07202l-0.00012-54.9516h170.84937v-96.27234
		l-59.78345,0.05603L567.15863,446.25183c-48.23718,64.30536-70.13446,75.07043-113.91452,104.26001l66.1257,123.3421
		l-0.30988,0.16687l0.00763,0.01416L312.60239,784.72534l-67.86591-126.46716
		c-36.6722,19.65015-71.78708,38.46576-98.99022,53.04205l28.44661,53.85889v6.94501l0.00023,101.99542h745.17615l-0.05176-50.48425
		H450.28577z"/>
</g>
<g id="building_pillars">
	<circle id="pillar_24_" class="st1" cx="1246.55493" cy="561.39764" r="4.28364"/>
	<circle id="pillar_23_" class="st1" cx="1246.55493" cy="351.10181" r="4.28364"/>
	<circle id="pillar_22_" class="st1" cx="1055.9563" cy="561.42755" r="4.28364"/>
	<circle id="pillar_21_" class="st1" cx="918.89679" cy="561.42755" r="4.28364"/>
	<circle id="pillar_20_" class="st1" cx="1055.9563" cy="407.14502" r="4.28364"/>
	<circle id="pillar_19_" class="st1" cx="825.12006" cy="407.14502" r="4.28364"/>
	<circle id="pillar_18_" class="st1" cx="844.99817" cy="205.38521" r="4.28364"/>
	<circle id="pillar_17_" class="st1" cx="1055.9563" cy="216.81625" r="4.28364"/>
	<circle id="pillar_16_" class="st1" cx="945.04834" cy="116.85646" r="4.28364"/>
	<circle id="pillar_15_" class="st1" cx="820.83777" cy="100.74937" r="4.28364"/>
	<circle id="pillar_14_" class="st1" cx="714.21143" cy="148.10562" r="4.28364"/>
	<circle id="pillar_13_" class="st1" cx="628.24719" cy="299.91547" r="4.28364"/>
	<circle id="pillar_12_" class="st1" cx="735.22534" cy="561.42755" r="4.28364"/>
	<circle id="pillar_11_" class="st1" cx="573.26068" cy="447.92517" r="4.28364"/>
	<circle id="pillar_10_" class="st1" cx="1055.76733" cy="1032.85925" r="4.28804"/>
	<circle id="pillar_9_" class="st1" cx="1055.76282" cy="815.17041" r="4.28804"/>
	<circle id="pillar_8_" class="st1" cx="863.18762" cy="1032.85925" r="4.28804"/>
	<circle id="pillar_7_" class="st1" cx="670.61108" cy="1032.85925" r="4.28804"/>
	<circle id="pillar_6_" class="st1" cx="478.03461" cy="1032.85925" r="4.28804"/>
	<circle id="pillar_5_" class="st1" cx="323.98523" cy="1032.85925" r="4.28804"/>
	<circle id="pillar_4_" class="st1" cx="29.44367" cy="934.4267" r="4.28804"/>
	<circle id="pillar_3_" class="st1" cx="99.01108" cy="749.39838" r="4.28804"/>
	<circle id="pillar_2_" class="st1" cx="369.16336" cy="813.74164" r="4.28804"/>
	<circle id="pillar_1_" class="st1" cx="285.6691" cy="649.30603" r="4.28804"/>
	<path id="pillar" class="st1" d="M1246.55603,1037.14661c-2.36829,0-4.28809-1.9198-4.28809-4.28796
		c0-2.36829,1.9198-4.28809,4.28809-4.28809V1037.14661z"/>
</g>
<g id="building_doors">
	<rect id="door_5_" x="1123.95349" y="903.69147" class="st4" width="27.19956" height="3.07996"/>
	<polygon id="door_34_" class="st4" points="1154.01318,721.80475 1121.09534,721.80475 1121.09534,724.75061 1154.01318,724.70648 
			"/>
	<rect id="door_33_" x="929.79877" y="820.05231" class="st4" width="32.91787" height="3.56295"/>
	<polygon id="door_32_" class="st4" points="922.88043,865.31635 922.88043,832.3985 919.3175,832.3985 919.36926,865.31635 	"/>
	<rect id="door_31_" x="929.79877" y="621.90479" class="st4" width="32.91787" height="3.56295"/>
	<rect id="door_30_" x="1025.59998" y="659.76019" class="st4" width="3.56295" height="32.91787"/>
	<rect id="door_29_" x="1186.73181" y="627.75458" class="st4" width="32.91787" height="3.62105"/>
	<rect id="door_28_" x="649.38513" y="673.94824" class="st4" width="3.56295" height="32.91787"/>
	<rect id="door_27_" x="685.5329" y="716.18616" class="st4" width="32.91787" height="8.57491"/>
	<rect id="door_26_" x="998.28418" y="820.05231" class="st4" width="32.91787" height="3.56274"/>
	<rect id="door_3_" x="1113.57898" y="789.66406" class="st4" width="2.83928" height="27.19956"/>
	<rect id="door_2_" x="1158.63098" y="789.66406" class="st4" width="2.89849" height="27.19956"/>
	<rect id="door_1_" x="1084.57471" y="783.63885" class="st4" width="22.67966" height="2.83829"/>
	<rect id="door_25_" x="831.11517" y="661.23315" class="st4" width="32.91787" height="3.56295"/>
	<rect id="door_24_" x="782.01654" y="661.23315" class="st4" width="32.91787" height="3.56295"/>
	<rect id="door_23_" x="848.62915" y="874.09955" class="st4" width="27.20152" height="3.56329"/>
	<rect id="door_22_" x="773.54974" y="874.09955" class="st4" width="27.20152" height="3.56329"/>
	
		<rect id="door" x="156.27509" y="779.42596" transform="matrix(-1.836970e-16 1 -1 -1.836970e-16 953.61902 613.86737)" class="st4" width="27.20152" height="8.63443"/>
	<polygon id="door_21_" class="st4" points="363.10278,753.60535 339.12881,766.45752 340.82388,769.59521 364.79645,756.74036 	"/>
	<polygon id="door_20_" class="st4" points="461.21201,701.00537 437.2384,713.85828 438.93375,716.99646 462.90741,704.14368 	"/>
	<polygon id="door_19_" class="st4" points="518.24225,732.75293 494.26904,745.60657 495.95184,748.7215 519.93054,735.87805 	"/>
	<polygon id="door_18_" class="st4" points="730.50195,542.60516 707.39288,528.33636 705.58905,531.30798 728.76569,545.5484 	"/>
	<polygon id="door_17_" class="st4" points="707.39288,528.33636 684.22675,514.07874 682.41614,517.06152 705.59271,531.30194 	"/>
	<rect id="door_16_" x="779.49475" y="716.18616" class="st4" width="37.96149" height="8.57491"/>
	<rect id="door_15_" x="825.70477" y="716.18616" class="st4" width="37.96041" height="8.57491"/>
	<rect id="door_6_" x="1196.21338" y="903.69147" class="st4" width="27.19956" height="3.07996"/>
	<rect id="door_4_" x="1042.1665" y="903.69147" class="st4" width="27.19956" height="3.07996"/>
	<polygon id="door_14_" class="st4" points="412.34216,921.05902 385.14066,921.04492 385.14066,924.13885 412.34216,924.13885 	"/>
	<rect id="door_13_" x="695.53802" y="874.09961" class="st4" width="27.20152" height="3.56329"/>
	<rect id="door_12_" x="617.52551" y="874.09961" class="st4" width="27.20152" height="3.56329"/>
	<rect id="door_11_" x="542.44611" y="874.09961" class="st4" width="27.20152" height="3.56329"/>
	<rect id="door_10_" x="444.74039" y="874.09961" class="st4" width="27.20152" height="3.56329"/>
	<rect id="door_9_" x="252.25444" y="874.09955" class="st4" width="27.20152" height="3.56329"/>
	<rect id="door_8_" x="245.75485" y="976.09369" class="st4" width="27.20152" height="5.16347"/>
	<polygon id="door_7_" class="st4" points="412.34216,874.11365 385.14066,874.09955 385.14066,877.6629 412.34216,877.6629 	"/>
</g>
<g id="building_elevator">
</g>
</svg>
