<?xml version="1.0" encoding="iso-8859-1"?>
<!-- Generator: Adobe Illustrator 19.0.0, SVG Export Plug-In . SVG Version: 6.00 Build 0)  -->
<svg version="1.1" id="Layer_1" xmlns="http://www.w3.org/2000/svg" xmlns:xlink="http://www.w3.org/1999/xlink" x="0px" y="0px"
	 viewBox="0 0 512 512" style="enable-background:new 0 0 512 512;" xml:space="preserve">
<g>
	<g>
		<path d="M267.537,412.71l-89.353-100.514c-1.604-1.801-4.378-1.92-6.127-0.256l-64.99,61.747
			c-20.258,22.238-15.394,56.175,11.827,82.517c15.087,14.601,35.883,24.926,57.293,24.926c16.051,0,32.461-5.811,47.036-19.977
			l44.083-42.539C268.954,417.028,269.056,414.416,267.537,412.71z"/>
	</g>
</g>
<g>
	<g>
		<path d="M506.837,1.002c-3.14-1.357-6.775-0.7-9.242,1.656L256.418,231.786c-1.673,1.587-1.775,4.207-0.247,5.931l88.747,99.84
			c1.613,1.809,4.403,1.92,6.153,0.239L509.389,185.04c1.672-1.604,2.611-3.823,2.611-6.144V8.844
			C512,5.431,509.969,2.342,506.837,1.002z"/>
	</g>
</g>
<g>
	<g>
		<path d="M332.86,349.682l-88.883-99.994c-1.604-1.801-4.378-1.92-6.127-0.256l-47.232,44.868
			c-1.664,1.587-1.775,4.207-0.247,5.922l89.216,100.369c1.613,1.809,4.403,1.92,6.153,0.239l46.891-45.244
			C334.276,354,334.379,351.389,332.86,349.682z"/>
	</g>
</g>
<g>
	<g>
		<path d="M93.867,494.63H8.533c-4.719,0-8.533,3.823-8.533,8.533s3.814,8.533,8.533,8.533h85.333c4.719,0,8.533-3.823,8.533-8.533
			S98.586,494.63,93.867,494.63z"/>
	</g>
</g>
<g>
	<g>
		<path d="M503.467,494.63H264.533c-4.719,0-8.533,3.823-8.533,8.533s3.814,8.533,8.533,8.533h238.933
			c4.719,0,8.533-3.823,8.533-8.533S508.186,494.63,503.467,494.63z"/>
	</g>
</g>
</svg>
