<?xml version="1.0" encoding="iso-8859-1"?>
<!-- Generator: Adobe Illustrator 19.0.0, SVG Export Plug-In . SVG Version: 6.00 Build 0)  -->
<svg version="1.1" id="Layer_1" xmlns="http://www.w3.org/2000/svg" xmlns:xlink="http://www.w3.org/1999/xlink" x="0px" y="0px"
	 viewBox="0 0 511.984 511.984" style="enable-background:new 0 0 511.984 511.984;" xml:space="preserve">
<g>
	<g>
		<path d="M464.88,20.964c-1.185-6.24-5.754-12.685-11.918-16.82c-5.089-3.419-10.699-4.8-15.669-3.853
			C155.911,51.569,154.709,98.405,154.24,116.35c-0.682,25.353,23.154,41.738,48.285,52.275c3.112,1.304,6.675,0.588,9.105-1.748
			c4.527-4.356,13.359-13.248,20.289-20.281c4.399-4.459,2.592-11.935-3.325-13.998c-5.635-1.961-12.054-4.561-17.058-7.604
			c-5.644-3.427-5.609-11.56,0.17-14.748c23.597-13.035,83.954-36.666,235.689-64.329c5.737-1.04,10.716-4.22,14.024-8.934
			C464.71,32.268,465.938,26.582,464.88,20.964z"/>
	</g>
</g>
<g>
	<g>
		<path d="M483.047,300.599c-4.126-47.697-47.714-75.164-99.827-94.013c-3.086-1.117-6.564-0.332-8.9,1.969
			c-5.089,5.021-14.254,14.083-21.099,21.023c-4.237,4.297-2.779,11.509,2.822,13.776c29.667,12.029,80.748,38.661,82.735,61.576
			c3.913,45.268-86.341,109.222-169.8,138.3c-66.929,23.307-130.841,21.952-148.905,21.005
			c-12.267-0.682-22.617,9.369-23.222,22.463c-0.29,6.308,1.748,12.361,5.737,17.041c3.981,4.68,9.446,7.425,15.37,7.741
			c5.115,0.264,11.867,0.503,20,0.503c34.91,0,88.37-4.126,144.847-23.81C367.278,458.754,490.319,384.528,483.047,300.599z"/>
	</g>
</g>
<g>
	<g>
		<path d="M123.217,422.251l-64.815-64.815c-2.31-2.31-6.266-1.262-7.127,1.893l-22.344,81.916c-0.81,2.95,0.034,6.104,2.199,8.269
			c1.62,1.62,3.794,2.498,6.027,2.498c0.75,0,1.5-0.102,2.242-0.298l81.925-22.335C124.479,428.516,125.528,424.569,123.217,422.251
			z"/>
	</g>
</g>
<g>
	<g>
		<path d="M315.472,239.407l-74.227-74.227c-1.662-1.662-4.365-1.662-6.027,0l-7.493,7.493c-1.662,1.662-1.662,4.356,0,6.027
			l74.227,74.227c1.662,1.662,4.365,1.662,6.027,0l7.493-7.493C317.135,243.772,317.135,241.07,315.472,239.407z"/>
	</g>
</g>
<g>
	<g>
		<path d="M289.897,264.982l-74.227-74.227c-1.662-1.662-4.365-1.662-6.027,0L65.751,334.648c-1.662,1.662-1.662,4.365,0,6.027
			l74.227,74.227c1.662,1.662,4.365,1.662,6.027,0l143.893-143.893C291.56,269.347,291.56,266.645,289.897,264.982z"/>
	</g>
</g>
<g>
	<g>
		<path d="M367.133,181.71l-68.2-68.2c-3.325-3.325-8.73-3.325-12.054,0l-33.58,33.58c-1.662,1.662-1.662,4.365,0,6.027
			l74.227,74.227c1.662,1.662,4.365,1.662,6.027,0l33.58-33.58C370.458,190.44,370.458,185.035,367.133,181.71z"/>
	</g>
</g>
</svg>
